M48
;Layer_Color=9474304
;FILE_FORMAT=4:4
METRIC,LZ
;TYPE=PLATED
T1F00S00C0.4000
T2F00S00C0.8000
T3F00S00C0.9000
T5F00S00C3.2000
%
T01
X00136Y00108
X00134Y00155
T02
X0011645Y001982
X0013935
X0016225
X0018515
X0020805
X001966Y00218
X001737
X001508
X001279
X00105
X0011645Y002378
X0013935
X0016225
X0018515
X0020805
T03
X000712Y00018
X000966
X00122
X001474
X001728
X001982
X002236
X00249
Y000688
X002236
X001982
X001728
X001474
X00122
X000966
X000712
T05
X0003Y0015
X0029
M30
