G04*
G04 #@! TF.GenerationSoftware,Altium Limited,Altium Designer,18.0.12 (696)*
G04*
G04 Layer_Color=8388736*
%FSLAX44Y44*%
%MOMM*%
G71*
G01*
G75*
%ADD14R,0.9500X0.8000*%
%ADD15R,0.6500X0.9500*%
%ADD16C,3.0000*%
%ADD17R,1.6500X1.6500*%
%ADD18C,1.6500*%
%ADD19O,5.5500X3.1500*%
%ADD20C,5.1500*%
D14*
X203000Y138250D02*
D03*
Y124750D02*
D03*
X187000Y138250D02*
D03*
Y124750D02*
D03*
D15*
X144000Y139000D02*
D03*
Y123000D02*
D03*
X152000D02*
D03*
X160000D02*
D03*
X168000D02*
D03*
X152000Y139000D02*
D03*
X160000D02*
D03*
X168000D02*
D03*
X124000D02*
D03*
X116000D02*
D03*
X108000D02*
D03*
X124000Y123000D02*
D03*
X116000D02*
D03*
X108000D02*
D03*
X100000D02*
D03*
Y139000D02*
D03*
D16*
X238000Y218000D02*
D03*
X65000Y103000D02*
D03*
D17*
X71200Y18000D02*
D03*
Y68800D02*
D03*
D18*
X96600Y18000D02*
D03*
X122000D02*
D03*
X147400D02*
D03*
X172800D02*
D03*
X198200D02*
D03*
X249000D02*
D03*
X223600D02*
D03*
Y68800D02*
D03*
X249000D02*
D03*
X198200D02*
D03*
X172800D02*
D03*
X147400D02*
D03*
X122000D02*
D03*
X96600D02*
D03*
X116450Y198200D02*
D03*
X139350D02*
D03*
X162250D02*
D03*
X185150D02*
D03*
X208050D02*
D03*
X105000Y218000D02*
D03*
X127900D02*
D03*
X150800D02*
D03*
X173700D02*
D03*
X196600D02*
D03*
X116450Y237800D02*
D03*
X139350D02*
D03*
X162250D02*
D03*
X185150D02*
D03*
X208050D02*
D03*
D19*
X284850Y218000D02*
D03*
X34550D02*
D03*
D20*
X30000Y150000D02*
D03*
X290000D02*
D03*
M02*
