G04*
G04 #@! TF.GenerationSoftware,Altium Limited,Altium Designer,18.0.12 (696)*
G04*
G04 Layer_Physical_Order=1*
G04 Layer_Color=7334*
%FSLAX44Y44*%
%MOMM*%
G71*
G01*
G75*
%ADD12R,0.8000X0.6500*%
%ADD13R,0.5000X0.8000*%
%ADD21C,1.0000*%
%ADD22C,0.3000*%
%ADD23R,1.5000X1.5000*%
%ADD24C,1.5000*%
%ADD25O,5.4000X3.0000*%
%ADD26C,5.0000*%
G36*
X311901Y254590D02*
X313513Y253513D01*
X314590Y251901D01*
X314935Y250167D01*
X314902Y250000D01*
Y224632D01*
X313702Y224454D01*
X313560Y224922D01*
X311889Y228049D01*
X310596Y229624D01*
X297911Y216939D01*
X295789Y219061D01*
X308474Y231746D01*
X306899Y233039D01*
X303772Y234710D01*
X300379Y235739D01*
X296850Y236087D01*
X272850D01*
X269321Y235739D01*
X265928Y234710D01*
X262801Y233039D01*
X260061Y230790D01*
X257811Y228049D01*
X256140Y224922D01*
X255529Y222910D01*
X254275D01*
X253782Y224537D01*
X252203Y227490D01*
X250079Y230079D01*
X247490Y232203D01*
X244537Y233782D01*
X241333Y234754D01*
X238000Y235082D01*
X234667Y234754D01*
X231463Y233782D01*
X228510Y232203D01*
X225921Y230079D01*
X223797Y227490D01*
X222218Y224537D01*
X221246Y221333D01*
X220918Y218000D01*
X221246Y214667D01*
X222218Y211463D01*
X223797Y208510D01*
X225921Y205921D01*
X228510Y203797D01*
X231463Y202218D01*
X234667Y201246D01*
X238000Y200918D01*
X241333Y201246D01*
X244537Y202218D01*
X247490Y203797D01*
X250079Y205921D01*
X252203Y208510D01*
X253782Y211463D01*
X254275Y213090D01*
X255529D01*
X256140Y211078D01*
X257811Y207951D01*
X259104Y206376D01*
X271789Y219061D01*
X273911Y216939D01*
X261226Y204254D01*
X262801Y202961D01*
X265928Y201290D01*
X269321Y200261D01*
X272850Y199913D01*
X296850D01*
X300379Y200261D01*
X303772Y201290D01*
X306899Y202961D01*
X309639Y205210D01*
X311889Y207951D01*
X313560Y211078D01*
X313702Y211546D01*
X314902Y211368D01*
Y168884D01*
X313702Y168442D01*
X311279Y171279D01*
X307688Y174345D01*
X303662Y176813D01*
X299299Y178620D01*
X294708Y179722D01*
X290000Y180093D01*
X285292Y179722D01*
X280701Y178620D01*
X276338Y176813D01*
X272312Y174345D01*
X268721Y171279D01*
X265655Y167688D01*
X263187Y163662D01*
X261380Y159299D01*
X260278Y154707D01*
X259907Y150000D01*
X260278Y145293D01*
X261380Y140701D01*
X263187Y136338D01*
X265655Y132312D01*
X268721Y128721D01*
X272312Y125654D01*
X276338Y123187D01*
X280701Y121380D01*
X285292Y120278D01*
X290000Y119907D01*
X294708Y120278D01*
X295665Y120507D01*
X296251Y119460D01*
X264395Y87605D01*
X263290Y85951D01*
X262902Y84000D01*
Y10000D01*
X262935Y9833D01*
X262590Y8099D01*
X261513Y6487D01*
X259901Y5410D01*
X258167Y5065D01*
X258000Y5098D01*
X166513D01*
X166053Y6207D01*
X167183Y7336D01*
X167461Y7526D01*
X167833Y7722D01*
X168285Y7906D01*
X168819Y8071D01*
X169436Y8213D01*
X170109Y8321D01*
X171796Y8452D01*
X172491Y8459D01*
X172800Y8418D01*
X175280Y8745D01*
X177591Y9702D01*
X179576Y11224D01*
X181098Y13209D01*
X182055Y15520D01*
X182382Y18000D01*
X182055Y20480D01*
X181098Y22791D01*
X179576Y24775D01*
X177591Y26298D01*
X175280Y27255D01*
X172800Y27582D01*
X170320Y27255D01*
X168009Y26298D01*
X166025Y24775D01*
X164502Y22791D01*
X163545Y20480D01*
X163218Y18000D01*
X163254Y17726D01*
X163204Y16092D01*
X163125Y15335D01*
X163013Y14636D01*
X162871Y14019D01*
X162706Y13485D01*
X162522Y13033D01*
X162326Y12661D01*
X162136Y12383D01*
X160322Y10569D01*
X155185D01*
X154593Y11769D01*
X155698Y13209D01*
X156656Y15520D01*
X156982Y18000D01*
X156946Y18274D01*
X156996Y19908D01*
X157074Y20665D01*
X157187Y21363D01*
X157329Y21981D01*
X157494Y22515D01*
X157678Y22967D01*
X157874Y23338D01*
X158064Y23617D01*
X162523Y28077D01*
X163297Y29234D01*
X163569Y30600D01*
Y61611D01*
X164769Y62019D01*
X165311Y61311D01*
X167505Y59628D01*
X170059Y58570D01*
X172800Y58209D01*
X175541Y58570D01*
X178095Y59628D01*
X180231Y61267D01*
X180647Y61200D01*
X181431Y60934D01*
Y31200D01*
X181703Y29834D01*
X182477Y28677D01*
X187537Y23617D01*
X187726Y23338D01*
X187922Y22967D01*
X188106Y22515D01*
X188271Y21981D01*
X188413Y21364D01*
X188521Y20691D01*
X188652Y19004D01*
X188659Y18310D01*
X188618Y18000D01*
X188945Y15520D01*
X189902Y13209D01*
X191425Y11224D01*
X193409Y9702D01*
X195720Y8745D01*
X198200Y8418D01*
X200680Y8745D01*
X202991Y9702D01*
X204975Y11224D01*
X206498Y13209D01*
X207456Y15520D01*
X207782Y18000D01*
X207456Y20480D01*
X206498Y22791D01*
X204975Y24775D01*
X202991Y26298D01*
X200680Y27255D01*
X198200Y27582D01*
X197926Y27546D01*
X196292Y27596D01*
X195535Y27675D01*
X194837Y27787D01*
X194219Y27929D01*
X193685Y28094D01*
X193233Y28278D01*
X192862Y28474D01*
X192583Y28663D01*
X188569Y32678D01*
Y62133D01*
X189769Y62540D01*
X189790Y62512D01*
X197139Y69861D01*
X204488Y77210D01*
X203495Y77972D01*
X200941Y79030D01*
X198200Y79391D01*
X195459Y79030D01*
X192905Y77972D01*
X190711Y76289D01*
X189769Y75060D01*
X188569Y75467D01*
Y82000D01*
X188297Y83366D01*
X187523Y84523D01*
X163569Y108478D01*
Y117000D01*
X172500D01*
Y129000D01*
X145615D01*
X145155Y130109D01*
X146523Y131477D01*
X147297Y132634D01*
X147370Y133000D01*
X172500D01*
Y145000D01*
X163569D01*
Y156522D01*
X164773Y157727D01*
X165547Y158884D01*
X165819Y160250D01*
Y186688D01*
X165882Y187018D01*
X166006Y187420D01*
X166195Y187870D01*
X166456Y188365D01*
X166792Y188901D01*
X167191Y189454D01*
X168292Y190739D01*
X168481Y190932D01*
X169510Y190571D01*
X169681Y190415D01*
Y178750D01*
X169953Y177384D01*
X170727Y176227D01*
X183431Y163522D01*
Y143500D01*
X181000D01*
Y133000D01*
X193000D01*
Y143500D01*
X190569D01*
Y165000D01*
X190297Y166366D01*
X189523Y167523D01*
X176819Y180228D01*
Y191481D01*
X178019Y191888D01*
X178375Y191425D01*
X180359Y189902D01*
X182670Y188944D01*
X185150Y188618D01*
X187630Y188944D01*
X189941Y189902D01*
X191381Y191007D01*
X192581Y190415D01*
Y179300D01*
X192853Y177934D01*
X193627Y176777D01*
X199431Y170972D01*
Y143500D01*
X197000D01*
Y133000D01*
X209000D01*
Y143500D01*
X206569D01*
Y172450D01*
X206297Y173816D01*
X205523Y174973D01*
X199718Y180778D01*
Y189954D01*
X200919Y190437D01*
X202755Y189028D01*
X205309Y187970D01*
X208050Y187609D01*
X210791Y187970D01*
X213345Y189028D01*
X215539Y190711D01*
X217222Y192905D01*
X218280Y195459D01*
X218641Y198200D01*
X218280Y200941D01*
X217222Y203495D01*
X216460Y204488D01*
X209111Y197139D01*
X206989Y199261D01*
X214338Y206610D01*
X213345Y207372D01*
X210791Y208430D01*
X208050Y208791D01*
X205309Y208430D01*
X202755Y207372D01*
X200561Y205689D01*
X200033Y205000D01*
X198834Y205040D01*
X198673Y205280D01*
X197620Y206333D01*
X198050Y207600D01*
X199341Y207770D01*
X201895Y208828D01*
X204089Y210511D01*
X205772Y212705D01*
X206830Y215259D01*
X207191Y218000D01*
X206830Y220741D01*
X205772Y223295D01*
X205010Y224288D01*
X197661Y216939D01*
X195539Y219061D01*
X202888Y226410D01*
X201895Y227172D01*
X199341Y228230D01*
X196600Y228591D01*
X193859Y228230D01*
X191305Y227172D01*
X190574Y226611D01*
X189250Y227108D01*
X189155Y227583D01*
X189356Y227965D01*
X189692Y228501D01*
X190091Y229054D01*
X191192Y230339D01*
X191678Y230835D01*
X191925Y231024D01*
X193448Y233009D01*
X194405Y235320D01*
X194732Y237800D01*
X194405Y240280D01*
X193448Y242591D01*
X191925Y244575D01*
X189941Y246098D01*
X187630Y247055D01*
X185150Y247382D01*
X182670Y247055D01*
X180359Y246098D01*
X178375Y244575D01*
X176852Y242591D01*
X175895Y240280D01*
X175568Y237800D01*
X175895Y235320D01*
X176852Y233009D01*
X178375Y231024D01*
X178594Y230856D01*
X179714Y229665D01*
X180193Y229075D01*
X180608Y228501D01*
X180944Y227965D01*
X181205Y227470D01*
X181394Y227020D01*
X181518Y226618D01*
X181581Y226288D01*
Y225151D01*
X181084Y224982D01*
X180381Y224848D01*
X178491Y226298D01*
X176180Y227255D01*
X173700Y227582D01*
X171220Y227255D01*
X168909Y226298D01*
X167469Y225193D01*
X166269Y225785D01*
Y226390D01*
X166330Y226717D01*
X166453Y227133D01*
X166642Y227605D01*
X166901Y228130D01*
X167233Y228702D01*
X167629Y229300D01*
X168702Y230687D01*
X168937Y230956D01*
X169025Y231024D01*
X169238Y231301D01*
X169348Y231427D01*
X169388Y231497D01*
X170548Y233009D01*
X171505Y235320D01*
X171832Y237800D01*
X171505Y240280D01*
X170548Y242591D01*
X169025Y244575D01*
X167041Y246098D01*
X164730Y247055D01*
X162250Y247382D01*
X159770Y247055D01*
X157459Y246098D01*
X155475Y244575D01*
X153952Y242591D01*
X152994Y240280D01*
X152668Y237800D01*
X152994Y235320D01*
X153952Y233009D01*
X155475Y231024D01*
X155920Y230683D01*
X155960Y230629D01*
X156658Y229995D01*
X157241Y229411D01*
X157740Y228852D01*
X158158Y228321D01*
X158495Y227821D01*
X158755Y227357D01*
X158792Y227272D01*
X158630Y226739D01*
X157239Y226294D01*
X156095Y227172D01*
X153541Y228230D01*
X150800Y228591D01*
X148059Y228230D01*
X145505Y227172D01*
X143311Y225489D01*
X141628Y223295D01*
X140570Y220741D01*
X140209Y218000D01*
X140570Y215259D01*
X141628Y212705D01*
X142390Y211712D01*
X149739Y219061D01*
X151861Y216939D01*
X144512Y209590D01*
X145505Y208828D01*
X148059Y207770D01*
X150800Y207409D01*
X153541Y207770D01*
X156095Y208828D01*
X158289Y210511D01*
X158817Y211200D01*
X160016Y211160D01*
X160177Y210920D01*
X162137Y208960D01*
X161691Y207708D01*
X159770Y207455D01*
X157459Y206498D01*
X155475Y204975D01*
X153952Y202991D01*
X152994Y200680D01*
X152668Y198200D01*
X152994Y195720D01*
X153952Y193409D01*
X155475Y191425D01*
X155694Y191257D01*
X156814Y190065D01*
X157293Y189475D01*
X157708Y188901D01*
X158044Y188365D01*
X158305Y187870D01*
X158494Y187420D01*
X158618Y187018D01*
X158681Y186688D01*
Y161728D01*
X157477Y160523D01*
X157392Y160397D01*
X155762Y160086D01*
X155569Y160218D01*
Y165000D01*
X155297Y166366D01*
X154523Y167523D01*
X147523Y174523D01*
X146366Y175297D01*
X145000Y175569D01*
X143112D01*
X142922Y175602D01*
X142782Y175649D01*
X142719Y175683D01*
X142699Y175699D01*
X142682Y175720D01*
X142649Y175782D01*
X142602Y175922D01*
X142569Y176112D01*
Y186628D01*
X142633Y186959D01*
X142757Y187349D01*
X142946Y187780D01*
X143206Y188251D01*
X143543Y188759D01*
X143942Y189277D01*
X145059Y190483D01*
X145735Y191113D01*
X145753Y191139D01*
X146125Y191425D01*
X147648Y193409D01*
X148605Y195720D01*
X148932Y198200D01*
X148605Y200680D01*
X147648Y202991D01*
X146125Y204975D01*
X144141Y206498D01*
X141830Y207455D01*
X139350Y207782D01*
X136870Y207455D01*
X134559Y206498D01*
X132575Y204975D01*
X131052Y202991D01*
X130094Y200680D01*
X129768Y198200D01*
X130094Y195720D01*
X131052Y193409D01*
X132337Y191734D01*
X132337Y191734D01*
X132338Y191733D01*
X132575Y191425D01*
X132702Y191327D01*
X132988Y191008D01*
X134067Y189643D01*
X134464Y189056D01*
X134798Y188491D01*
X135057Y187973D01*
X135246Y187506D01*
X135370Y187093D01*
X135431Y186765D01*
Y176112D01*
X135398Y175922D01*
X135351Y175782D01*
X135318Y175720D01*
X135301Y175699D01*
X135281Y175683D01*
X135218Y175649D01*
X135078Y175602D01*
X134888Y175569D01*
X126000D01*
X124634Y175297D01*
X123477Y174523D01*
X105477Y156523D01*
X105392Y156397D01*
X103762Y156086D01*
X103569Y156218D01*
Y158522D01*
X118973Y173927D01*
X119747Y175084D01*
X120019Y176450D01*
Y186688D01*
X120082Y187018D01*
X120206Y187420D01*
X120395Y187870D01*
X120656Y188365D01*
X120992Y188901D01*
X121391Y189454D01*
X122492Y190739D01*
X122978Y191235D01*
X123225Y191425D01*
X124748Y193409D01*
X125705Y195720D01*
X126032Y198200D01*
X125705Y200680D01*
X124748Y202991D01*
X123225Y204975D01*
X121241Y206498D01*
X118930Y207455D01*
X116450Y207782D01*
X113970Y207455D01*
X111659Y206498D01*
X109675Y204975D01*
X108152Y202991D01*
X107194Y200680D01*
X106868Y198200D01*
X107194Y195720D01*
X108152Y193409D01*
X109675Y191425D01*
X109894Y191257D01*
X111014Y190065D01*
X111493Y189475D01*
X111908Y188901D01*
X112244Y188365D01*
X112505Y187870D01*
X112694Y187420D01*
X112818Y187018D01*
X112881Y186688D01*
Y177928D01*
X97477Y162523D01*
X96703Y161366D01*
X96431Y160000D01*
Y145000D01*
X95500D01*
Y133000D01*
X96630D01*
X96703Y132634D01*
X97477Y131477D01*
X98845Y130109D01*
X98385Y129000D01*
X95500D01*
Y117000D01*
X96431D01*
Y94478D01*
X82477Y80523D01*
X81703Y79366D01*
X81690Y79300D01*
X60700D01*
Y60421D01*
X70139Y69861D01*
X72261Y67739D01*
X62821Y58300D01*
X81431D01*
Y33278D01*
X76661Y28508D01*
X76142Y28025D01*
X75720Y27686D01*
X75454Y27500D01*
X61700D01*
Y8500D01*
X80700D01*
Y22254D01*
X80870Y22497D01*
X81579Y23332D01*
X87523Y29277D01*
X88297Y30434D01*
X88569Y31800D01*
Y60215D01*
X89769Y60807D01*
X91305Y59628D01*
X93859Y58570D01*
X96600Y58209D01*
X99341Y58570D01*
X101895Y59628D01*
X103231Y60654D01*
X104431Y60062D01*
Y32000D01*
X104703Y30634D01*
X105477Y29477D01*
X111336Y23617D01*
X111525Y23338D01*
X111722Y22967D01*
X111906Y22515D01*
X112071Y21981D01*
X112213Y21364D01*
X112321Y20691D01*
X112452Y19004D01*
X112459Y18310D01*
X112418Y18000D01*
X112745Y15520D01*
X113702Y13209D01*
X115225Y11224D01*
X117209Y9702D01*
X119520Y8745D01*
X122000Y8418D01*
X124480Y8745D01*
X126791Y9702D01*
X128776Y11224D01*
X130298Y13209D01*
X130344Y13318D01*
X131592Y13196D01*
X131703Y12634D01*
X132477Y11477D01*
X137747Y6207D01*
X137288Y5098D01*
X63197D01*
X63175Y5098D01*
X62000Y5098D01*
X60866Y5257D01*
X60099Y5410D01*
X58487Y6487D01*
X57410Y8099D01*
X57065Y9833D01*
X57098Y10000D01*
Y84000D01*
X56710Y85951D01*
X55833Y87263D01*
X56664Y88180D01*
X58463Y87218D01*
X61667Y86246D01*
X65000Y85918D01*
X68333Y86246D01*
X71537Y87218D01*
X74490Y88797D01*
X77079Y90921D01*
X79203Y93510D01*
X80782Y96463D01*
X81754Y99667D01*
X82082Y103000D01*
X81754Y106333D01*
X80782Y109537D01*
X79203Y112490D01*
X77079Y115079D01*
X74490Y117203D01*
X71537Y118782D01*
X68333Y119754D01*
X65000Y120082D01*
X61667Y119754D01*
X58463Y118782D01*
X55510Y117203D01*
X52921Y115079D01*
X50797Y112490D01*
X49218Y109537D01*
X48246Y106333D01*
X47918Y103000D01*
X48246Y99667D01*
X49218Y96463D01*
X50107Y94799D01*
X49133Y94077D01*
X23749Y119460D01*
X24335Y120507D01*
X25292Y120278D01*
X30000Y119907D01*
X34708Y120278D01*
X39299Y121380D01*
X43662Y123187D01*
X47688Y125654D01*
X51279Y128721D01*
X54345Y132312D01*
X56813Y136338D01*
X58620Y140701D01*
X59722Y145293D01*
X60093Y150000D01*
X59722Y154707D01*
X58620Y159299D01*
X56813Y163662D01*
X54345Y167688D01*
X51279Y171279D01*
X47688Y174345D01*
X43662Y176813D01*
X39299Y178620D01*
X34708Y179722D01*
X30000Y180093D01*
X25292Y179722D01*
X20701Y178620D01*
X16338Y176813D01*
X12312Y174345D01*
X8721Y171279D01*
X6298Y168442D01*
X5098Y168884D01*
Y209921D01*
X6298Y210221D01*
X7511Y207951D01*
X8804Y206376D01*
X21489Y219061D01*
X23611Y216939D01*
X10926Y204254D01*
X12501Y202961D01*
X15628Y201290D01*
X19021Y200261D01*
X22550Y199913D01*
X46550D01*
X50079Y200261D01*
X53472Y201290D01*
X56599Y202961D01*
X59339Y205210D01*
X61589Y207951D01*
X63260Y211078D01*
X64289Y214471D01*
X64637Y218000D01*
X64289Y221529D01*
X63260Y224922D01*
X61589Y228049D01*
X60296Y229624D01*
X47611Y216939D01*
X45489Y219061D01*
X58174Y231746D01*
X56599Y233039D01*
X53472Y234710D01*
X50079Y235739D01*
X46550Y236087D01*
X22550D01*
X19021Y235739D01*
X15628Y234710D01*
X12501Y233039D01*
X9761Y230790D01*
X7511Y228049D01*
X6298Y225779D01*
X5098Y226080D01*
Y250000D01*
X5065Y250167D01*
X5410Y251901D01*
X6487Y253513D01*
X8099Y254590D01*
X9833Y254935D01*
X10000Y254902D01*
X310000Y254902D01*
X310167Y254935D01*
X311901Y254590D01*
D02*
G37*
G36*
X189688Y231717D02*
X188487Y230316D01*
X188000Y229641D01*
X187588Y228983D01*
X187250Y228342D01*
X186987Y227719D01*
X186800Y227113D01*
X186688Y226523D01*
X186650Y225951D01*
X183650D01*
X183612Y226523D01*
X183500Y227113D01*
X183312Y227719D01*
X183050Y228342D01*
X182712Y228983D01*
X182300Y229641D01*
X181812Y230316D01*
X181250Y231008D01*
X179900Y232444D01*
X190400D01*
X189688Y231717D01*
D02*
G37*
G36*
X167126Y231983D02*
X165970Y230488D01*
X165500Y229778D01*
X165103Y229095D01*
X164778Y228436D01*
X164525Y227803D01*
X164345Y227196D01*
X164236Y226614D01*
X164200Y226058D01*
X161200Y225874D01*
X161161Y226459D01*
X161045Y227053D01*
X160852Y227657D01*
X160581Y228270D01*
X160233Y228891D01*
X159807Y229522D01*
X159304Y230163D01*
X158724Y230812D01*
X158066Y231471D01*
X157331Y232139D01*
X167812Y232768D01*
X167126Y231983D01*
D02*
G37*
G36*
X166787Y192117D02*
X165588Y190716D01*
X165100Y190041D01*
X164688Y189383D01*
X164350Y188742D01*
X164088Y188119D01*
X163900Y187513D01*
X163787Y186924D01*
X163750Y186352D01*
X160750D01*
X160713Y186924D01*
X160600Y187513D01*
X160413Y188119D01*
X160150Y188742D01*
X159812Y189383D01*
X159400Y190041D01*
X158912Y190716D01*
X158350Y191408D01*
X157000Y192844D01*
X167500D01*
X166787Y192117D01*
D02*
G37*
G36*
X120988D02*
X119788Y190716D01*
X119300Y190041D01*
X118888Y189383D01*
X118550Y188742D01*
X118287Y188119D01*
X118100Y187513D01*
X117987Y186924D01*
X117950Y186352D01*
X114950D01*
X114913Y186924D01*
X114800Y187513D01*
X114613Y188119D01*
X114350Y188742D01*
X114012Y189383D01*
X113600Y190041D01*
X113112Y190716D01*
X112550Y191408D01*
X111200Y192844D01*
X121700D01*
X120988Y192117D01*
D02*
G37*
G36*
X144344Y192605D02*
X143614Y191924D01*
X142384Y190595D01*
X141884Y189947D01*
X141461Y189310D01*
X141115Y188684D01*
X140846Y188069D01*
X140654Y187464D01*
X140539Y186871D01*
X140500Y186289D01*
X137500Y186432D01*
X137464Y186992D01*
X137354Y187575D01*
X137172Y188183D01*
X136917Y188813D01*
X136589Y189468D01*
X136188Y190146D01*
X135714Y190848D01*
X134548Y192322D01*
X133856Y193095D01*
X144344Y192605D01*
D02*
G37*
G36*
X140530Y175930D02*
X140620Y175420D01*
X140770Y174970D01*
X140980Y174580D01*
X141250Y174250D01*
X141580Y173980D01*
X141970Y173770D01*
X142420Y173620D01*
X142930Y173530D01*
X143500Y173500D01*
X139000Y170500D01*
X134500Y173500D01*
X135070Y173530D01*
X135580Y173620D01*
X136030Y173770D01*
X136420Y173980D01*
X136750Y174250D01*
X137020Y174580D01*
X137230Y174970D01*
X137380Y175420D01*
X137470Y175930D01*
X137500Y176500D01*
X140500D01*
X140530Y175930D01*
D02*
G37*
G36*
X130429Y151500D02*
X130034Y151880D01*
X129634Y152220D01*
X129228Y152520D01*
X128816Y152780D01*
X128399Y153000D01*
X127977Y153180D01*
X127548Y153320D01*
X127115Y153420D01*
X126675Y153480D01*
X126230Y153500D01*
Y156500D01*
X126675Y156520D01*
X127115Y156580D01*
X127548Y156680D01*
X127977Y156820D01*
X128399Y157000D01*
X128816Y157220D01*
X129228Y157480D01*
X129634Y157780D01*
X130034Y158120D01*
X130429Y158500D01*
Y151500D01*
D02*
G37*
G36*
X142555Y112433D02*
X142254Y112105D01*
X141986Y111751D01*
X141750Y111374D01*
X141546Y110972D01*
X141375Y110546D01*
X141235Y110096D01*
X141128Y109621D01*
X141053Y109122D01*
X141010Y108598D01*
X141000Y108050D01*
X136050Y113000D01*
X136598Y113010D01*
X137121Y113053D01*
X137621Y113128D01*
X138096Y113235D01*
X138546Y113375D01*
X138972Y113546D01*
X139374Y113750D01*
X139752Y113986D01*
X140105Y114254D01*
X140433Y114555D01*
X142555Y112433D01*
D02*
G37*
G36*
X123061Y67739D02*
X115712Y60390D01*
X116705Y59628D01*
X119259Y58570D01*
X122000Y58209D01*
X124741Y58570D01*
X127295Y59628D01*
X129489Y61311D01*
X130231Y62279D01*
X131431Y61872D01*
Y23596D01*
X130363Y22874D01*
X130231Y22878D01*
X128776Y24775D01*
X126791Y26298D01*
X124480Y27255D01*
X122000Y27582D01*
X121726Y27546D01*
X120091Y27596D01*
X119335Y27675D01*
X118637Y27787D01*
X118019Y27929D01*
X117485Y28094D01*
X117033Y28278D01*
X116662Y28474D01*
X116383Y28663D01*
X111569Y33478D01*
Y63410D01*
X112769Y63649D01*
X112828Y63505D01*
X113590Y62512D01*
X120939Y69861D01*
X123061Y67739D01*
D02*
G37*
G36*
X80791Y25470D02*
X80194Y24852D01*
X79254Y23745D01*
X78912Y23256D01*
X78654Y22810D01*
X78481Y22408D01*
X78394Y22048D01*
X78391Y21731D01*
X78472Y21458D01*
X78639Y21227D01*
X74427Y25439D01*
X74658Y25272D01*
X74931Y25191D01*
X75248Y25194D01*
X75608Y25282D01*
X76010Y25454D01*
X76456Y25712D01*
X76945Y26054D01*
X77477Y26482D01*
X78670Y27591D01*
X80791Y25470D01*
D02*
G37*
G36*
X191313Y27061D02*
X191810Y26724D01*
X192371Y26428D01*
X192997Y26172D01*
X193689Y25958D01*
X194446Y25785D01*
X195268Y25652D01*
X196155Y25560D01*
X198125Y25500D01*
X190700Y18075D01*
X190690Y19093D01*
X190548Y20932D01*
X190415Y21754D01*
X190242Y22511D01*
X190028Y23203D01*
X189772Y23829D01*
X189476Y24390D01*
X189139Y24887D01*
X188761Y25317D01*
X190882Y27439D01*
X191313Y27061D01*
D02*
G37*
G36*
X156839Y25317D02*
X156461Y24887D01*
X156124Y24390D01*
X155828Y23829D01*
X155573Y23203D01*
X155358Y22511D01*
X155185Y21754D01*
X155052Y20932D01*
X154960Y20045D01*
X154900Y18075D01*
X147475Y25500D01*
X148493Y25510D01*
X150332Y25652D01*
X151154Y25785D01*
X151911Y25958D01*
X152603Y26172D01*
X153229Y26428D01*
X153790Y26724D01*
X154287Y27061D01*
X154718Y27439D01*
X156839Y25317D01*
D02*
G37*
G36*
X115113Y27061D02*
X115610Y26724D01*
X116171Y26428D01*
X116797Y26172D01*
X117489Y25958D01*
X118246Y25785D01*
X119068Y25652D01*
X119955Y25560D01*
X121925Y25500D01*
X114500Y18075D01*
X114490Y19093D01*
X114348Y20932D01*
X114215Y21754D01*
X114042Y22511D01*
X113827Y23203D01*
X113572Y23829D01*
X113276Y24390D01*
X112939Y24887D01*
X112561Y25317D01*
X114683Y27439D01*
X115113Y27061D01*
D02*
G37*
G36*
X172725Y10500D02*
X171707Y10490D01*
X169868Y10348D01*
X169046Y10215D01*
X168289Y10042D01*
X167597Y9827D01*
X166971Y9572D01*
X166410Y9276D01*
X165914Y8939D01*
X165483Y8561D01*
X163361Y10682D01*
X163739Y11113D01*
X164076Y11610D01*
X164372Y12171D01*
X164627Y12797D01*
X164842Y13489D01*
X165015Y14246D01*
X165148Y15068D01*
X165240Y15955D01*
X165300Y17925D01*
X172725Y10500D01*
D02*
G37*
%LPC*%
G36*
X208050Y247382D02*
X205570Y247055D01*
X203259Y246098D01*
X201275Y244575D01*
X199752Y242591D01*
X198794Y240280D01*
X198468Y237800D01*
X198794Y235320D01*
X199752Y233009D01*
X201275Y231024D01*
X203259Y229502D01*
X205570Y228545D01*
X208050Y228218D01*
X210530Y228545D01*
X212841Y229502D01*
X214825Y231024D01*
X216348Y233009D01*
X217305Y235320D01*
X217632Y237800D01*
X217305Y240280D01*
X216348Y242591D01*
X214825Y244575D01*
X212841Y246098D01*
X210530Y247055D01*
X208050Y247382D01*
D02*
G37*
G36*
X139350D02*
X136870Y247055D01*
X134559Y246098D01*
X132575Y244575D01*
X131052Y242591D01*
X130094Y240280D01*
X129768Y237800D01*
X130094Y235320D01*
X131052Y233009D01*
X132575Y231024D01*
X134559Y229502D01*
X136870Y228545D01*
X139350Y228218D01*
X141830Y228545D01*
X144141Y229502D01*
X146125Y231024D01*
X147648Y233009D01*
X148605Y235320D01*
X148932Y237800D01*
X148605Y240280D01*
X147648Y242591D01*
X146125Y244575D01*
X144141Y246098D01*
X141830Y247055D01*
X139350Y247382D01*
D02*
G37*
G36*
X116450D02*
X113970Y247055D01*
X111659Y246098D01*
X109675Y244575D01*
X108152Y242591D01*
X107194Y240280D01*
X106868Y237800D01*
X107194Y235320D01*
X108152Y233009D01*
X109675Y231024D01*
X111659Y229502D01*
X113970Y228545D01*
X116450Y228218D01*
X118930Y228545D01*
X121241Y229502D01*
X123225Y231024D01*
X124748Y233009D01*
X125705Y235320D01*
X126032Y237800D01*
X125705Y240280D01*
X124748Y242591D01*
X123225Y244575D01*
X121241Y246098D01*
X118930Y247055D01*
X116450Y247382D01*
D02*
G37*
G36*
X105000Y228591D02*
X102259Y228230D01*
X99705Y227172D01*
X97511Y225489D01*
X95828Y223295D01*
X94770Y220741D01*
X94409Y218000D01*
X94770Y215259D01*
X95828Y212705D01*
X96590Y211712D01*
X103939Y219061D01*
X111288Y226410D01*
X110295Y227172D01*
X107741Y228230D01*
X105000Y228591D01*
D02*
G37*
G36*
X127900D02*
X125159Y228230D01*
X122605Y227172D01*
X120411Y225489D01*
X118728Y223295D01*
X117670Y220741D01*
X117309Y218000D01*
X117670Y215259D01*
X118728Y212705D01*
X119490Y211712D01*
X126839Y219061D01*
X134188Y226410D01*
X133195Y227172D01*
X130641Y228230D01*
X127900Y228591D01*
D02*
G37*
G36*
X136310Y224288D02*
X128961Y216939D01*
X121612Y209590D01*
X122605Y208828D01*
X125159Y207770D01*
X127900Y207409D01*
X130641Y207770D01*
X133195Y208828D01*
X135389Y210511D01*
X137072Y212705D01*
X138130Y215259D01*
X138491Y218000D01*
X138130Y220741D01*
X137072Y223295D01*
X136310Y224288D01*
D02*
G37*
G36*
X113410D02*
X106061Y216939D01*
X98712Y209590D01*
X99705Y208828D01*
X102259Y207770D01*
X105000Y207409D01*
X107741Y207770D01*
X110295Y208828D01*
X112489Y210511D01*
X114172Y212705D01*
X115230Y215259D01*
X115591Y218000D01*
X115230Y220741D01*
X114172Y223295D01*
X113410Y224288D01*
D02*
G37*
G36*
X209000Y130000D02*
X197000D01*
Y119500D01*
X199431D01*
Y114000D01*
X199703Y112634D01*
X200477Y111477D01*
X233431Y78522D01*
Y75207D01*
X232231Y74799D01*
X232010Y75088D01*
X224661Y67739D01*
X222539Y69861D01*
X229888Y77210D01*
X228895Y77972D01*
X226341Y79030D01*
X223600Y79391D01*
X220859Y79030D01*
X218305Y77972D01*
X216769Y76793D01*
X215569Y77385D01*
Y83000D01*
X215297Y84366D01*
X214523Y85523D01*
X190569Y109478D01*
Y119500D01*
X193000D01*
Y130000D01*
X181000D01*
Y119500D01*
X183431D01*
Y108000D01*
X183703Y106634D01*
X184477Y105477D01*
X208431Y81522D01*
Y74604D01*
X207930Y74363D01*
X207231Y74278D01*
X206610Y75088D01*
X199261Y67739D01*
X191912Y60390D01*
X192905Y59628D01*
X195459Y58570D01*
X198200Y58209D01*
X200941Y58570D01*
X203495Y59628D01*
X205689Y61311D01*
X207231Y63322D01*
X207930Y63237D01*
X208431Y62997D01*
Y29600D01*
X208703Y28234D01*
X209477Y27077D01*
X212936Y23617D01*
X213125Y23338D01*
X213322Y22967D01*
X213506Y22515D01*
X213671Y21981D01*
X213813Y21364D01*
X213921Y20691D01*
X214052Y19004D01*
X214059Y18310D01*
X214018Y18000D01*
X214345Y15520D01*
X215302Y13209D01*
X216825Y11224D01*
X218809Y9702D01*
X221120Y8745D01*
X223600Y8418D01*
X226080Y8745D01*
X228391Y9702D01*
X230375Y11224D01*
X231898Y13209D01*
X232855Y15520D01*
X233182Y18000D01*
X232855Y20480D01*
X231898Y22791D01*
X230375Y24775D01*
X228391Y26298D01*
X226080Y27255D01*
X223600Y27582D01*
X223326Y27546D01*
X221691Y27596D01*
X220935Y27675D01*
X220236Y27787D01*
X219619Y27929D01*
X219085Y28094D01*
X218633Y28278D01*
X218262Y28474D01*
X217983Y28663D01*
X215569Y31078D01*
Y60215D01*
X216769Y60807D01*
X218305Y59628D01*
X220859Y58570D01*
X223600Y58209D01*
X226341Y58570D01*
X228895Y59628D01*
X231089Y61311D01*
X232231Y62801D01*
X233431Y62393D01*
Y30000D01*
X233703Y28634D01*
X234477Y27477D01*
X238337Y23617D01*
X238526Y23338D01*
X238722Y22967D01*
X238906Y22515D01*
X239071Y21981D01*
X239213Y21364D01*
X239321Y20691D01*
X239452Y19004D01*
X239459Y18310D01*
X239418Y18000D01*
X239745Y15520D01*
X240702Y13209D01*
X242225Y11224D01*
X244209Y9702D01*
X246520Y8745D01*
X249000Y8418D01*
X251480Y8745D01*
X253791Y9702D01*
X255776Y11224D01*
X257298Y13209D01*
X258256Y15520D01*
X258582Y18000D01*
X258256Y20480D01*
X257298Y22791D01*
X255776Y24775D01*
X253791Y26298D01*
X251480Y27255D01*
X249000Y27582D01*
X248726Y27546D01*
X247092Y27596D01*
X246335Y27675D01*
X245637Y27787D01*
X245019Y27929D01*
X244485Y28094D01*
X244033Y28278D01*
X243662Y28474D01*
X243383Y28663D01*
X240569Y31478D01*
Y60727D01*
X241769Y61114D01*
X243705Y59628D01*
X246259Y58570D01*
X249000Y58209D01*
X251741Y58570D01*
X254295Y59628D01*
X256489Y61311D01*
X258172Y63505D01*
X259230Y66059D01*
X259591Y68800D01*
X259230Y71541D01*
X258172Y74095D01*
X257410Y75088D01*
X250061Y67739D01*
X247939Y69861D01*
X255288Y77210D01*
X254295Y77972D01*
X251741Y79030D01*
X249000Y79391D01*
X246259Y79030D01*
X243705Y77972D01*
X241769Y76486D01*
X240569Y76873D01*
Y80000D01*
X240297Y81366D01*
X239523Y82523D01*
X206569Y115478D01*
Y119500D01*
X209000D01*
Y130000D01*
D02*
G37*
G36*
X96600Y27582D02*
X94120Y27255D01*
X91809Y26298D01*
X89825Y24775D01*
X88302Y22791D01*
X87345Y20480D01*
X87018Y18000D01*
X87345Y15520D01*
X88302Y13209D01*
X89825Y11224D01*
X91809Y9702D01*
X94120Y8745D01*
X96600Y8418D01*
X99080Y8745D01*
X101391Y9702D01*
X103376Y11224D01*
X104898Y13209D01*
X105856Y15520D01*
X106182Y18000D01*
X105856Y20480D01*
X104898Y22791D01*
X103376Y24775D01*
X101391Y26298D01*
X99080Y27255D01*
X96600Y27582D01*
D02*
G37*
%LPD*%
G36*
X242113Y27061D02*
X242610Y26724D01*
X243171Y26428D01*
X243797Y26172D01*
X244489Y25958D01*
X245246Y25785D01*
X246068Y25652D01*
X246955Y25560D01*
X248925Y25500D01*
X241500Y18075D01*
X241490Y19093D01*
X241348Y20932D01*
X241215Y21754D01*
X241042Y22511D01*
X240828Y23203D01*
X240572Y23829D01*
X240276Y24390D01*
X239939Y24887D01*
X239561Y25317D01*
X241682Y27439D01*
X242113Y27061D01*
D02*
G37*
G36*
X216714D02*
X217210Y26724D01*
X217771Y26428D01*
X218397Y26172D01*
X219089Y25958D01*
X219846Y25785D01*
X220668Y25652D01*
X221555Y25560D01*
X223525Y25500D01*
X216100Y18075D01*
X216090Y19093D01*
X215948Y20932D01*
X215815Y21754D01*
X215642Y22511D01*
X215427Y23203D01*
X215172Y23829D01*
X214876Y24390D01*
X214539Y24887D01*
X214161Y25317D01*
X216283Y27439D01*
X216714Y27061D01*
D02*
G37*
D12*
X203000Y138250D02*
D03*
Y124750D02*
D03*
X187000Y138250D02*
D03*
Y124750D02*
D03*
D13*
X144000Y139000D02*
D03*
Y123000D02*
D03*
X152000D02*
D03*
X160000D02*
D03*
X168000D02*
D03*
X152000Y139000D02*
D03*
X160000D02*
D03*
X168000D02*
D03*
X124000D02*
D03*
X116000D02*
D03*
X108000D02*
D03*
X124000Y123000D02*
D03*
X116000D02*
D03*
X108000D02*
D03*
X100000D02*
D03*
Y139000D02*
D03*
D21*
X238000Y218000D02*
D03*
X65000Y103000D02*
D03*
X136000Y108000D02*
D03*
X134000Y155000D02*
D03*
D22*
X161800Y7000D02*
X172800Y18000D01*
X142000Y7000D02*
X161800D01*
X203000Y114000D02*
X237000Y80000D01*
Y30000D02*
Y80000D01*
X187000Y108000D02*
X212000Y83000D01*
Y29600D02*
Y83000D01*
X160000Y107000D02*
X185000Y82000D01*
Y31200D02*
Y82000D01*
X152000Y95000D02*
X160000Y87000D01*
Y30600D02*
Y87000D01*
X116000Y95000D02*
X135000Y76000D01*
X116000Y95000D02*
Y123000D01*
X85000Y78000D02*
X100000Y93000D01*
X85000Y31800D02*
Y78000D01*
X147400Y18000D02*
X160000Y30600D01*
X139000Y172000D02*
X145000D01*
X126000D02*
X139000D01*
Y197850D02*
X139350Y198200D01*
X139000Y172000D02*
Y197850D01*
X145000Y172000D02*
X152000Y165000D01*
X108000Y154000D02*
X126000Y172000D01*
X152000Y139000D02*
Y165000D01*
X203000Y138250D02*
Y172450D01*
X196150Y179300D02*
X203000Y172450D01*
X196150Y179300D02*
Y202756D01*
X160000Y107000D02*
Y123000D01*
X135000Y14000D02*
Y76000D01*
X108000Y32000D02*
Y124000D01*
Y32000D02*
X122000Y18000D01*
X185150Y213756D02*
X196150Y202756D01*
X185150Y213756D02*
Y237800D01*
X162250D02*
X162700Y237350D01*
Y213444D02*
Y237350D01*
Y213444D02*
X173250Y202894D01*
Y178750D02*
Y202894D01*
Y178750D02*
X187000Y165000D01*
Y138250D02*
Y165000D01*
X203000Y114000D02*
Y124750D01*
X187000Y108000D02*
Y124750D01*
X152000Y95000D02*
Y123000D01*
X136000Y108000D02*
X144000Y116000D01*
Y123000D01*
X100000Y93000D02*
Y123000D01*
X103000Y131000D02*
X141000D01*
X144000Y134000D01*
Y139000D01*
X100000Y134000D02*
X103000Y131000D01*
X100000Y134000D02*
Y139000D01*
X162250Y160250D02*
Y198200D01*
X160000Y158000D02*
X162250Y160250D01*
X160000Y139000D02*
Y158000D01*
X162000Y197950D02*
X162250Y198200D01*
X124000Y155000D02*
X134000D01*
X116000Y147000D02*
X124000Y155000D01*
X116000Y139000D02*
Y147000D01*
X108000Y139000D02*
Y154000D01*
X116450Y176450D02*
Y198200D01*
X100000Y160000D02*
X116450Y176450D01*
X100000Y139000D02*
Y160000D01*
X237000Y30000D02*
X249000Y18000D01*
X212000Y29600D02*
X223600Y18000D01*
X135000Y14000D02*
X142000Y7000D01*
X71200Y18000D02*
X85000Y31800D01*
X185000Y31200D02*
X198200Y18000D01*
D23*
X71200D02*
D03*
Y68800D02*
D03*
D24*
X96600Y18000D02*
D03*
X122000D02*
D03*
X147400D02*
D03*
X172800D02*
D03*
X198200D02*
D03*
X249000D02*
D03*
X223600D02*
D03*
Y68800D02*
D03*
X249000D02*
D03*
X198200D02*
D03*
X172800D02*
D03*
X147400D02*
D03*
X122000D02*
D03*
X96600D02*
D03*
X116450Y198200D02*
D03*
X139350D02*
D03*
X162250D02*
D03*
X185150D02*
D03*
X208050D02*
D03*
X105000Y218000D02*
D03*
X127900D02*
D03*
X150800D02*
D03*
X173700D02*
D03*
X196600D02*
D03*
X116450Y237800D02*
D03*
X139350D02*
D03*
X162250D02*
D03*
X185150D02*
D03*
X208050D02*
D03*
D25*
X284850Y218000D02*
D03*
X34550D02*
D03*
D26*
X30000Y150000D02*
D03*
X290000D02*
D03*
M02*
