G04*
G04 #@! TF.GenerationSoftware,Altium Limited,Altium Designer,18.0.12 (696)*
G04*
G04 Layer_Color=32896*
%FSLAX44Y44*%
%MOMM*%
G71*
G01*
G75*
G36*
X245907Y82300D02*
X262000D01*
Y55300D01*
X84000D01*
Y55250D01*
X58250D01*
Y82250D01*
X83600D01*
Y82300D01*
X183067D01*
X196265Y95498D01*
Y95500D01*
X196267D01*
X196267Y95500D01*
Y95500D01*
X232707D01*
Y82300D01*
D01*
Y95500D01*
X245907Y82300D01*
D02*
G37*
G36*
X291529Y241000D02*
X289855D01*
Y245836D01*
X284881D01*
Y241000D01*
X283194D01*
Y251747D01*
X284881D01*
Y247248D01*
X289855D01*
Y251747D01*
X291529D01*
Y241000D01*
D02*
G37*
G36*
X309013D02*
X307325D01*
Y245236D01*
X305114D01*
X302839Y241000D01*
X301115D01*
Y241262D01*
X303576Y245599D01*
X303264Y245736D01*
X302976Y245899D01*
X302727Y246074D01*
X302527Y246249D01*
X302364Y246411D01*
X302239Y246549D01*
X302189Y246598D01*
X302164Y246636D01*
X302139Y246661D01*
Y246674D01*
X302039Y246824D01*
X301952Y246973D01*
X301814Y247273D01*
X301714Y247573D01*
X301652Y247848D01*
X301627Y247986D01*
X301602Y248098D01*
X301589Y248198D01*
Y248286D01*
X301577Y248361D01*
Y248411D01*
Y248448D01*
Y248461D01*
X301589Y248748D01*
X301614Y249023D01*
X301664Y249273D01*
X301727Y249510D01*
X301814Y249735D01*
X301889Y249935D01*
X301989Y250110D01*
X302077Y250273D01*
X302164Y250423D01*
X302264Y250548D01*
X302339Y250648D01*
X302414Y250735D01*
X302489Y250810D01*
X302539Y250860D01*
X302564Y250885D01*
X302577Y250897D01*
X302777Y251047D01*
X302989Y251172D01*
X303214Y251297D01*
X303439Y251385D01*
X303676Y251472D01*
X303914Y251535D01*
X304364Y251647D01*
X304576Y251672D01*
X304776Y251697D01*
X304951Y251722D01*
X305101Y251735D01*
X305226Y251747D01*
X309013D01*
Y241000D01*
D02*
G37*
G36*
X297203Y249173D02*
X297565Y249110D01*
X297890Y249035D01*
X298040Y248985D01*
X298178Y248935D01*
X298303Y248885D01*
X298403Y248836D01*
X298503Y248798D01*
X298578Y248761D01*
X298640Y248723D01*
X298690Y248698D01*
X298715Y248685D01*
X298728Y248673D01*
X299028Y248461D01*
X299277Y248223D01*
X299502Y247986D01*
X299690Y247748D01*
X299840Y247536D01*
X299890Y247448D01*
X299940Y247361D01*
X299977Y247298D01*
X300002Y247248D01*
X300027Y247223D01*
Y247211D01*
X300177Y246849D01*
X300290Y246486D01*
X300377Y246136D01*
X300427Y245799D01*
X300452Y245661D01*
X300465Y245524D01*
X300477Y245399D01*
Y245299D01*
X300490Y245211D01*
Y245149D01*
Y245111D01*
Y245099D01*
Y244999D01*
X300477Y244662D01*
X300440Y244337D01*
X300390Y244024D01*
X300327Y243749D01*
X300252Y243474D01*
X300165Y243224D01*
X300077Y242999D01*
X299977Y242799D01*
X299890Y242612D01*
X299802Y242450D01*
X299715Y242312D01*
X299640Y242200D01*
X299565Y242112D01*
X299515Y242037D01*
X299490Y242000D01*
X299477Y241987D01*
X299277Y241787D01*
X299065Y241612D01*
X298853Y241462D01*
X298628Y241325D01*
X298403Y241225D01*
X298178Y241125D01*
X297965Y241050D01*
X297753Y240987D01*
X297565Y240950D01*
X297378Y240912D01*
X297215Y240888D01*
X297078Y240863D01*
X296966D01*
X296878Y240850D01*
X296803D01*
X296403Y240875D01*
X296041Y240938D01*
X295716Y241012D01*
X295566Y241063D01*
X295428Y241112D01*
X295316Y241162D01*
X295203Y241212D01*
X295103Y241250D01*
X295028Y241287D01*
X294966Y241325D01*
X294916Y241350D01*
X294891Y241375D01*
X294879D01*
X294579Y241587D01*
X294316Y241825D01*
X294091Y242075D01*
X293904Y242300D01*
X293766Y242512D01*
X293704Y242600D01*
X293666Y242687D01*
X293629Y242750D01*
X293604Y242799D01*
X293579Y242824D01*
Y242837D01*
X293429Y243199D01*
X293316Y243562D01*
X293229Y243912D01*
X293179Y244237D01*
X293154Y244387D01*
X293141Y244524D01*
X293129Y244636D01*
Y244736D01*
X293116Y244824D01*
Y244886D01*
Y244924D01*
Y244937D01*
Y245036D01*
X293129Y245374D01*
X293154Y245699D01*
X293216Y246011D01*
X293279Y246299D01*
X293354Y246561D01*
X293442Y246811D01*
X293529Y247036D01*
X293629Y247236D01*
X293729Y247423D01*
X293816Y247586D01*
X293904Y247723D01*
X293979Y247836D01*
X294041Y247936D01*
X294091Y247998D01*
X294129Y248036D01*
X294141Y248048D01*
X294341Y248248D01*
X294554Y248423D01*
X294766Y248585D01*
X294991Y248710D01*
X295216Y248823D01*
X295441Y248923D01*
X295653Y248998D01*
X295866Y249060D01*
X296053Y249098D01*
X296241Y249135D01*
X296403Y249160D01*
X296541Y249185D01*
X296653D01*
X296741Y249198D01*
X296816D01*
X297203Y249173D01*
D02*
G37*
G36*
X277945Y251872D02*
X278233Y251847D01*
X278495Y251810D01*
X278758Y251747D01*
X278995Y251685D01*
X279208Y251622D01*
X279408Y251535D01*
X279595Y251460D01*
X279757Y251385D01*
X279907Y251310D01*
X280032Y251235D01*
X280132Y251172D01*
X280207Y251110D01*
X280270Y251072D01*
X280307Y251047D01*
X280320Y251035D01*
X280495Y250872D01*
X280657Y250697D01*
X280795Y250522D01*
X280907Y250335D01*
X281007Y250160D01*
X281095Y249985D01*
X281157Y249810D01*
X281220Y249648D01*
X281257Y249485D01*
X281295Y249348D01*
X281307Y249210D01*
X281332Y249098D01*
Y249010D01*
X281345Y248948D01*
Y248898D01*
Y248885D01*
X281332Y248673D01*
X281307Y248473D01*
X281270Y248273D01*
X281207Y248098D01*
X281082Y247761D01*
X281007Y247611D01*
X280920Y247486D01*
X280845Y247361D01*
X280770Y247261D01*
X280707Y247161D01*
X280632Y247086D01*
X280582Y247023D01*
X280545Y246986D01*
X280520Y246961D01*
X280507Y246949D01*
X280332Y246811D01*
X280145Y246674D01*
X279945Y246536D01*
X279732Y246424D01*
X279295Y246199D01*
X278858Y246011D01*
X278658Y245924D01*
X278458Y245861D01*
X278295Y245799D01*
X278145Y245749D01*
X278020Y245699D01*
X277920Y245674D01*
X277870Y245661D01*
X277845Y245649D01*
X277596Y245574D01*
X277371Y245499D01*
X277158Y245424D01*
X276971Y245361D01*
X276796Y245286D01*
X276646Y245224D01*
X276508Y245161D01*
X276383Y245111D01*
X276283Y245049D01*
X276196Y245011D01*
X276121Y244961D01*
X276071Y244924D01*
X276021Y244899D01*
X275996Y244874D01*
X275971Y244862D01*
X275809Y244699D01*
X275683Y244524D01*
X275596Y244349D01*
X275534Y244174D01*
X275496Y244012D01*
X275483Y243887D01*
X275471Y243837D01*
Y243799D01*
Y243787D01*
Y243774D01*
Y243649D01*
X275496Y243524D01*
X275558Y243312D01*
X275646Y243112D01*
X275734Y242962D01*
X275833Y242824D01*
X275921Y242737D01*
X275983Y242687D01*
X275996Y242662D01*
X276008D01*
X276221Y242525D01*
X276471Y242437D01*
X276733Y242362D01*
X276983Y242312D01*
X277208Y242287D01*
X277308Y242275D01*
X277396D01*
X277470Y242262D01*
X277570D01*
X277970Y242287D01*
X278320Y242337D01*
X278620Y242425D01*
X278758Y242462D01*
X278870Y242512D01*
X278983Y242562D01*
X279083Y242600D01*
X279158Y242650D01*
X279220Y242687D01*
X279270Y242712D01*
X279320Y242737D01*
X279333Y242762D01*
X279345D01*
X279457Y242862D01*
X279557Y242974D01*
X279645Y243099D01*
X279720Y243224D01*
X279832Y243474D01*
X279907Y243724D01*
X279957Y243962D01*
X279970Y244062D01*
X279982Y244137D01*
X279995Y244212D01*
Y244262D01*
Y244299D01*
Y244312D01*
X281682D01*
X281657Y243912D01*
X281595Y243562D01*
X281520Y243237D01*
X281469Y243099D01*
X281420Y242974D01*
X281369Y242850D01*
X281320Y242750D01*
X281282Y242662D01*
X281245Y242587D01*
X281207Y242525D01*
X281182Y242487D01*
X281157Y242462D01*
Y242450D01*
X280932Y242187D01*
X280695Y241950D01*
X280445Y241750D01*
X280207Y241587D01*
X279995Y241450D01*
X279895Y241400D01*
X279820Y241350D01*
X279745Y241325D01*
X279695Y241300D01*
X279670Y241275D01*
X279657D01*
X279283Y241137D01*
X278920Y241025D01*
X278570Y240950D01*
X278245Y240900D01*
X278108Y240888D01*
X277970Y240875D01*
X277858Y240863D01*
X277758D01*
X277683Y240850D01*
X277570D01*
X277258Y240863D01*
X276958Y240888D01*
X276683Y240925D01*
X276421Y240975D01*
X276171Y241038D01*
X275946Y241100D01*
X275746Y241175D01*
X275558Y241250D01*
X275384Y241325D01*
X275234Y241400D01*
X275109Y241462D01*
X275009Y241525D01*
X274934Y241575D01*
X274871Y241612D01*
X274834Y241637D01*
X274821Y241650D01*
X274634Y241812D01*
X274484Y241975D01*
X274334Y242150D01*
X274221Y242325D01*
X274121Y242500D01*
X274034Y242687D01*
X273971Y242862D01*
X273909Y243025D01*
X273871Y243187D01*
X273834Y243324D01*
X273822Y243462D01*
X273797Y243574D01*
Y243674D01*
X273784Y243737D01*
Y243787D01*
Y243799D01*
X273797Y244099D01*
X273846Y244374D01*
X273897Y244612D01*
X273971Y244824D01*
X274034Y244999D01*
X274096Y245124D01*
X274121Y245174D01*
X274146Y245211D01*
X274159Y245224D01*
Y245236D01*
X274309Y245461D01*
X274484Y245674D01*
X274684Y245849D01*
X274859Y246011D01*
X275034Y246136D01*
X275171Y246236D01*
X275221Y246261D01*
X275259Y246286D01*
X275284Y246311D01*
X275296D01*
X275446Y246399D01*
X275609Y246474D01*
X275933Y246636D01*
X276283Y246773D01*
X276608Y246898D01*
X276771Y246949D01*
X276908Y246998D01*
X277033Y247036D01*
X277146Y247073D01*
X277233Y247098D01*
X277296Y247123D01*
X277346Y247136D01*
X277358D01*
X277596Y247211D01*
X277808Y247273D01*
X278008Y247348D01*
X278183Y247423D01*
X278345Y247486D01*
X278495Y247548D01*
X278620Y247611D01*
X278745Y247673D01*
X278845Y247723D01*
X278933Y247773D01*
X278995Y247811D01*
X279058Y247848D01*
X279108Y247886D01*
X279133Y247911D01*
X279145Y247923D01*
X279158D01*
X279320Y248086D01*
X279445Y248248D01*
X279533Y248423D01*
X279595Y248573D01*
X279632Y248710D01*
X279645Y248811D01*
X279657Y248885D01*
Y248910D01*
X279632Y249173D01*
X279570Y249398D01*
X279495Y249598D01*
X279395Y249760D01*
X279295Y249885D01*
X279220Y249985D01*
X279158Y250035D01*
X279133Y250060D01*
X278920Y250198D01*
X278683Y250298D01*
X278433Y250373D01*
X278195Y250423D01*
X277983Y250448D01*
X277883Y250460D01*
X277808Y250473D01*
X277645D01*
X277283Y250448D01*
X276958Y250398D01*
X276683Y250310D01*
X276458Y250223D01*
X276283Y250123D01*
X276208Y250085D01*
X276146Y250035D01*
X276108Y250010D01*
X276071Y249985D01*
X276046Y249960D01*
X275946Y249860D01*
X275858Y249748D01*
X275721Y249510D01*
X275621Y249260D01*
X275558Y249010D01*
X275508Y248773D01*
X275496Y248685D01*
Y248598D01*
X275483Y248523D01*
Y248473D01*
Y248436D01*
Y248423D01*
X273797D01*
X273822Y248798D01*
X273871Y249148D01*
X273946Y249460D01*
X274034Y249723D01*
X274084Y249835D01*
X274134Y249935D01*
X274171Y250023D01*
X274209Y250098D01*
X274234Y250160D01*
X274259Y250198D01*
X274284Y250223D01*
Y250235D01*
X274484Y250510D01*
X274709Y250748D01*
X274934Y250960D01*
X275159Y251135D01*
X275346Y251272D01*
X275434Y251322D01*
X275508Y251372D01*
X275571Y251397D01*
X275621Y251422D01*
X275646Y251447D01*
X275658D01*
X275996Y251597D01*
X276333Y251697D01*
X276671Y251772D01*
X276983Y251835D01*
X277121Y251847D01*
X277246Y251860D01*
X277358Y251872D01*
X277458D01*
X277533Y251885D01*
X277645D01*
X277945Y251872D01*
D02*
G37*
G36*
X100135Y103227D02*
X100264Y103192D01*
X100323Y103180D01*
X100359Y103157D01*
X100382Y103145D01*
X100394D01*
X100535Y103062D01*
X100641Y102992D01*
X100689Y102956D01*
X100724Y102921D01*
X100736Y102909D01*
X100747Y102897D01*
X100842Y102780D01*
X100913Y102674D01*
X100948Y102615D01*
X100971Y102579D01*
X100983Y102556D01*
Y102544D01*
X101030Y102391D01*
X101054Y102261D01*
X101066Y102202D01*
Y102155D01*
Y102131D01*
Y102120D01*
X101054Y101955D01*
X101019Y101813D01*
X101007Y101754D01*
X100995Y101719D01*
X100983Y101695D01*
Y101684D01*
X100901Y101554D01*
X100830Y101448D01*
X100771Y101365D01*
X100747Y101354D01*
Y101342D01*
X100630Y101247D01*
X100512Y101177D01*
X100465Y101141D01*
X100429Y101118D01*
X100406Y101106D01*
X100394D01*
X100241Y101059D01*
X100111Y101035D01*
X100052Y101024D01*
X99970D01*
X99805Y101035D01*
X99663Y101071D01*
X99604Y101082D01*
X99569Y101094D01*
X99545Y101106D01*
X99534D01*
X99392Y101188D01*
X99274Y101259D01*
X99227Y101294D01*
X99192Y101318D01*
X99180Y101342D01*
X99168D01*
X99062Y101460D01*
X98991Y101566D01*
X98956Y101613D01*
X98933Y101648D01*
X98921Y101672D01*
Y101684D01*
X98862Y101837D01*
X98838Y101978D01*
X98826Y102037D01*
Y102084D01*
Y102108D01*
Y102120D01*
X98838Y102284D01*
X98874Y102414D01*
X98885Y102473D01*
X98909Y102508D01*
X98921Y102532D01*
Y102544D01*
X99003Y102685D01*
X99074Y102803D01*
X99145Y102874D01*
X99156Y102886D01*
X99168Y102897D01*
X99286Y103004D01*
X99404Y103074D01*
X99463Y103110D01*
X99498Y103133D01*
X99522Y103145D01*
X99534D01*
X99687Y103204D01*
X99828Y103227D01*
X99887Y103239D01*
X99970D01*
X100135Y103227D01*
D02*
G37*
G36*
X158744Y92750D02*
X157000D01*
Y97995D01*
X156870Y98124D01*
X156729Y98230D01*
X156611Y98325D01*
X156493Y98407D01*
X156399Y98466D01*
X156328Y98513D01*
X156270Y98537D01*
X156258Y98548D01*
X156104Y98619D01*
X155951Y98666D01*
X155810Y98714D01*
X155680Y98737D01*
X155574Y98749D01*
X155480Y98761D01*
X155409D01*
X155197Y98749D01*
X155008Y98702D01*
X154843Y98643D01*
X154714Y98584D01*
X154620Y98513D01*
X154549Y98454D01*
X154502Y98407D01*
X154490Y98395D01*
X154384Y98242D01*
X154301Y98077D01*
X154254Y97912D01*
X154207Y97735D01*
X154183Y97594D01*
X154172Y97464D01*
Y97417D01*
Y97394D01*
Y97370D01*
Y97358D01*
Y92750D01*
X152427D01*
Y97358D01*
X152439Y97582D01*
X152451Y97794D01*
X152474Y97983D01*
X152510Y98148D01*
X152545Y98289D01*
X152569Y98395D01*
X152581Y98454D01*
X152592Y98478D01*
X152651Y98666D01*
X152734Y98831D01*
X152804Y98973D01*
X152887Y99102D01*
X152958Y99197D01*
X153017Y99279D01*
X153052Y99326D01*
X153064Y99338D01*
X153182Y99468D01*
X153311Y99586D01*
X153441Y99680D01*
X153559Y99762D01*
X153665Y99821D01*
X153747Y99868D01*
X153806Y99892D01*
X153830Y99904D01*
X154007Y99975D01*
X154183Y100022D01*
X154360Y100069D01*
X154525Y100092D01*
X154667Y100104D01*
X154784Y100116D01*
X154879D01*
X155126Y100104D01*
X155350Y100081D01*
X155550Y100034D01*
X155727Y99998D01*
X155869Y99951D01*
X155975Y99904D01*
X156046Y99880D01*
X156057Y99868D01*
X156069D01*
X156258Y99774D01*
X156423Y99656D01*
X156588Y99550D01*
X156729Y99444D01*
X156835Y99350D01*
X156930Y99279D01*
X156977Y99232D01*
X157000Y99208D01*
Y103263D01*
X158744D01*
Y92750D01*
D02*
G37*
G36*
X131378D02*
X130235D01*
X130117Y92762D01*
X130035Y92785D01*
X129976Y92809D01*
X129964Y92821D01*
X129893Y92891D01*
X129846Y92986D01*
X129823Y93056D01*
X129811Y93068D01*
Y93080D01*
X129728Y93575D01*
X129599Y93422D01*
X129481Y93304D01*
X129434Y93257D01*
X129398Y93221D01*
X129375Y93198D01*
X129363Y93186D01*
X129210Y93068D01*
X129080Y92974D01*
X129021Y92939D01*
X128974Y92915D01*
X128950Y92891D01*
X128939D01*
X128762Y92809D01*
X128609Y92762D01*
X128538Y92738D01*
X128491Y92726D01*
X128455Y92715D01*
X128444D01*
X128231Y92679D01*
X128125Y92656D01*
X128031D01*
X127949Y92644D01*
X127831D01*
X127571Y92656D01*
X127324Y92691D01*
X127112Y92738D01*
X126923Y92785D01*
X126758Y92832D01*
X126641Y92880D01*
X126605Y92903D01*
X126570Y92915D01*
X126558Y92927D01*
X126546D01*
X126334Y93045D01*
X126145Y93174D01*
X125981Y93304D01*
X125839Y93434D01*
X125721Y93540D01*
X125639Y93634D01*
X125591Y93693D01*
X125568Y93716D01*
X125427Y93917D01*
X125297Y94117D01*
X125191Y94318D01*
X125097Y94506D01*
X125026Y94671D01*
X124967Y94801D01*
X124955Y94848D01*
X124943Y94883D01*
X124932Y94907D01*
Y94919D01*
X124861Y95178D01*
X124802Y95449D01*
X124767Y95696D01*
X124731Y95932D01*
X124719Y96132D01*
Y96215D01*
X124708Y96286D01*
Y96345D01*
Y96392D01*
Y96415D01*
Y96427D01*
X124719Y96757D01*
X124743Y97052D01*
X124767Y97323D01*
X124802Y97558D01*
X124825Y97653D01*
X124849Y97747D01*
X124861Y97818D01*
X124873Y97888D01*
X124884Y97936D01*
X124896Y97971D01*
X124908Y97995D01*
Y98006D01*
X124991Y98254D01*
X125073Y98478D01*
X125167Y98666D01*
X125250Y98831D01*
X125332Y98973D01*
X125403Y99067D01*
X125450Y99126D01*
X125462Y99150D01*
X125603Y99315D01*
X125745Y99456D01*
X125886Y99586D01*
X126016Y99692D01*
X126134Y99762D01*
X126228Y99821D01*
X126287Y99857D01*
X126311Y99868D01*
X126499Y99951D01*
X126688Y100010D01*
X126864Y100057D01*
X127029Y100081D01*
X127183Y100104D01*
X127289Y100116D01*
X127395D01*
X127654Y100104D01*
X127901Y100069D01*
X128114Y100022D01*
X128302Y99975D01*
X128455Y99927D01*
X128573Y99880D01*
X128609Y99857D01*
X128644Y99845D01*
X128656Y99833D01*
X128668D01*
X128868Y99727D01*
X129045Y99609D01*
X129210Y99480D01*
X129351Y99362D01*
X129469Y99267D01*
X129563Y99173D01*
X129610Y99126D01*
X129634Y99102D01*
Y103263D01*
X131378D01*
Y92750D01*
D02*
G37*
G36*
X139970Y100104D02*
X140064Y100092D01*
X140159Y100081D01*
X140229Y100057D01*
X140288Y100045D01*
X140323Y100034D01*
X140335D01*
X140524Y99975D01*
X140618Y99939D01*
X140689Y99904D01*
X140748Y99880D01*
X140795Y99857D01*
X140830Y99845D01*
X140842Y99833D01*
X141007Y99727D01*
X141149Y99633D01*
X141208Y99586D01*
X141255Y99562D01*
X141278Y99538D01*
X141290Y99527D01*
X141431Y99397D01*
X141561Y99267D01*
X141620Y99220D01*
X141655Y99173D01*
X141679Y99150D01*
X141691Y99138D01*
X141797Y99680D01*
X141844Y99786D01*
X141915Y99868D01*
X141985Y99916D01*
X142056Y99963D01*
X142127Y99986D01*
X142186Y99998D01*
X143305D01*
Y92750D01*
X141561D01*
Y98054D01*
X141455Y98171D01*
X141349Y98278D01*
X141243Y98360D01*
X141149Y98442D01*
X141078Y98490D01*
X141019Y98537D01*
X140972Y98560D01*
X140960Y98572D01*
X140830Y98631D01*
X140712Y98678D01*
X140595Y98714D01*
X140477Y98737D01*
X140394Y98749D01*
X140312Y98761D01*
X140253D01*
X140052Y98749D01*
X139876Y98714D01*
X139722Y98655D01*
X139605Y98596D01*
X139499Y98525D01*
X139440Y98478D01*
X139392Y98431D01*
X139381Y98419D01*
X139286Y98278D01*
X139216Y98112D01*
X139157Y97936D01*
X139121Y97771D01*
X139098Y97606D01*
X139086Y97476D01*
Y97429D01*
Y97394D01*
Y97370D01*
Y97358D01*
Y92750D01*
X137330D01*
Y97358D01*
Y97488D01*
X137318Y97594D01*
X137295Y97700D01*
X137283Y97782D01*
X137259Y97865D01*
X137247Y97912D01*
X137236Y97948D01*
Y97959D01*
X137153Y98148D01*
X137106Y98218D01*
X137059Y98278D01*
X137024Y98325D01*
X136988Y98360D01*
X136976Y98384D01*
X136965Y98395D01*
X136823Y98513D01*
X136694Y98596D01*
X136646Y98631D01*
X136599Y98655D01*
X136576Y98666D01*
X136564D01*
X136387Y98725D01*
X136222Y98749D01*
X136151Y98761D01*
X136057D01*
X135845Y98749D01*
X135668Y98702D01*
X135515Y98655D01*
X135385Y98584D01*
X135291Y98525D01*
X135220Y98466D01*
X135173Y98419D01*
X135162Y98407D01*
X135055Y98266D01*
X134985Y98089D01*
X134926Y97924D01*
X134890Y97747D01*
X134867Y97594D01*
X134855Y97476D01*
Y97429D01*
Y97394D01*
Y97370D01*
Y97358D01*
Y92750D01*
X133111D01*
Y97358D01*
X133123Y97594D01*
X133134Y97818D01*
X133170Y98018D01*
X133193Y98195D01*
X133229Y98325D01*
X133264Y98431D01*
X133276Y98501D01*
X133287Y98525D01*
X133358Y98714D01*
X133429Y98878D01*
X133511Y99020D01*
X133594Y99150D01*
X133665Y99244D01*
X133724Y99326D01*
X133759Y99374D01*
X133771Y99385D01*
X133900Y99515D01*
X134030Y99621D01*
X134160Y99715D01*
X134289Y99786D01*
X134395Y99845D01*
X134478Y99892D01*
X134537Y99916D01*
X134560Y99927D01*
X134737Y99986D01*
X134914Y100034D01*
X135103Y100069D01*
X135267Y100092D01*
X135409Y100104D01*
X135515Y100116D01*
X135621D01*
X135880Y100104D01*
X135998Y100092D01*
X136104Y100081D01*
X136187Y100057D01*
X136257Y100045D01*
X136305Y100034D01*
X136316D01*
X136564Y99963D01*
X136670Y99916D01*
X136764Y99880D01*
X136847Y99845D01*
X136906Y99810D01*
X136953Y99798D01*
X136965Y99786D01*
X137177Y99656D01*
X137271Y99586D01*
X137354Y99527D01*
X137424Y99468D01*
X137471Y99421D01*
X137507Y99385D01*
X137519Y99374D01*
X137695Y99161D01*
X137766Y99067D01*
X137825Y98961D01*
X137872Y98878D01*
X137907Y98808D01*
X137931Y98761D01*
X137943Y98749D01*
X138037Y98973D01*
X138143Y99173D01*
X138249Y99338D01*
X138367Y99480D01*
X138461Y99586D01*
X138544Y99668D01*
X138591Y99727D01*
X138615Y99739D01*
X138791Y99868D01*
X138968Y99963D01*
X139157Y100022D01*
X139334Y100069D01*
X139499Y100092D01*
X139616Y100116D01*
X139734D01*
X139970Y100104D01*
D02*
G37*
G36*
X64177Y100104D02*
X64271Y100092D01*
X64365Y100081D01*
X64436Y100057D01*
X64495Y100045D01*
X64530Y100034D01*
X64542D01*
X64731Y99975D01*
X64825Y99939D01*
X64896Y99904D01*
X64955Y99880D01*
X65002Y99857D01*
X65037Y99845D01*
X65049Y99833D01*
X65214Y99727D01*
X65355Y99633D01*
X65414Y99586D01*
X65461Y99562D01*
X65485Y99538D01*
X65497Y99527D01*
X65638Y99397D01*
X65768Y99267D01*
X65827Y99220D01*
X65862Y99173D01*
X65886Y99150D01*
X65897Y99138D01*
X66004Y99680D01*
X66051Y99786D01*
X66121Y99868D01*
X66192Y99916D01*
X66263Y99963D01*
X66333Y99986D01*
X66392Y99998D01*
X67512D01*
Y92750D01*
X65768D01*
Y98054D01*
X65662Y98171D01*
X65556Y98277D01*
X65450Y98360D01*
X65355Y98442D01*
X65285Y98490D01*
X65226Y98537D01*
X65179Y98560D01*
X65167Y98572D01*
X65037Y98631D01*
X64919Y98678D01*
X64801Y98714D01*
X64684Y98737D01*
X64601Y98749D01*
X64519Y98761D01*
X64460D01*
X64259Y98749D01*
X64082Y98714D01*
X63929Y98655D01*
X63811Y98596D01*
X63705Y98525D01*
X63646Y98478D01*
X63599Y98431D01*
X63587Y98419D01*
X63493Y98277D01*
X63422Y98112D01*
X63364Y97936D01*
X63328Y97771D01*
X63305Y97606D01*
X63293Y97476D01*
Y97429D01*
Y97394D01*
Y97370D01*
Y97358D01*
Y92750D01*
X61537D01*
Y97358D01*
Y97488D01*
X61525Y97594D01*
X61501Y97700D01*
X61490Y97782D01*
X61466Y97865D01*
X61454Y97912D01*
X61442Y97947D01*
Y97959D01*
X61360Y98148D01*
X61313Y98218D01*
X61266Y98277D01*
X61230Y98325D01*
X61195Y98360D01*
X61183Y98384D01*
X61171Y98395D01*
X61030Y98513D01*
X60900Y98596D01*
X60853Y98631D01*
X60806Y98655D01*
X60782Y98666D01*
X60771D01*
X60594Y98725D01*
X60429Y98749D01*
X60358Y98761D01*
X60264D01*
X60052Y98749D01*
X59875Y98702D01*
X59722Y98655D01*
X59592Y98584D01*
X59498Y98525D01*
X59427Y98466D01*
X59380Y98419D01*
X59368Y98407D01*
X59262Y98266D01*
X59191Y98089D01*
X59132Y97924D01*
X59097Y97747D01*
X59074Y97594D01*
X59062Y97476D01*
Y97429D01*
Y97394D01*
Y97370D01*
Y97358D01*
Y92750D01*
X57318D01*
Y97358D01*
X57329Y97594D01*
X57341Y97818D01*
X57376Y98018D01*
X57400Y98195D01*
X57435Y98325D01*
X57471Y98431D01*
X57483Y98501D01*
X57494Y98525D01*
X57565Y98714D01*
X57636Y98878D01*
X57718Y99020D01*
X57801Y99150D01*
X57871Y99244D01*
X57930Y99326D01*
X57966Y99374D01*
X57978Y99385D01*
X58107Y99515D01*
X58237Y99621D01*
X58366Y99715D01*
X58496Y99786D01*
X58602Y99845D01*
X58685Y99892D01*
X58744Y99916D01*
X58767Y99927D01*
X58944Y99986D01*
X59121Y100034D01*
X59309Y100069D01*
X59474Y100092D01*
X59616Y100104D01*
X59722Y100116D01*
X59828D01*
X60087Y100104D01*
X60205Y100092D01*
X60311Y100081D01*
X60394Y100057D01*
X60464Y100045D01*
X60511Y100034D01*
X60523D01*
X60771Y99963D01*
X60877Y99916D01*
X60971Y99880D01*
X61054Y99845D01*
X61112Y99810D01*
X61160Y99798D01*
X61171Y99786D01*
X61384Y99656D01*
X61478Y99586D01*
X61560Y99527D01*
X61631Y99468D01*
X61678Y99421D01*
X61714Y99385D01*
X61725Y99374D01*
X61902Y99161D01*
X61973Y99067D01*
X62032Y98961D01*
X62079Y98878D01*
X62114Y98808D01*
X62138Y98761D01*
X62150Y98749D01*
X62244Y98973D01*
X62350Y99173D01*
X62456Y99338D01*
X62574Y99480D01*
X62668Y99586D01*
X62751Y99668D01*
X62798Y99727D01*
X62821Y99739D01*
X62998Y99868D01*
X63175Y99963D01*
X63364Y100022D01*
X63540Y100069D01*
X63705Y100092D01*
X63823Y100116D01*
X63941D01*
X64177Y100104D01*
D02*
G37*
G36*
X148055Y100128D02*
X148361Y100092D01*
X148656Y100034D01*
X148939Y99963D01*
X149210Y99868D01*
X149457Y99774D01*
X149681Y99668D01*
X149894Y99562D01*
X150082Y99456D01*
X150259Y99350D01*
X150400Y99256D01*
X150518Y99161D01*
X150612Y99091D01*
X150683Y99032D01*
X150730Y98996D01*
X150742Y98985D01*
X150424Y98431D01*
X150353Y98336D01*
X150294Y98266D01*
X150247Y98207D01*
X150223Y98195D01*
X150117Y98148D01*
X150023Y98124D01*
X149941Y98112D01*
X149917D01*
X149764Y98124D01*
X149646Y98160D01*
X149599Y98183D01*
X149564Y98195D01*
X149540Y98207D01*
X149528D01*
X149387Y98278D01*
X149269Y98360D01*
X149210Y98384D01*
X149174Y98407D01*
X149151Y98431D01*
X149139D01*
X148974Y98525D01*
X148809Y98596D01*
X148750Y98619D01*
X148691Y98643D01*
X148656Y98655D01*
X148644D01*
X148526Y98690D01*
X148408Y98714D01*
X148291Y98737D01*
X148184Y98749D01*
X148090Y98761D01*
X147937D01*
X147737Y98749D01*
X147560Y98702D01*
X147407Y98655D01*
X147277Y98584D01*
X147183Y98525D01*
X147112Y98466D01*
X147065Y98419D01*
X147053Y98407D01*
X146947Y98254D01*
X146865Y98089D01*
X146817Y97912D01*
X146770Y97735D01*
X146747Y97570D01*
X146735Y97441D01*
Y97394D01*
Y97358D01*
Y97335D01*
Y97323D01*
Y96910D01*
X147183Y96887D01*
X147383Y96875D01*
X147584Y96851D01*
X147760Y96840D01*
X147937Y96816D01*
X148090Y96792D01*
X148232Y96769D01*
X148361Y96757D01*
X148479Y96734D01*
X148574Y96710D01*
X148656Y96698D01*
X148727Y96686D01*
X148774Y96675D01*
X148797Y96663D01*
X148809D01*
X149104Y96580D01*
X149363Y96486D01*
X149587Y96404D01*
X149787Y96309D01*
X149941Y96238D01*
X150047Y96180D01*
X150117Y96132D01*
X150129Y96121D01*
X150141D01*
X150318Y96003D01*
X150459Y95873D01*
X150577Y95755D01*
X150683Y95638D01*
X150754Y95543D01*
X150801Y95472D01*
X150836Y95425D01*
X150848Y95402D01*
X150919Y95249D01*
X150966Y95107D01*
X151013Y94978D01*
X151037Y94848D01*
X151048Y94754D01*
X151060Y94671D01*
Y94624D01*
Y94600D01*
X151048Y94424D01*
X151037Y94259D01*
X151013Y94105D01*
X150978Y93988D01*
X150954Y93881D01*
X150931Y93811D01*
X150919Y93752D01*
X150907Y93740D01*
X150848Y93610D01*
X150777Y93492D01*
X150707Y93386D01*
X150636Y93292D01*
X150577Y93221D01*
X150530Y93174D01*
X150494Y93139D01*
X150483Y93127D01*
X150259Y92962D01*
X150141Y92903D01*
X150035Y92844D01*
X149952Y92809D01*
X149870Y92774D01*
X149823Y92762D01*
X149811Y92750D01*
X149516Y92679D01*
X149375Y92656D01*
X149245Y92644D01*
X149127D01*
X149045Y92632D01*
X148821D01*
X148691Y92644D01*
X148574Y92656D01*
X148467Y92668D01*
X148385D01*
X148326Y92679D01*
X148279Y92691D01*
X148267D01*
X148043Y92750D01*
X147937Y92774D01*
X147843Y92809D01*
X147772Y92832D01*
X147713Y92856D01*
X147678Y92880D01*
X147666D01*
X147466Y92986D01*
X147371Y93033D01*
X147289Y93092D01*
X147218Y93127D01*
X147171Y93162D01*
X147136Y93186D01*
X147124Y93198D01*
X146924Y93351D01*
X146829Y93422D01*
X146747Y93492D01*
X146676Y93551D01*
X146629Y93599D01*
X146594Y93622D01*
X146582Y93634D01*
X146417Y93115D01*
X146381Y93045D01*
X146358Y92974D01*
X146322Y92927D01*
X146287Y92880D01*
X146228Y92832D01*
X146205Y92821D01*
X146087Y92785D01*
X145957Y92762D01*
X145898Y92750D01*
X145026D01*
Y97323D01*
X145038Y97547D01*
X145050Y97759D01*
X145085Y97959D01*
X145120Y98124D01*
X145156Y98266D01*
X145179Y98360D01*
X145203Y98431D01*
X145215Y98454D01*
X145285Y98643D01*
X145368Y98808D01*
X145462Y98961D01*
X145545Y99091D01*
X145627Y99197D01*
X145686Y99279D01*
X145733Y99326D01*
X145745Y99338D01*
X145875Y99468D01*
X146016Y99586D01*
X146157Y99692D01*
X146299Y99774D01*
X146417Y99845D01*
X146511Y99892D01*
X146570Y99916D01*
X146582Y99927D01*
X146594D01*
X146782Y99998D01*
X146982Y100045D01*
X147171Y100092D01*
X147348Y100116D01*
X147501Y100128D01*
X147619Y100140D01*
X147725D01*
X148055Y100128D01*
D02*
G37*
G36*
X114914D02*
X115220Y100092D01*
X115515Y100034D01*
X115798Y99963D01*
X116069Y99868D01*
X116316Y99774D01*
X116540Y99668D01*
X116752Y99562D01*
X116941Y99456D01*
X117118Y99350D01*
X117259Y99256D01*
X117377Y99161D01*
X117471Y99091D01*
X117542Y99032D01*
X117589Y98996D01*
X117601Y98985D01*
X117283Y98431D01*
X117212Y98336D01*
X117153Y98266D01*
X117106Y98207D01*
X117082Y98195D01*
X116976Y98148D01*
X116882Y98124D01*
X116799Y98112D01*
X116776D01*
X116623Y98124D01*
X116505Y98160D01*
X116458Y98183D01*
X116422Y98195D01*
X116399Y98207D01*
X116387D01*
X116246Y98278D01*
X116128Y98360D01*
X116069Y98384D01*
X116033Y98407D01*
X116010Y98431D01*
X115998D01*
X115833Y98525D01*
X115668Y98596D01*
X115609Y98619D01*
X115550Y98643D01*
X115515Y98655D01*
X115503D01*
X115385Y98690D01*
X115267Y98714D01*
X115149Y98737D01*
X115043Y98749D01*
X114949Y98761D01*
X114796D01*
X114596Y98749D01*
X114419Y98702D01*
X114266Y98655D01*
X114136Y98584D01*
X114042Y98525D01*
X113971Y98466D01*
X113924Y98419D01*
X113912Y98407D01*
X113806Y98254D01*
X113723Y98089D01*
X113676Y97912D01*
X113629Y97735D01*
X113606Y97570D01*
X113594Y97441D01*
Y97394D01*
Y97358D01*
Y97335D01*
Y97323D01*
Y96910D01*
X114042Y96887D01*
X114242Y96875D01*
X114442Y96851D01*
X114619Y96840D01*
X114796Y96816D01*
X114949Y96792D01*
X115091Y96769D01*
X115220Y96757D01*
X115338Y96734D01*
X115432Y96710D01*
X115515Y96698D01*
X115586Y96686D01*
X115633Y96675D01*
X115656Y96663D01*
X115668D01*
X115963Y96580D01*
X116222Y96486D01*
X116446Y96404D01*
X116646Y96309D01*
X116799Y96238D01*
X116906Y96180D01*
X116976Y96132D01*
X116988Y96121D01*
X117000D01*
X117177Y96003D01*
X117318Y95873D01*
X117436Y95755D01*
X117542Y95638D01*
X117613Y95543D01*
X117660Y95472D01*
X117695Y95425D01*
X117707Y95402D01*
X117778Y95249D01*
X117825Y95107D01*
X117872Y94978D01*
X117895Y94848D01*
X117907Y94754D01*
X117919Y94671D01*
Y94624D01*
Y94600D01*
X117907Y94424D01*
X117895Y94259D01*
X117872Y94105D01*
X117837Y93988D01*
X117813Y93881D01*
X117789Y93811D01*
X117778Y93752D01*
X117766Y93740D01*
X117707Y93610D01*
X117636Y93492D01*
X117566Y93386D01*
X117495Y93292D01*
X117436Y93221D01*
X117389Y93174D01*
X117353Y93139D01*
X117342Y93127D01*
X117118Y92962D01*
X117000Y92903D01*
X116894Y92844D01*
X116811Y92809D01*
X116729Y92774D01*
X116682Y92762D01*
X116670Y92750D01*
X116375Y92679D01*
X116234Y92656D01*
X116104Y92644D01*
X115986D01*
X115904Y92632D01*
X115680D01*
X115550Y92644D01*
X115432Y92656D01*
X115326Y92668D01*
X115244D01*
X115185Y92679D01*
X115138Y92691D01*
X115126D01*
X114902Y92750D01*
X114796Y92774D01*
X114702Y92809D01*
X114631Y92832D01*
X114572Y92856D01*
X114537Y92880D01*
X114525D01*
X114325Y92986D01*
X114230Y93033D01*
X114148Y93092D01*
X114077Y93127D01*
X114030Y93162D01*
X113995Y93186D01*
X113983Y93198D01*
X113782Y93351D01*
X113688Y93422D01*
X113606Y93492D01*
X113535Y93551D01*
X113488Y93599D01*
X113452Y93622D01*
X113441Y93634D01*
X113276Y93115D01*
X113240Y93045D01*
X113217Y92974D01*
X113181Y92927D01*
X113146Y92880D01*
X113087Y92832D01*
X113063Y92821D01*
X112946Y92785D01*
X112816Y92762D01*
X112757Y92750D01*
X111885D01*
Y97323D01*
X111897Y97547D01*
X111909Y97759D01*
X111944Y97959D01*
X111979Y98124D01*
X112015Y98266D01*
X112038Y98360D01*
X112062Y98431D01*
X112073Y98454D01*
X112144Y98643D01*
X112227Y98808D01*
X112321Y98961D01*
X112403Y99091D01*
X112486Y99197D01*
X112545Y99279D01*
X112592Y99326D01*
X112604Y99338D01*
X112733Y99468D01*
X112875Y99586D01*
X113016Y99692D01*
X113158Y99774D01*
X113276Y99845D01*
X113370Y99892D01*
X113429Y99916D01*
X113441Y99927D01*
X113452D01*
X113641Y99998D01*
X113841Y100045D01*
X114030Y100092D01*
X114207Y100116D01*
X114360Y100128D01*
X114478Y100140D01*
X114584D01*
X114914Y100128D01*
D02*
G37*
G36*
X95962Y102214D02*
X96045Y102190D01*
X96092Y102155D01*
X96116Y102143D01*
X96175Y102072D01*
X96222Y102002D01*
X96245Y101943D01*
Y101931D01*
Y101919D01*
X96611Y99951D01*
X97778Y99751D01*
Y99055D01*
X97766Y98937D01*
X97730Y98843D01*
X97695Y98796D01*
X97683Y98772D01*
X97601Y98725D01*
X97518Y98702D01*
X97459Y98690D01*
X96693D01*
Y94636D01*
X96681Y94459D01*
X96670Y94306D01*
X96611Y94011D01*
X96528Y93752D01*
X96434Y93551D01*
X96351Y93375D01*
X96269Y93257D01*
X96234Y93221D01*
X96210Y93186D01*
X96187Y93174D01*
Y93162D01*
X96092Y93068D01*
X95974Y92986D01*
X95750Y92856D01*
X95503Y92762D01*
X95267Y92703D01*
X95067Y92656D01*
X94973Y92644D01*
X94890D01*
X94831Y92632D01*
X94737D01*
X94537Y92644D01*
X94348Y92656D01*
X94183Y92679D01*
X94030Y92715D01*
X93900Y92738D01*
X93794Y92762D01*
X93735Y92774D01*
X93712Y92785D01*
X93535Y92856D01*
X93370Y92927D01*
X93216Y93009D01*
X93087Y93092D01*
X92981Y93162D01*
X92910Y93221D01*
X92851Y93257D01*
X92839Y93268D01*
X93358Y94117D01*
X93405Y94164D01*
X93440Y94200D01*
X93464Y94211D01*
X93476Y94223D01*
X93511Y94247D01*
X93546Y94270D01*
X93594D01*
X93641Y94258D01*
X93688Y94247D01*
X93712Y94235D01*
X93723Y94223D01*
X93818Y94164D01*
X93853Y94152D01*
X93865Y94141D01*
X93935Y94117D01*
X93994Y94094D01*
X94042Y94082D01*
X94065Y94070D01*
X94148Y94046D01*
X94242Y94035D01*
X94336D01*
X94430Y94046D01*
X94525Y94070D01*
X94607Y94094D01*
X94666Y94129D01*
X94713Y94164D01*
X94749Y94200D01*
X94772Y94211D01*
X94784Y94223D01*
X94843Y94306D01*
X94878Y94388D01*
X94925Y94565D01*
X94937Y94636D01*
X94949Y94695D01*
Y94742D01*
Y94754D01*
Y98690D01*
X93040D01*
Y99939D01*
X94949D01*
Y102226D01*
X95857D01*
X95962Y102214D01*
D02*
G37*
G36*
X79557Y100104D02*
X79852Y100069D01*
X80111Y100022D01*
X80335Y99975D01*
X80512Y99927D01*
X80594Y99904D01*
X80653Y99880D01*
X80700Y99857D01*
X80736Y99845D01*
X80759Y99833D01*
X80771D01*
X81007Y99715D01*
X81219Y99586D01*
X81407Y99456D01*
X81572Y99338D01*
X81702Y99220D01*
X81796Y99126D01*
X81855Y99067D01*
X81879Y99055D01*
Y99044D01*
X82032Y98855D01*
X82162Y98655D01*
X82280Y98454D01*
X82374Y98266D01*
X82456Y98112D01*
X82503Y97983D01*
X82527Y97936D01*
X82539Y97900D01*
X82550Y97877D01*
Y97865D01*
X82621Y97606D01*
X82680Y97346D01*
X82716Y97099D01*
X82751Y96863D01*
X82763Y96675D01*
Y96592D01*
X82774Y96521D01*
Y96462D01*
Y96415D01*
Y96392D01*
Y96380D01*
X82763Y96062D01*
X82739Y95755D01*
X82692Y95496D01*
X82645Y95260D01*
X82633Y95154D01*
X82610Y95072D01*
X82586Y94989D01*
X82562Y94918D01*
X82550Y94871D01*
X82539Y94836D01*
X82527Y94812D01*
Y94801D01*
X82421Y94553D01*
X82303Y94329D01*
X82197Y94117D01*
X82079Y93952D01*
X81985Y93811D01*
X81902Y93705D01*
X81855Y93646D01*
X81832Y93622D01*
X81655Y93457D01*
X81478Y93304D01*
X81301Y93174D01*
X81148Y93080D01*
X81007Y92998D01*
X80889Y92938D01*
X80818Y92903D01*
X80806Y92891D01*
X80794D01*
X80571Y92809D01*
X80347Y92750D01*
X80123Y92703D01*
X79934Y92679D01*
X79769Y92656D01*
X79640Y92644D01*
X79522D01*
X79239Y92656D01*
X79109Y92668D01*
X78991Y92679D01*
X78885D01*
X78815Y92691D01*
X78756Y92703D01*
X78744D01*
X78461Y92750D01*
X78331Y92785D01*
X78225Y92821D01*
X78131Y92844D01*
X78048Y92868D01*
X78001Y92891D01*
X77990D01*
X77730Y93009D01*
X77612Y93068D01*
X77506Y93127D01*
X77412Y93174D01*
X77353Y93221D01*
X77306Y93245D01*
X77294Y93257D01*
X77047Y93445D01*
X76941Y93540D01*
X76846Y93634D01*
X76764Y93716D01*
X76705Y93775D01*
X76670Y93822D01*
X76658Y93834D01*
X77165Y94471D01*
X77212Y94530D01*
X77259Y94565D01*
X77365Y94612D01*
X77412Y94624D01*
X77447Y94636D01*
X77483D01*
X77601Y94624D01*
X77695Y94588D01*
X77754Y94541D01*
X77766Y94530D01*
X77777D01*
X77883Y94447D01*
X77978Y94376D01*
X78048Y94318D01*
X78072Y94306D01*
X78084Y94294D01*
X78225Y94211D01*
X78367Y94141D01*
X78426Y94105D01*
X78473Y94094D01*
X78508Y94070D01*
X78520D01*
X78626Y94035D01*
X78732Y94011D01*
X78850Y93999D01*
X78956Y93988D01*
X79050Y93976D01*
X79192D01*
X79345Y93988D01*
X79486Y93999D01*
X79616Y94023D01*
X79722Y94058D01*
X79816Y94082D01*
X79887Y94105D01*
X79934Y94117D01*
X79946Y94129D01*
X80064Y94188D01*
X80170Y94270D01*
X80264Y94341D01*
X80347Y94412D01*
X80417Y94482D01*
X80464Y94541D01*
X80500Y94577D01*
X80512Y94588D01*
X80594Y94718D01*
X80665Y94848D01*
X80724Y94966D01*
X80771Y95095D01*
X80806Y95201D01*
X80842Y95284D01*
X80853Y95331D01*
X80865Y95355D01*
X80900Y95531D01*
X80936Y95708D01*
X80960Y95873D01*
X80971Y96038D01*
Y96180D01*
X80983Y96286D01*
Y96356D01*
Y96368D01*
Y96380D01*
Y96580D01*
X80971Y96781D01*
X80948Y96946D01*
X80924Y97099D01*
X80912Y97217D01*
X80889Y97311D01*
X80877Y97358D01*
Y97382D01*
X80830Y97547D01*
X80771Y97688D01*
X80712Y97818D01*
X80665Y97924D01*
X80618Y98018D01*
X80571Y98077D01*
X80547Y98124D01*
X80535Y98136D01*
X80441Y98242D01*
X80347Y98336D01*
X80252Y98419D01*
X80158Y98490D01*
X80076Y98537D01*
X80017Y98572D01*
X79970Y98596D01*
X79958Y98607D01*
X79816Y98666D01*
X79687Y98714D01*
X79545Y98737D01*
X79416Y98761D01*
X79310Y98772D01*
X79227Y98784D01*
X79015D01*
X78897Y98772D01*
X78803Y98761D01*
X78708Y98749D01*
X78638Y98725D01*
X78591Y98714D01*
X78555Y98702D01*
X78543D01*
X78367Y98643D01*
X78237Y98572D01*
X78190Y98548D01*
X78155Y98537D01*
X78131Y98513D01*
X78119D01*
X78001Y98442D01*
X77907Y98384D01*
X77848Y98336D01*
X77825Y98325D01*
X77730Y98289D01*
X77636Y98266D01*
X77577Y98254D01*
X77553D01*
X77459Y98266D01*
X77388Y98277D01*
X77353Y98289D01*
X77341Y98301D01*
X77282Y98348D01*
X77235Y98407D01*
X77200Y98454D01*
X77188Y98466D01*
X76728Y99102D01*
X76917Y99279D01*
X77106Y99421D01*
X77294Y99550D01*
X77471Y99656D01*
X77612Y99739D01*
X77730Y99798D01*
X77777Y99821D01*
X77813Y99833D01*
X77825Y99845D01*
X77836D01*
X78072Y99939D01*
X78308Y99998D01*
X78543Y100045D01*
X78767Y100081D01*
X78956Y100104D01*
X79038D01*
X79109Y100116D01*
X79251D01*
X79557Y100104D01*
D02*
G37*
G36*
X173512Y92750D02*
X172027D01*
X171944Y92762D01*
X171862Y92774D01*
X171732Y92821D01*
X171685Y92844D01*
X171650Y92856D01*
X171638Y92880D01*
X171626D01*
X171520Y92986D01*
X171449Y93080D01*
X171414Y93151D01*
X171402Y93162D01*
Y93174D01*
X170636Y95272D01*
X166405D01*
X165639Y93174D01*
X165568Y93056D01*
X165498Y92950D01*
X165439Y92891D01*
X165427Y92880D01*
X165415Y92868D01*
X165285Y92797D01*
X165144Y92762D01*
X165085D01*
X165038Y92750D01*
X163529D01*
X167548Y102980D01*
X169493D01*
X173512Y92750D01*
D02*
G37*
G36*
X162457D02*
X160713D01*
Y103263D01*
X162457D01*
Y92750D01*
D02*
G37*
G36*
X119852Y100128D02*
X120076Y100081D01*
X120276Y100010D01*
X120453Y99939D01*
X120595Y99868D01*
X120701Y99798D01*
X120771Y99751D01*
X120783Y99739D01*
X120795D01*
X120983Y99586D01*
X121148Y99409D01*
X121302Y99232D01*
X121431Y99067D01*
X121549Y98914D01*
X121620Y98784D01*
X121655Y98749D01*
X121679Y98714D01*
X121691Y98690D01*
Y98678D01*
X121808Y99562D01*
X121820Y99645D01*
X121844Y99715D01*
X121867Y99774D01*
X121891Y99821D01*
X121938Y99868D01*
X121950Y99892D01*
X121997Y99927D01*
X122056Y99951D01*
X122174Y99986D01*
X122233Y99998D01*
X123341D01*
Y92750D01*
X121596D01*
Y97264D01*
X121490Y97464D01*
X121384Y97641D01*
X121278Y97794D01*
X121172Y97912D01*
X121089Y98018D01*
X121007Y98077D01*
X120960Y98124D01*
X120948Y98136D01*
X120795Y98242D01*
X120642Y98313D01*
X120477Y98372D01*
X120335Y98407D01*
X120205Y98431D01*
X120099Y98442D01*
X119899D01*
X119805Y98431D01*
X119722D01*
X119652Y98419D01*
X119593Y98407D01*
X119557D01*
X119534Y98395D01*
X119522D01*
X119392Y98372D01*
X119298Y98360D01*
X119251Y98348D01*
X119227D01*
X119145Y98360D01*
X119086Y98372D01*
X119051Y98384D01*
X119039Y98395D01*
X118992Y98442D01*
X118968Y98501D01*
X118945Y98548D01*
Y98572D01*
X118721Y99880D01*
X118862Y99963D01*
X119003Y100034D01*
X119157Y100081D01*
X119298Y100104D01*
X119428Y100128D01*
X119522Y100140D01*
X119616D01*
X119852Y100128D01*
D02*
G37*
G36*
X110058Y92750D02*
X106204D01*
X105874Y92762D01*
X105580Y92785D01*
X105309Y92821D01*
X105073Y92868D01*
X104979Y92880D01*
X104884Y92903D01*
X104813Y92927D01*
X104743Y92939D01*
X104696Y92950D01*
X104660Y92962D01*
X104637Y92974D01*
X104625D01*
X104377Y93068D01*
X104153Y93162D01*
X103953Y93269D01*
X103776Y93375D01*
X103647Y93457D01*
X103541Y93528D01*
X103482Y93587D01*
X103458Y93599D01*
X103293Y93752D01*
X103140Y93917D01*
X103010Y94070D01*
X102916Y94223D01*
X102834Y94353D01*
X102775Y94447D01*
X102739Y94518D01*
X102727Y94541D01*
X102645Y94754D01*
X102586Y94966D01*
X102539Y95166D01*
X102515Y95355D01*
X102492Y95508D01*
X102480Y95638D01*
Y95685D01*
Y95720D01*
Y95732D01*
Y95744D01*
Y95908D01*
X102504Y96062D01*
X102574Y96356D01*
X102680Y96628D01*
X102810Y96863D01*
X102975Y97075D01*
X103152Y97264D01*
X103340Y97417D01*
X103541Y97558D01*
X103741Y97688D01*
X103930Y97782D01*
X104106Y97865D01*
X104271Y97924D01*
X104401Y97971D01*
X104507Y98006D01*
X104578Y98030D01*
X104601D01*
X104436Y98089D01*
X104271Y98160D01*
X104142Y98218D01*
X104012Y98278D01*
X103918Y98336D01*
X103847Y98384D01*
X103800Y98407D01*
X103788Y98419D01*
X103659Y98513D01*
X103553Y98596D01*
X103458Y98690D01*
X103376Y98772D01*
X103305Y98831D01*
X103258Y98890D01*
X103234Y98926D01*
X103223Y98937D01*
X103081Y99161D01*
X103022Y99267D01*
X102975Y99362D01*
X102940Y99444D01*
X102916Y99503D01*
X102893Y99550D01*
Y99562D01*
X102822Y99810D01*
X102798Y99927D01*
X102786Y100034D01*
X102775Y100116D01*
Y100187D01*
Y100234D01*
Y100246D01*
X102786Y100481D01*
X102810Y100694D01*
X102845Y100882D01*
X102881Y101047D01*
X102916Y101188D01*
X102951Y101295D01*
X102975Y101354D01*
X102987Y101377D01*
X103081Y101566D01*
X103175Y101731D01*
X103293Y101872D01*
X103399Y102002D01*
X103505Y102096D01*
X103588Y102178D01*
X103635Y102226D01*
X103659Y102237D01*
X103835Y102367D01*
X104036Y102473D01*
X104224Y102567D01*
X104413Y102638D01*
X104578Y102697D01*
X104707Y102744D01*
X104755Y102756D01*
X104790Y102768D01*
X104813Y102780D01*
X104825D01*
X105096Y102850D01*
X105391Y102897D01*
X105674Y102933D01*
X105945Y102956D01*
X106063Y102968D01*
X106181D01*
X106275Y102980D01*
X110058D01*
Y92750D01*
D02*
G37*
G36*
X100842Y92750D02*
X99097D01*
Y99998D01*
X100842D01*
Y92750D01*
D02*
G37*
G36*
X84978Y94777D02*
X85108Y94742D01*
X85167Y94730D01*
X85202Y94706D01*
X85226Y94695D01*
X85238D01*
X85379Y94624D01*
X85485Y94553D01*
X85532Y94518D01*
X85568Y94494D01*
X85579Y94482D01*
X85591Y94471D01*
X85686Y94353D01*
X85756Y94247D01*
X85780Y94200D01*
X85803Y94164D01*
X85815Y94141D01*
Y94129D01*
X85850Y93976D01*
X85874Y93846D01*
X85886Y93799D01*
Y93752D01*
Y93728D01*
Y93716D01*
X85874Y93551D01*
X85850Y93410D01*
X85839Y93351D01*
X85827Y93316D01*
X85815Y93292D01*
Y93280D01*
X85744Y93151D01*
X85674Y93045D01*
X85615Y92974D01*
X85591Y92962D01*
Y92950D01*
X85473Y92856D01*
X85356Y92797D01*
X85308Y92774D01*
X85273Y92750D01*
X85249Y92738D01*
X85238D01*
X85084Y92691D01*
X84955Y92668D01*
X84896Y92656D01*
X84813D01*
X84660Y92668D01*
X84530Y92703D01*
X84472Y92715D01*
X84436Y92726D01*
X84413Y92738D01*
X84401D01*
X84259Y92797D01*
X84153Y92868D01*
X84083Y92927D01*
X84071Y92950D01*
X84059D01*
X83965Y93056D01*
X83894Y93174D01*
X83870Y93210D01*
X83847Y93245D01*
X83835Y93268D01*
Y93280D01*
X83776Y93434D01*
X83753Y93575D01*
X83741Y93634D01*
Y93681D01*
Y93705D01*
Y93716D01*
X83753Y93870D01*
X83788Y93999D01*
X83800Y94058D01*
X83823Y94094D01*
X83835Y94117D01*
Y94129D01*
X83906Y94270D01*
X83977Y94376D01*
X84036Y94447D01*
X84047Y94459D01*
X84059Y94471D01*
X84177Y94565D01*
X84283Y94636D01*
X84330Y94659D01*
X84366Y94683D01*
X84389Y94695D01*
X84401D01*
X84554Y94754D01*
X84684Y94777D01*
X84731Y94789D01*
X84813D01*
X84978Y94777D01*
D02*
G37*
G36*
X72757Y100104D02*
X73028Y100069D01*
X73275Y100034D01*
X73499Y99986D01*
X73676Y99927D01*
X73759Y99904D01*
X73817Y99892D01*
X73864Y99868D01*
X73900Y99857D01*
X73924Y99845D01*
X73935D01*
X74171Y99739D01*
X74395Y99621D01*
X74584Y99491D01*
X74749Y99374D01*
X74878Y99267D01*
X74984Y99185D01*
X75043Y99126D01*
X75067Y99102D01*
X75232Y98914D01*
X75385Y98725D01*
X75503Y98525D01*
X75609Y98348D01*
X75691Y98183D01*
X75750Y98054D01*
X75774Y98006D01*
X75786Y97971D01*
X75797Y97947D01*
Y97936D01*
X75880Y97665D01*
X75939Y97405D01*
X75986Y97134D01*
X76009Y96898D01*
X76033Y96686D01*
Y96604D01*
X76045Y96521D01*
Y96462D01*
Y96415D01*
Y96392D01*
Y96380D01*
X76033Y96062D01*
X76009Y95779D01*
X75962Y95508D01*
X75915Y95284D01*
X75880Y95095D01*
X75856Y95013D01*
X75833Y94942D01*
X75821Y94895D01*
X75809Y94860D01*
X75797Y94836D01*
Y94824D01*
X75691Y94577D01*
X75574Y94353D01*
X75456Y94152D01*
X75338Y93976D01*
X75232Y93834D01*
X75149Y93740D01*
X75090Y93669D01*
X75067Y93646D01*
X74878Y93481D01*
X74689Y93328D01*
X74501Y93198D01*
X74324Y93092D01*
X74171Y93009D01*
X74041Y92950D01*
X73994Y92927D01*
X73959Y92915D01*
X73947Y92903D01*
X73935D01*
X73676Y92821D01*
X73417Y92750D01*
X73169Y92703D01*
X72945Y92679D01*
X72745Y92656D01*
X72662D01*
X72592Y92644D01*
X72462D01*
X72167Y92656D01*
X71885Y92679D01*
X71637Y92726D01*
X71425Y92774D01*
X71236Y92821D01*
X71166Y92844D01*
X71107Y92868D01*
X71060Y92880D01*
X71024Y92891D01*
X71001Y92903D01*
X70989D01*
X70753Y93009D01*
X70529Y93127D01*
X70341Y93257D01*
X70176Y93375D01*
X70046Y93481D01*
X69952Y93563D01*
X69893Y93622D01*
X69869Y93646D01*
X69704Y93834D01*
X69551Y94035D01*
X69433Y94235D01*
X69327Y94424D01*
X69245Y94577D01*
X69186Y94706D01*
X69162Y94754D01*
X69150Y94789D01*
X69138Y94812D01*
Y94824D01*
X69056Y95095D01*
X68985Y95366D01*
X68938Y95626D01*
X68915Y95861D01*
X68891Y96074D01*
Y96156D01*
X68879Y96238D01*
Y96297D01*
Y96345D01*
Y96368D01*
Y96380D01*
X68891Y96698D01*
X68915Y96981D01*
X68962Y97252D01*
X69009Y97476D01*
X69056Y97676D01*
X69080Y97747D01*
X69103Y97818D01*
X69115Y97865D01*
X69127Y97900D01*
X69138Y97924D01*
Y97936D01*
X69245Y98183D01*
X69362Y98407D01*
X69480Y98607D01*
X69598Y98784D01*
X69704Y98914D01*
X69787Y99020D01*
X69846Y99079D01*
X69869Y99102D01*
X70046Y99279D01*
X70235Y99421D01*
X70423Y99550D01*
X70600Y99656D01*
X70753Y99739D01*
X70883Y99798D01*
X70930Y99821D01*
X70953Y99833D01*
X70977Y99845D01*
X70989D01*
X71236Y99939D01*
X71496Y99998D01*
X71743Y100045D01*
X71967Y100081D01*
X72167Y100104D01*
X72250D01*
X72321Y100116D01*
X72462D01*
X72757Y100104D01*
D02*
G37*
G36*
X89598D02*
X89822Y100092D01*
X90023Y100057D01*
X90188Y100022D01*
X90329Y99986D01*
X90435Y99963D01*
X90506Y99939D01*
X90518Y99927D01*
X90529D01*
X90706Y99857D01*
X90883Y99774D01*
X91024Y99692D01*
X91154Y99621D01*
X91248Y99550D01*
X91331Y99491D01*
X91378Y99456D01*
X91390Y99444D01*
X91508Y99326D01*
X91614Y99208D01*
X91708Y99091D01*
X91779Y98985D01*
X91838Y98890D01*
X91873Y98820D01*
X91896Y98772D01*
X91908Y98749D01*
X91967Y98596D01*
X92003Y98442D01*
X92038Y98301D01*
X92050Y98171D01*
X92062Y98065D01*
X92073Y97983D01*
Y97924D01*
Y97900D01*
X92062Y97724D01*
X92050Y97570D01*
X92026Y97429D01*
X92003Y97311D01*
X91979Y97205D01*
X91955Y97134D01*
X91932Y97087D01*
Y97075D01*
X91873Y96957D01*
X91802Y96840D01*
X91732Y96745D01*
X91673Y96663D01*
X91614Y96592D01*
X91566Y96545D01*
X91543Y96510D01*
X91531Y96498D01*
X91331Y96345D01*
X91236Y96286D01*
X91142Y96227D01*
X91072Y96180D01*
X91013Y96144D01*
X90965Y96132D01*
X90954Y96121D01*
X90718Y96015D01*
X90612Y95967D01*
X90506Y95932D01*
X90423Y95897D01*
X90364Y95873D01*
X90317Y95850D01*
X90306D01*
X90058Y95779D01*
X89952Y95744D01*
X89846Y95708D01*
X89763Y95685D01*
X89704Y95661D01*
X89657Y95649D01*
X89646D01*
X89422Y95578D01*
X89327Y95543D01*
X89245Y95508D01*
X89174Y95472D01*
X89127Y95449D01*
X89092Y95437D01*
X89080Y95425D01*
X88903Y95331D01*
X88832Y95284D01*
X88773Y95237D01*
X88726Y95201D01*
X88691Y95166D01*
X88679Y95154D01*
X88667Y95142D01*
X88620Y95084D01*
X88573Y95013D01*
X88538Y94883D01*
X88526Y94824D01*
X88514Y94777D01*
Y94742D01*
Y94730D01*
X88526Y94612D01*
X88549Y94506D01*
X88573Y94424D01*
X88585Y94412D01*
Y94400D01*
X88644Y94294D01*
X88714Y94200D01*
X88773Y94141D01*
X88785Y94129D01*
X88797Y94117D01*
X88915Y94035D01*
X89033Y93976D01*
X89080Y93952D01*
X89127Y93940D01*
X89150Y93928D01*
X89162D01*
X89339Y93893D01*
X89516Y93870D01*
X89586Y93858D01*
X89846D01*
X89964Y93870D01*
X90082Y93881D01*
X90176Y93905D01*
X90246Y93917D01*
X90306Y93928D01*
X90341Y93940D01*
X90353D01*
X90529Y94011D01*
X90612Y94046D01*
X90671Y94082D01*
X90730Y94105D01*
X90765Y94129D01*
X90789Y94141D01*
X90801D01*
X90930Y94211D01*
X91036Y94282D01*
X91119Y94329D01*
X91131Y94341D01*
X91142D01*
X91248Y94400D01*
X91343Y94424D01*
X91425Y94435D01*
X91449D01*
X91555Y94424D01*
X91649Y94400D01*
X91696Y94376D01*
X91720Y94365D01*
X91790Y94318D01*
X91849Y94258D01*
X91885Y94211D01*
X91896Y94188D01*
X92297Y93516D01*
X92132Y93386D01*
X91979Y93268D01*
X91908Y93221D01*
X91861Y93186D01*
X91826Y93174D01*
X91814Y93162D01*
X91602Y93045D01*
X91496Y92998D01*
X91402Y92962D01*
X91319Y92927D01*
X91260Y92903D01*
X91213Y92880D01*
X91201D01*
X90954Y92797D01*
X90836Y92774D01*
X90730Y92750D01*
X90647Y92726D01*
X90576Y92715D01*
X90529Y92703D01*
X90518D01*
X90258Y92668D01*
X90129Y92644D01*
X90023D01*
X89928Y92632D01*
X89787D01*
X89528Y92644D01*
X89292Y92656D01*
X89080Y92691D01*
X88903Y92726D01*
X88750Y92750D01*
X88644Y92785D01*
X88573Y92797D01*
X88549Y92809D01*
X88349Y92880D01*
X88184Y92962D01*
X88019Y93045D01*
X87889Y93127D01*
X87783Y93198D01*
X87713Y93257D01*
X87654Y93292D01*
X87642Y93304D01*
X87512Y93434D01*
X87394Y93563D01*
X87300Y93693D01*
X87218Y93811D01*
X87159Y93917D01*
X87112Y93999D01*
X87088Y94046D01*
X87076Y94070D01*
X87006Y94235D01*
X86958Y94412D01*
X86923Y94577D01*
X86899Y94718D01*
X86888Y94848D01*
X86876Y94954D01*
Y95013D01*
Y95036D01*
X86888Y95190D01*
X86899Y95331D01*
X86923Y95461D01*
X86947Y95567D01*
X86982Y95661D01*
X87006Y95720D01*
X87017Y95767D01*
X87029Y95779D01*
X87088Y95897D01*
X87159Y96003D01*
X87229Y96085D01*
X87288Y96168D01*
X87347Y96238D01*
X87394Y96286D01*
X87430Y96309D01*
X87442Y96321D01*
X87630Y96474D01*
X87819Y96592D01*
X87889Y96627D01*
X87948Y96663D01*
X87996Y96675D01*
X88007Y96686D01*
X88243Y96792D01*
X88349Y96840D01*
X88455Y96875D01*
X88538Y96898D01*
X88596Y96922D01*
X88644Y96946D01*
X88656D01*
X88891Y97028D01*
X89009Y97064D01*
X89103Y97099D01*
X89186Y97122D01*
X89245Y97146D01*
X89292Y97158D01*
X89304D01*
X89528Y97228D01*
X89622Y97264D01*
X89716Y97299D01*
X89787Y97323D01*
X89834Y97346D01*
X89869Y97370D01*
X89881D01*
X90046Y97464D01*
X90176Y97547D01*
X90223Y97582D01*
X90258Y97617D01*
X90270Y97629D01*
X90282Y97641D01*
X90329Y97712D01*
X90364Y97771D01*
X90400Y97900D01*
X90412Y97959D01*
X90423Y98006D01*
Y98030D01*
Y98042D01*
X90412Y98171D01*
X90376Y98277D01*
X90329Y98384D01*
X90270Y98466D01*
X90223Y98525D01*
X90176Y98584D01*
X90140Y98607D01*
X90129Y98619D01*
X90011Y98690D01*
X89881Y98749D01*
X89740Y98784D01*
X89610Y98820D01*
X89492Y98831D01*
X89398Y98843D01*
X89198D01*
X89092Y98831D01*
X88986Y98820D01*
X88903Y98808D01*
X88844Y98796D01*
X88797Y98784D01*
X88762Y98772D01*
X88750D01*
X88573Y98714D01*
X88443Y98666D01*
X88384Y98643D01*
X88349Y98619D01*
X88326Y98607D01*
X88314D01*
X88184Y98548D01*
X88078Y98501D01*
X88007Y98466D01*
X87996Y98454D01*
X87984D01*
X87878Y98419D01*
X87783Y98395D01*
X87724Y98384D01*
X87701D01*
X87618Y98395D01*
X87559Y98407D01*
X87524Y98419D01*
X87512D01*
X87453Y98466D01*
X87406Y98525D01*
X87371Y98560D01*
X87359Y98584D01*
X86958Y99208D01*
X87123Y99350D01*
X87288Y99491D01*
X87465Y99597D01*
X87630Y99692D01*
X87772Y99774D01*
X87878Y99821D01*
X87925Y99845D01*
X87960Y99857D01*
X87972Y99868D01*
X87984D01*
X88219Y99951D01*
X88455Y100010D01*
X88691Y100057D01*
X88891Y100081D01*
X89080Y100104D01*
X89162D01*
X89221Y100116D01*
X89351D01*
X89598Y100104D01*
D02*
G37*
G36*
X169109Y44734D02*
X178582D01*
Y43209D01*
X175758Y39910D01*
X174958Y40485D01*
X174908Y40535D01*
X174858Y40597D01*
X174820Y40647D01*
X174808Y40672D01*
X174770Y40772D01*
X174758Y40860D01*
X174745Y40922D01*
Y41022D01*
X174758Y41085D01*
X174770Y41135D01*
Y41147D01*
X174808Y41222D01*
X174845Y41285D01*
X174883Y41335D01*
X174895Y41347D01*
X176195Y42909D01*
X175907Y42897D01*
X175770D01*
X175658Y42884D01*
X175558D01*
X175483D01*
X175433D01*
X175420D01*
X169109D01*
Y40685D01*
X167722D01*
Y46683D01*
X169109D01*
Y44734D01*
D02*
G37*
G36*
X171234Y38010D02*
X171546Y37936D01*
X171834Y37823D01*
X172083Y37685D01*
X172308Y37511D01*
X172508Y37323D01*
X172671Y37123D01*
X172821Y36911D01*
X172958Y36698D01*
X173058Y36498D01*
X173146Y36311D01*
X173208Y36136D01*
X173258Y35998D01*
X173296Y35886D01*
X173321Y35811D01*
Y35786D01*
X173383Y35961D01*
X173458Y36136D01*
X173521Y36273D01*
X173583Y36411D01*
X173646Y36511D01*
X173696Y36586D01*
X173721Y36636D01*
X173733Y36648D01*
X173833Y36786D01*
X173920Y36898D01*
X174021Y36998D01*
X174108Y37086D01*
X174170Y37161D01*
X174233Y37211D01*
X174270Y37236D01*
X174283Y37248D01*
X174520Y37398D01*
X174633Y37461D01*
X174733Y37511D01*
X174820Y37548D01*
X174883Y37573D01*
X174933Y37598D01*
X174945D01*
X175208Y37673D01*
X175333Y37698D01*
X175445Y37710D01*
X175533Y37723D01*
X175608D01*
X175658D01*
X175670D01*
X175920Y37710D01*
X176145Y37685D01*
X176345Y37648D01*
X176520Y37610D01*
X176670Y37573D01*
X176782Y37536D01*
X176845Y37511D01*
X176870Y37498D01*
X177070Y37398D01*
X177245Y37298D01*
X177395Y37173D01*
X177532Y37061D01*
X177632Y36948D01*
X177720Y36861D01*
X177770Y36811D01*
X177782Y36786D01*
X177920Y36598D01*
X178032Y36386D01*
X178132Y36186D01*
X178207Y35986D01*
X178269Y35811D01*
X178319Y35673D01*
X178332Y35624D01*
X178344Y35586D01*
X178357Y35561D01*
Y35549D01*
X178432Y35261D01*
X178482Y34949D01*
X178519Y34649D01*
X178544Y34361D01*
X178557Y34236D01*
Y34111D01*
X178569Y34011D01*
Y30000D01*
X167722D01*
Y34086D01*
X167735Y34436D01*
X167760Y34749D01*
X167797Y35036D01*
X167847Y35286D01*
X167860Y35386D01*
X167885Y35486D01*
X167910Y35561D01*
X167922Y35636D01*
X167935Y35686D01*
X167947Y35724D01*
X167960Y35749D01*
Y35761D01*
X168060Y36023D01*
X168160Y36261D01*
X168272Y36473D01*
X168384Y36661D01*
X168472Y36798D01*
X168547Y36911D01*
X168609Y36973D01*
X168622Y36998D01*
X168784Y37173D01*
X168959Y37336D01*
X169122Y37473D01*
X169284Y37573D01*
X169422Y37661D01*
X169522Y37723D01*
X169597Y37761D01*
X169622Y37773D01*
X169847Y37861D01*
X170072Y37923D01*
X170284Y37973D01*
X170484Y37998D01*
X170646Y38023D01*
X170784Y38035D01*
X170834D01*
X170871D01*
X170884D01*
X170896D01*
X171071D01*
X171234Y38010D01*
D02*
G37*
G36*
X199187Y46983D02*
X199437Y46971D01*
X199662Y46946D01*
X199874Y46921D01*
X200074Y46896D01*
X200274Y46871D01*
X200437Y46846D01*
X200599Y46808D01*
X200737Y46783D01*
X200849Y46758D01*
X200949Y46733D01*
X201037Y46708D01*
X201087Y46696D01*
X201124Y46683D01*
X201137D01*
X201511Y46558D01*
X201849Y46421D01*
X202149Y46283D01*
X202399Y46158D01*
X202499Y46096D01*
X202599Y46033D01*
X202674Y45983D01*
X202736Y45933D01*
X202786Y45896D01*
X202836Y45871D01*
X202849Y45858D01*
X202861Y45846D01*
X203099Y45634D01*
X203311Y45421D01*
X203486Y45209D01*
X203636Y45009D01*
X203748Y44834D01*
X203823Y44696D01*
X203848Y44646D01*
X203873Y44609D01*
X203886Y44584D01*
Y44571D01*
X203998Y44296D01*
X204086Y44021D01*
X204136Y43759D01*
X204186Y43509D01*
X204211Y43309D01*
Y43222D01*
X204223Y43147D01*
Y42997D01*
X204211Y42684D01*
X204173Y42397D01*
X204111Y42134D01*
X204061Y41897D01*
X203998Y41709D01*
X203961Y41634D01*
X203936Y41560D01*
X203923Y41509D01*
X203898Y41472D01*
X203886Y41447D01*
Y41435D01*
X203748Y41172D01*
X203586Y40935D01*
X203411Y40722D01*
X203249Y40535D01*
X203099Y40385D01*
X202974Y40272D01*
X202924Y40222D01*
X202886Y40197D01*
X202874Y40185D01*
X202861Y40172D01*
X202599Y39985D01*
X202311Y39822D01*
X202024Y39685D01*
X201749Y39560D01*
X201499Y39473D01*
X201399Y39435D01*
X201311Y39398D01*
X201236Y39385D01*
X201187Y39360D01*
X201149Y39348D01*
X201137D01*
X200737Y39248D01*
X200312Y39173D01*
X199899Y39123D01*
X199512Y39085D01*
X199337Y39073D01*
X199175Y39060D01*
X199037D01*
X198912Y39048D01*
X198812D01*
X198737D01*
X198687D01*
X198675D01*
X198162Y39060D01*
X197925Y39073D01*
X197700Y39098D01*
X197475Y39123D01*
X197275Y39148D01*
X197088Y39173D01*
X196913Y39198D01*
X196763Y39223D01*
X196625Y39248D01*
X196500Y39273D01*
X196400Y39298D01*
X196325Y39323D01*
X196263Y39335D01*
X196225Y39348D01*
X196213D01*
X195838Y39473D01*
X195501Y39597D01*
X195201Y39735D01*
X194951Y39873D01*
X194838Y39935D01*
X194751Y39985D01*
X194663Y40047D01*
X194601Y40085D01*
X194551Y40122D01*
X194513Y40147D01*
X194488Y40172D01*
X194476D01*
X194238Y40385D01*
X194038Y40597D01*
X193863Y40810D01*
X193713Y41010D01*
X193601Y41172D01*
X193526Y41310D01*
X193501Y41360D01*
X193476Y41397D01*
X193463Y41422D01*
Y41435D01*
X193351Y41709D01*
X193276Y41984D01*
X193214Y42247D01*
X193176Y42484D01*
X193151Y42697D01*
Y42784D01*
X193139Y42859D01*
Y42997D01*
X193151Y43309D01*
X193189Y43597D01*
X193239Y43871D01*
X193301Y44109D01*
X193363Y44296D01*
X193389Y44384D01*
X193414Y44446D01*
X193438Y44496D01*
X193451Y44534D01*
X193463Y44559D01*
Y44571D01*
X193601Y44834D01*
X193763Y45084D01*
X193938Y45296D01*
X194101Y45483D01*
X194251Y45634D01*
X194363Y45746D01*
X194413Y45796D01*
X194451Y45821D01*
X194463Y45846D01*
X194476D01*
X194751Y46033D01*
X195038Y46208D01*
X195326Y46346D01*
X195600Y46471D01*
X195850Y46558D01*
X195950Y46596D01*
X196038Y46633D01*
X196113Y46658D01*
X196163Y46671D01*
X196200Y46683D01*
X196213D01*
X196625Y46783D01*
X197038Y46858D01*
X197450Y46921D01*
X197837Y46958D01*
X198012Y46971D01*
X198175Y46983D01*
X198312D01*
X198437Y46996D01*
X198537D01*
X198612D01*
X198662D01*
X198675D01*
X199187Y46983D01*
D02*
G37*
G36*
X196775Y38010D02*
X197088Y37936D01*
X197375Y37823D01*
X197625Y37685D01*
X197850Y37511D01*
X198050Y37323D01*
X198212Y37123D01*
X198362Y36911D01*
X198500Y36698D01*
X198600Y36498D01*
X198687Y36311D01*
X198750Y36136D01*
X198800Y35998D01*
X198837Y35886D01*
X198862Y35811D01*
Y35786D01*
X198925Y35961D01*
X199000Y36136D01*
X199062Y36273D01*
X199125Y36411D01*
X199187Y36511D01*
X199237Y36586D01*
X199262Y36636D01*
X199275Y36648D01*
X199375Y36786D01*
X199462Y36898D01*
X199562Y36998D01*
X199649Y37086D01*
X199712Y37161D01*
X199774Y37211D01*
X199812Y37236D01*
X199824Y37248D01*
X200062Y37398D01*
X200174Y37461D01*
X200274Y37511D01*
X200362Y37548D01*
X200424Y37573D01*
X200474Y37598D01*
X200487D01*
X200749Y37673D01*
X200874Y37698D01*
X200987Y37710D01*
X201074Y37723D01*
X201149D01*
X201199D01*
X201211D01*
X201462Y37710D01*
X201686Y37685D01*
X201886Y37648D01*
X202061Y37610D01*
X202211Y37573D01*
X202324Y37536D01*
X202386Y37511D01*
X202411Y37498D01*
X202611Y37398D01*
X202786Y37298D01*
X202936Y37173D01*
X203074Y37061D01*
X203174Y36948D01*
X203261Y36861D01*
X203311Y36811D01*
X203323Y36786D01*
X203461Y36598D01*
X203573Y36386D01*
X203673Y36186D01*
X203748Y35986D01*
X203811Y35811D01*
X203861Y35673D01*
X203873Y35624D01*
X203886Y35586D01*
X203898Y35561D01*
Y35549D01*
X203973Y35261D01*
X204023Y34949D01*
X204061Y34649D01*
X204086Y34361D01*
X204098Y34236D01*
Y34111D01*
X204111Y34011D01*
Y30000D01*
X193264D01*
Y34086D01*
X193276Y34436D01*
X193301Y34749D01*
X193339Y35036D01*
X193389Y35286D01*
X193401Y35386D01*
X193426Y35486D01*
X193451Y35561D01*
X193463Y35636D01*
X193476Y35686D01*
X193489Y35724D01*
X193501Y35749D01*
Y35761D01*
X193601Y36023D01*
X193701Y36261D01*
X193813Y36473D01*
X193926Y36661D01*
X194013Y36798D01*
X194088Y36911D01*
X194151Y36973D01*
X194163Y36998D01*
X194326Y37173D01*
X194501Y37336D01*
X194663Y37473D01*
X194826Y37573D01*
X194963Y37661D01*
X195063Y37723D01*
X195138Y37761D01*
X195163Y37773D01*
X195388Y37861D01*
X195613Y37923D01*
X195825Y37973D01*
X196025Y37998D01*
X196188Y38023D01*
X196325Y38035D01*
X196375D01*
X196413D01*
X196425D01*
X196438D01*
X196613D01*
X196775Y38010D01*
D02*
G37*
G36*
X97465Y46971D02*
X97715Y46958D01*
X97940Y46933D01*
X98152Y46908D01*
X98352Y46883D01*
X98552Y46858D01*
X98715Y46833D01*
X98877Y46796D01*
X99015Y46771D01*
X99127Y46746D01*
X99227Y46721D01*
X99314Y46696D01*
X99365Y46683D01*
X99402Y46671D01*
X99415D01*
X99789Y46546D01*
X100127Y46408D01*
X100427Y46271D01*
X100677Y46146D01*
X100777Y46083D01*
X100877Y46021D01*
X100952Y45971D01*
X101014Y45921D01*
X101064Y45883D01*
X101114Y45858D01*
X101126Y45846D01*
X101139Y45833D01*
X101376Y45621D01*
X101589Y45409D01*
X101764Y45196D01*
X101914Y44996D01*
X102026Y44821D01*
X102101Y44684D01*
X102126Y44634D01*
X102151Y44596D01*
X102164Y44571D01*
Y44559D01*
X102276Y44284D01*
X102364Y44009D01*
X102414Y43747D01*
X102464Y43496D01*
X102489Y43297D01*
Y43209D01*
X102501Y43134D01*
Y42984D01*
X102489Y42672D01*
X102451Y42384D01*
X102389Y42122D01*
X102339Y41884D01*
X102276Y41697D01*
X102239Y41622D01*
X102214Y41547D01*
X102201Y41497D01*
X102176Y41460D01*
X102164Y41435D01*
Y41422D01*
X102026Y41160D01*
X101864Y40922D01*
X101689Y40710D01*
X101526Y40522D01*
X101376Y40372D01*
X101251Y40260D01*
X101201Y40210D01*
X101164Y40185D01*
X101152Y40172D01*
X101139Y40160D01*
X100877Y39972D01*
X100589Y39810D01*
X100302Y39673D01*
X100027Y39548D01*
X99777Y39460D01*
X99677Y39423D01*
X99589Y39385D01*
X99514Y39373D01*
X99464Y39348D01*
X99427Y39335D01*
X99415D01*
X99015Y39235D01*
X98590Y39160D01*
X98177Y39110D01*
X97790Y39073D01*
X97615Y39060D01*
X97452Y39048D01*
X97315D01*
X97190Y39035D01*
X97090D01*
X97015D01*
X96965D01*
X96953D01*
X96440Y39048D01*
X96203Y39060D01*
X95978Y39085D01*
X95753Y39110D01*
X95553Y39135D01*
X95365Y39160D01*
X95190Y39185D01*
X95041Y39210D01*
X94903Y39235D01*
X94778Y39260D01*
X94678Y39285D01*
X94603Y39310D01*
X94541Y39323D01*
X94503Y39335D01*
X94491D01*
X94116Y39460D01*
X93778Y39585D01*
X93478Y39722D01*
X93229Y39860D01*
X93116Y39922D01*
X93029Y39972D01*
X92941Y40035D01*
X92879Y40072D01*
X92829Y40110D01*
X92791Y40135D01*
X92766Y40160D01*
X92754D01*
X92516Y40372D01*
X92316Y40585D01*
X92141Y40797D01*
X91991Y40997D01*
X91879Y41160D01*
X91804Y41297D01*
X91779Y41347D01*
X91754Y41385D01*
X91741Y41410D01*
Y41422D01*
X91629Y41697D01*
X91554Y41972D01*
X91491Y42234D01*
X91454Y42472D01*
X91429Y42684D01*
Y42772D01*
X91417Y42847D01*
Y42984D01*
X91429Y43297D01*
X91467Y43584D01*
X91517Y43859D01*
X91579Y44096D01*
X91641Y44284D01*
X91666Y44371D01*
X91691Y44434D01*
X91716Y44484D01*
X91729Y44521D01*
X91741Y44546D01*
Y44559D01*
X91879Y44821D01*
X92041Y45071D01*
X92216Y45284D01*
X92379Y45471D01*
X92529Y45621D01*
X92641Y45733D01*
X92691Y45783D01*
X92729Y45808D01*
X92741Y45833D01*
X92754D01*
X93029Y46021D01*
X93316Y46196D01*
X93603Y46333D01*
X93878Y46458D01*
X94128Y46546D01*
X94228Y46583D01*
X94316Y46621D01*
X94391Y46646D01*
X94441Y46658D01*
X94478Y46671D01*
X94491D01*
X94903Y46771D01*
X95316Y46846D01*
X95728Y46908D01*
X96115Y46946D01*
X96290Y46958D01*
X96453Y46971D01*
X96590D01*
X96715Y46983D01*
X96815D01*
X96890D01*
X96940D01*
X96953D01*
X97465Y46971D01*
D02*
G37*
G36*
X95540Y35749D02*
X95678Y35636D01*
X95803Y35524D01*
X95915Y35424D01*
X96003Y35311D01*
X96078Y35224D01*
X96128Y35149D01*
X96153Y35099D01*
X96165Y35086D01*
X96240Y35299D01*
X96315Y35486D01*
X96390Y35661D01*
X96465Y35811D01*
X96540Y35936D01*
X96590Y36023D01*
X96628Y36073D01*
X96640Y36098D01*
X96753Y36261D01*
X96878Y36411D01*
X96990Y36536D01*
X97102Y36648D01*
X97203Y36736D01*
X97277Y36798D01*
X97327Y36836D01*
X97340Y36848D01*
X97490Y36961D01*
X97652Y37061D01*
X97802Y37136D01*
X97940Y37198D01*
X98052Y37261D01*
X98140Y37298D01*
X98202Y37311D01*
X98227Y37323D01*
X98415Y37373D01*
X98590Y37423D01*
X98765Y37448D01*
X98927Y37461D01*
X99065Y37473D01*
X99177Y37486D01*
X99240D01*
X99264D01*
X99514Y37473D01*
X99752Y37448D01*
X99964Y37411D01*
X100152Y37373D01*
X100314Y37323D01*
X100427Y37286D01*
X100502Y37261D01*
X100527Y37248D01*
X100739Y37148D01*
X100927Y37036D01*
X101089Y36911D01*
X101239Y36786D01*
X101351Y36673D01*
X101439Y36586D01*
X101501Y36523D01*
X101514Y36498D01*
X101664Y36298D01*
X101789Y36086D01*
X101901Y35873D01*
X101989Y35661D01*
X102064Y35474D01*
X102114Y35336D01*
X102126Y35274D01*
X102139Y35236D01*
X102151Y35211D01*
Y35199D01*
X102226Y34886D01*
X102289Y34574D01*
X102326Y34249D01*
X102364Y33949D01*
Y33824D01*
X102376Y33699D01*
Y33587D01*
X102389Y33487D01*
Y30000D01*
X91542D01*
Y32012D01*
X95778D01*
Y32974D01*
X95765Y33074D01*
X95753Y33149D01*
X95740Y33212D01*
X95715Y33262D01*
X95703Y33299D01*
X95690Y33312D01*
Y33324D01*
X95615Y33437D01*
X95515Y33524D01*
X95441Y33587D01*
X95428Y33612D01*
X95415D01*
X91941Y35886D01*
X91816Y35986D01*
X91716Y36086D01*
X91666Y36173D01*
X91641Y36186D01*
Y36198D01*
X91579Y36348D01*
X91554Y36498D01*
X91542Y36561D01*
Y38460D01*
X95540Y35749D01*
D02*
G37*
G36*
X67387Y44721D02*
X76860D01*
Y43197D01*
X74035Y39897D01*
X73236Y40472D01*
X73186Y40522D01*
X73136Y40585D01*
X73098Y40635D01*
X73086Y40660D01*
X73048Y40760D01*
X73036Y40847D01*
X73023Y40910D01*
Y41010D01*
X73036Y41072D01*
X73048Y41122D01*
Y41135D01*
X73086Y41210D01*
X73123Y41272D01*
X73161Y41322D01*
X73173Y41335D01*
X74473Y42897D01*
X74185Y42884D01*
X74048D01*
X73935Y42872D01*
X73836D01*
X73760D01*
X73710D01*
X73698D01*
X67387D01*
Y40672D01*
X66000D01*
Y46671D01*
X67387D01*
Y44721D01*
D02*
G37*
G36*
X69999Y35749D02*
X70136Y35636D01*
X70261Y35524D01*
X70374Y35424D01*
X70461Y35311D01*
X70536Y35224D01*
X70586Y35149D01*
X70611Y35099D01*
X70624Y35086D01*
X70699Y35299D01*
X70774Y35486D01*
X70849Y35661D01*
X70924Y35811D01*
X70999Y35936D01*
X71049Y36023D01*
X71086Y36073D01*
X71099Y36098D01*
X71211Y36261D01*
X71336Y36411D01*
X71449Y36536D01*
X71561Y36648D01*
X71661Y36736D01*
X71736Y36798D01*
X71786Y36836D01*
X71799Y36848D01*
X71948Y36961D01*
X72111Y37061D01*
X72261Y37136D01*
X72398Y37198D01*
X72511Y37261D01*
X72598Y37298D01*
X72661Y37311D01*
X72686Y37323D01*
X72873Y37373D01*
X73048Y37423D01*
X73223Y37448D01*
X73386Y37461D01*
X73523Y37473D01*
X73636Y37486D01*
X73698D01*
X73723D01*
X73973Y37473D01*
X74210Y37448D01*
X74423Y37411D01*
X74610Y37373D01*
X74773Y37323D01*
X74885Y37286D01*
X74960Y37261D01*
X74985Y37248D01*
X75198Y37148D01*
X75385Y37036D01*
X75548Y36911D01*
X75697Y36786D01*
X75810Y36673D01*
X75897Y36586D01*
X75960Y36523D01*
X75972Y36498D01*
X76122Y36298D01*
X76247Y36086D01*
X76360Y35873D01*
X76447Y35661D01*
X76522Y35474D01*
X76572Y35336D01*
X76585Y35274D01*
X76597Y35236D01*
X76610Y35211D01*
Y35199D01*
X76685Y34886D01*
X76747Y34574D01*
X76785Y34249D01*
X76822Y33949D01*
Y33824D01*
X76835Y33699D01*
Y33587D01*
X76847Y33487D01*
Y30000D01*
X66000D01*
Y32012D01*
X70236D01*
Y32974D01*
X70224Y33074D01*
X70211Y33149D01*
X70199Y33212D01*
X70174Y33262D01*
X70161Y33299D01*
X70149Y33312D01*
Y33324D01*
X70074Y33437D01*
X69974Y33524D01*
X69899Y33587D01*
X69886Y33612D01*
X69874D01*
X66400Y35886D01*
X66275Y35986D01*
X66175Y36086D01*
X66125Y36173D01*
X66100Y36186D01*
Y36198D01*
X66038Y36348D01*
X66013Y36498D01*
X66000Y36561D01*
Y38460D01*
X69999Y35749D01*
D02*
G37*
G36*
X148326Y48695D02*
X148576Y48683D01*
X148801Y48658D01*
X149013Y48633D01*
X149213Y48608D01*
X149413Y48583D01*
X149576Y48558D01*
X149738Y48520D01*
X149876Y48495D01*
X149988Y48470D01*
X150088Y48445D01*
X150176Y48420D01*
X150225Y48408D01*
X150263Y48395D01*
X150275D01*
X150650Y48270D01*
X150988Y48133D01*
X151288Y47995D01*
X151538Y47870D01*
X151638Y47808D01*
X151738Y47745D01*
X151813Y47695D01*
X151875Y47646D01*
X151925Y47608D01*
X151975Y47583D01*
X151988Y47571D01*
X152000Y47558D01*
X152238Y47345D01*
X152450Y47133D01*
X152625Y46921D01*
X152775Y46721D01*
X152887Y46546D01*
X152962Y46408D01*
X152987Y46358D01*
X153012Y46321D01*
X153025Y46296D01*
Y46283D01*
X153137Y46008D01*
X153225Y45733D01*
X153275Y45471D01*
X153325Y45221D01*
X153350Y45021D01*
Y44934D01*
X153362Y44859D01*
Y44709D01*
X153350Y44396D01*
X153312Y44109D01*
X153250Y43846D01*
X153200Y43609D01*
X153137Y43422D01*
X153100Y43347D01*
X153075Y43272D01*
X153062Y43222D01*
X153037Y43184D01*
X153025Y43159D01*
Y43147D01*
X152887Y42884D01*
X152725Y42647D01*
X152550Y42434D01*
X152388Y42247D01*
X152238Y42097D01*
X152113Y41984D01*
X152063Y41934D01*
X152025Y41909D01*
X152013Y41897D01*
X152000Y41884D01*
X151738Y41697D01*
X151450Y41535D01*
X151163Y41397D01*
X150888Y41272D01*
X150638Y41185D01*
X150538Y41147D01*
X150450Y41110D01*
X150375Y41097D01*
X150325Y41072D01*
X150288Y41060D01*
X150275D01*
X149876Y40960D01*
X149451Y40885D01*
X149038Y40835D01*
X148651Y40797D01*
X148476Y40785D01*
X148314Y40772D01*
X148176D01*
X148051Y40760D01*
X147951D01*
X147876D01*
X147826D01*
X147814D01*
X147301Y40772D01*
X147064Y40785D01*
X146839Y40810D01*
X146614Y40835D01*
X146414Y40860D01*
X146227Y40885D01*
X146052Y40910D01*
X145902Y40935D01*
X145764Y40960D01*
X145639Y40985D01*
X145539Y41010D01*
X145464Y41035D01*
X145402Y41047D01*
X145364Y41060D01*
X145352D01*
X144977Y41185D01*
X144640Y41310D01*
X144340Y41447D01*
X144090Y41585D01*
X143977Y41647D01*
X143890Y41697D01*
X143802Y41760D01*
X143740Y41797D01*
X143690Y41835D01*
X143652Y41859D01*
X143627Y41884D01*
X143615D01*
X143377Y42097D01*
X143177Y42309D01*
X143002Y42522D01*
X142852Y42722D01*
X142740Y42884D01*
X142665Y43022D01*
X142640Y43072D01*
X142615Y43109D01*
X142603Y43134D01*
Y43147D01*
X142490Y43422D01*
X142415Y43696D01*
X142353Y43959D01*
X142315Y44196D01*
X142290Y44409D01*
Y44496D01*
X142278Y44571D01*
Y44709D01*
X142290Y45021D01*
X142328Y45309D01*
X142378Y45584D01*
X142440Y45821D01*
X142502Y46008D01*
X142528Y46096D01*
X142552Y46158D01*
X142577Y46208D01*
X142590Y46246D01*
X142603Y46271D01*
Y46283D01*
X142740Y46546D01*
X142902Y46796D01*
X143077Y47008D01*
X143240Y47196D01*
X143390Y47345D01*
X143502Y47458D01*
X143552Y47508D01*
X143590Y47533D01*
X143602Y47558D01*
X143615D01*
X143890Y47745D01*
X144177Y47920D01*
X144465Y48058D01*
X144739Y48183D01*
X144989Y48270D01*
X145089Y48308D01*
X145177Y48345D01*
X145252Y48370D01*
X145302Y48383D01*
X145339Y48395D01*
X145352D01*
X145764Y48495D01*
X146177Y48570D01*
X146589Y48633D01*
X146976Y48670D01*
X147151Y48683D01*
X147314Y48695D01*
X147451D01*
X147576Y48708D01*
X147676D01*
X147751D01*
X147801D01*
X147814D01*
X148326Y48695D01*
D02*
G37*
G36*
X147839Y35973D02*
X146689D01*
X146589Y35986D01*
X146502Y36036D01*
X146452Y36073D01*
X146426Y36086D01*
X146364Y36186D01*
X146339Y36273D01*
X146327Y36361D01*
Y37761D01*
X144340D01*
X144190Y37411D01*
X144127Y37248D01*
X144077Y37098D01*
X144040Y36973D01*
X144015Y36873D01*
X143990Y36811D01*
Y36786D01*
X143952Y36586D01*
X143927Y36386D01*
X143902Y36186D01*
X143890Y36011D01*
Y35849D01*
X143877Y35711D01*
Y35599D01*
X143890Y35324D01*
X143915Y35049D01*
X143965Y34811D01*
X144015Y34599D01*
X144052Y34424D01*
X144102Y34286D01*
X144115Y34236D01*
X144127Y34199D01*
X144140Y34186D01*
Y34174D01*
X144252Y33937D01*
X144365Y33724D01*
X144502Y33537D01*
X144614Y33374D01*
X144727Y33237D01*
X144814Y33137D01*
X144877Y33074D01*
X144902Y33049D01*
X145102Y32887D01*
X145314Y32737D01*
X145514Y32612D01*
X145714Y32512D01*
X145889Y32437D01*
X146014Y32374D01*
X146064Y32349D01*
X146102Y32337D01*
X146127Y32324D01*
X146139D01*
X146426Y32237D01*
X146714Y32174D01*
X146989Y32124D01*
X147251Y32099D01*
X147476Y32074D01*
X147576D01*
X147651Y32062D01*
X147726D01*
X147776D01*
X147801D01*
X147814D01*
X148139Y32074D01*
X148426Y32099D01*
X148701Y32137D01*
X148926Y32187D01*
X149126Y32224D01*
X149201Y32249D01*
X149263Y32262D01*
X149313Y32274D01*
X149351Y32287D01*
X149376Y32299D01*
X149388D01*
X149651Y32399D01*
X149876Y32512D01*
X150088Y32637D01*
X150263Y32749D01*
X150400Y32849D01*
X150513Y32924D01*
X150575Y32974D01*
X150600Y32999D01*
X150775Y33174D01*
X150938Y33374D01*
X151063Y33549D01*
X151175Y33724D01*
X151263Y33886D01*
X151325Y33999D01*
X151350Y34049D01*
X151363Y34086D01*
X151375Y34099D01*
Y34111D01*
X151463Y34361D01*
X151538Y34611D01*
X151588Y34861D01*
X151613Y35086D01*
X151638Y35274D01*
Y35361D01*
X151650Y35424D01*
Y35749D01*
X151638Y35911D01*
X151625Y36061D01*
X151613Y36186D01*
X151600Y36286D01*
X151588Y36373D01*
X151575Y36423D01*
Y36436D01*
X151550Y36573D01*
X151525Y36711D01*
X151488Y36823D01*
X151463Y36923D01*
X151438Y37011D01*
X151425Y37073D01*
X151400Y37111D01*
Y37123D01*
X151325Y37336D01*
X151275Y37436D01*
X151238Y37511D01*
X151200Y37573D01*
X151175Y37636D01*
X151163Y37661D01*
X151150Y37673D01*
X151050Y37861D01*
X150963Y38023D01*
X150925Y38085D01*
X150900Y38135D01*
X150888Y38160D01*
X150875Y38173D01*
X150800Y38310D01*
X150763Y38423D01*
Y38473D01*
X150750Y38510D01*
Y38535D01*
X150763Y38635D01*
X150788Y38735D01*
X150838Y38810D01*
X150888Y38873D01*
X150938Y38923D01*
X150988Y38960D01*
X151013Y38985D01*
X151025Y38998D01*
X151938Y39573D01*
X152163Y39310D01*
X152362Y39035D01*
X152537Y38760D01*
X152687Y38498D01*
X152812Y38273D01*
X152850Y38173D01*
X152887Y38085D01*
X152925Y38023D01*
X152950Y37961D01*
X152962Y37936D01*
Y37923D01*
X153100Y37548D01*
X153200Y37161D01*
X153262Y36773D01*
X153312Y36423D01*
X153325Y36261D01*
X153337Y36111D01*
X153350Y35973D01*
X153362Y35861D01*
Y35636D01*
X153350Y35161D01*
X153300Y34724D01*
X153262Y34511D01*
X153237Y34324D01*
X153200Y34136D01*
X153162Y33974D01*
X153112Y33824D01*
X153075Y33686D01*
X153050Y33574D01*
X153012Y33474D01*
X152987Y33387D01*
X152962Y33337D01*
X152950Y33299D01*
Y33287D01*
X152787Y32912D01*
X152600Y32574D01*
X152413Y32274D01*
X152238Y32012D01*
X152150Y31899D01*
X152063Y31799D01*
X152000Y31712D01*
X151938Y31650D01*
X151888Y31587D01*
X151850Y31550D01*
X151825Y31525D01*
X151813Y31512D01*
X151525Y31262D01*
X151225Y31037D01*
X150925Y30837D01*
X150650Y30675D01*
X150413Y30550D01*
X150313Y30500D01*
X150225Y30462D01*
X150151Y30425D01*
X150101Y30412D01*
X150063Y30387D01*
X150051D01*
X149663Y30262D01*
X149276Y30162D01*
X148901Y30100D01*
X148551Y30050D01*
X148401Y30038D01*
X148251Y30025D01*
X148126Y30013D01*
X148026D01*
X147939Y30000D01*
X147864D01*
X147826D01*
X147814D01*
X147364Y30013D01*
X146951Y30062D01*
X146576Y30125D01*
X146402Y30162D01*
X146239Y30200D01*
X146102Y30237D01*
X145964Y30275D01*
X145852Y30312D01*
X145752Y30337D01*
X145677Y30362D01*
X145627Y30387D01*
X145589Y30400D01*
X145577D01*
X145214Y30562D01*
X144877Y30750D01*
X144577Y30937D01*
X144327Y31125D01*
X144215Y31212D01*
X144115Y31287D01*
X144027Y31362D01*
X143965Y31412D01*
X143902Y31462D01*
X143865Y31500D01*
X143840Y31525D01*
X143827Y31537D01*
X143565Y31825D01*
X143340Y32112D01*
X143152Y32399D01*
X142990Y32674D01*
X142865Y32912D01*
X142802Y33012D01*
X142765Y33099D01*
X142727Y33162D01*
X142715Y33212D01*
X142690Y33249D01*
Y33262D01*
X142552Y33637D01*
X142452Y34024D01*
X142378Y34386D01*
X142328Y34724D01*
X142315Y34874D01*
X142303Y35011D01*
X142290Y35136D01*
Y35236D01*
X142278Y35324D01*
Y35686D01*
X142290Y35911D01*
X142303Y36123D01*
X142315Y36311D01*
X142328Y36473D01*
X142340Y36586D01*
X142353Y36661D01*
Y36686D01*
X142378Y36898D01*
X142415Y37098D01*
X142440Y37273D01*
X142478Y37436D01*
X142502Y37573D01*
X142528Y37673D01*
X142552Y37736D01*
Y37761D01*
X142615Y37948D01*
X142677Y38123D01*
X142727Y38285D01*
X142790Y38435D01*
X142840Y38548D01*
X142877Y38648D01*
X142902Y38698D01*
X142915Y38723D01*
X143090Y39048D01*
X143177Y39198D01*
X143265Y39323D01*
X143327Y39435D01*
X143390Y39510D01*
X143427Y39573D01*
X143440Y39585D01*
X147839D01*
Y35973D01*
D02*
G37*
G36*
X118359Y46446D02*
X127832D01*
Y44921D01*
X125007Y41622D01*
X124208Y42197D01*
X124158Y42247D01*
X124108Y42309D01*
X124070Y42359D01*
X124058Y42384D01*
X124020Y42484D01*
X124008Y42572D01*
X123995Y42634D01*
Y42734D01*
X124008Y42797D01*
X124020Y42847D01*
Y42859D01*
X124058Y42934D01*
X124095Y42997D01*
X124133Y43047D01*
X124145Y43059D01*
X125445Y44621D01*
X125157Y44609D01*
X125020D01*
X124908Y44596D01*
X124808D01*
X124733D01*
X124683D01*
X124670D01*
X118359D01*
Y42397D01*
X116972D01*
Y48395D01*
X118359D01*
Y46446D01*
D02*
G37*
G36*
X122408Y35973D02*
X121258D01*
X121158Y35986D01*
X121071Y36036D01*
X121021Y36073D01*
X120996Y36086D01*
X120934Y36186D01*
X120908Y36273D01*
X120896Y36361D01*
Y37761D01*
X118909D01*
X118759Y37411D01*
X118697Y37248D01*
X118647Y37098D01*
X118609Y36973D01*
X118584Y36873D01*
X118559Y36811D01*
Y36786D01*
X118522Y36586D01*
X118497Y36386D01*
X118472Y36186D01*
X118459Y36011D01*
Y35849D01*
X118447Y35711D01*
Y35599D01*
X118459Y35324D01*
X118484Y35049D01*
X118534Y34811D01*
X118584Y34599D01*
X118622Y34424D01*
X118672Y34286D01*
X118684Y34236D01*
X118697Y34199D01*
X118709Y34186D01*
Y34174D01*
X118821Y33937D01*
X118934Y33724D01*
X119072Y33537D01*
X119184Y33374D01*
X119296Y33237D01*
X119384Y33137D01*
X119446Y33074D01*
X119471Y33049D01*
X119671Y32887D01*
X119884Y32737D01*
X120084Y32612D01*
X120284Y32512D01*
X120459Y32437D01*
X120584Y32374D01*
X120634Y32349D01*
X120671Y32337D01*
X120696Y32324D01*
X120709D01*
X120996Y32237D01*
X121283Y32174D01*
X121558Y32124D01*
X121821Y32099D01*
X122046Y32074D01*
X122146D01*
X122221Y32062D01*
X122296D01*
X122346D01*
X122371D01*
X122383D01*
X122708Y32074D01*
X122996Y32099D01*
X123270Y32137D01*
X123495Y32187D01*
X123695Y32224D01*
X123770Y32249D01*
X123833Y32262D01*
X123883Y32274D01*
X123920Y32287D01*
X123945Y32299D01*
X123958D01*
X124220Y32399D01*
X124445Y32512D01*
X124657Y32637D01*
X124832Y32749D01*
X124970Y32849D01*
X125082Y32924D01*
X125145Y32974D01*
X125170Y32999D01*
X125345Y33174D01*
X125507Y33374D01*
X125632Y33549D01*
X125745Y33724D01*
X125832Y33886D01*
X125895Y33999D01*
X125920Y34049D01*
X125932Y34086D01*
X125945Y34099D01*
Y34111D01*
X126032Y34361D01*
X126107Y34611D01*
X126157Y34861D01*
X126182Y35086D01*
X126207Y35274D01*
Y35361D01*
X126220Y35424D01*
Y35749D01*
X126207Y35911D01*
X126195Y36061D01*
X126182Y36186D01*
X126170Y36286D01*
X126157Y36373D01*
X126145Y36423D01*
Y36436D01*
X126120Y36573D01*
X126095Y36711D01*
X126057Y36823D01*
X126032Y36923D01*
X126007Y37011D01*
X125995Y37073D01*
X125970Y37111D01*
Y37123D01*
X125895Y37336D01*
X125845Y37436D01*
X125807Y37511D01*
X125770Y37573D01*
X125745Y37636D01*
X125732Y37661D01*
X125720Y37673D01*
X125620Y37861D01*
X125532Y38023D01*
X125495Y38085D01*
X125470Y38135D01*
X125457Y38160D01*
X125445Y38173D01*
X125370Y38310D01*
X125332Y38423D01*
Y38473D01*
X125320Y38510D01*
Y38535D01*
X125332Y38635D01*
X125357Y38735D01*
X125407Y38810D01*
X125457Y38873D01*
X125507Y38923D01*
X125557Y38960D01*
X125582Y38985D01*
X125595Y38998D01*
X126507Y39573D01*
X126732Y39310D01*
X126932Y39035D01*
X127107Y38760D01*
X127257Y38498D01*
X127382Y38273D01*
X127419Y38173D01*
X127457Y38085D01*
X127494Y38023D01*
X127519Y37961D01*
X127532Y37936D01*
Y37923D01*
X127669Y37548D01*
X127769Y37161D01*
X127832Y36773D01*
X127882Y36423D01*
X127894Y36261D01*
X127907Y36111D01*
X127919Y35973D01*
X127932Y35861D01*
Y35636D01*
X127919Y35161D01*
X127869Y34724D01*
X127832Y34511D01*
X127807Y34324D01*
X127769Y34136D01*
X127732Y33974D01*
X127682Y33824D01*
X127644Y33686D01*
X127619Y33574D01*
X127582Y33474D01*
X127557Y33387D01*
X127532Y33337D01*
X127519Y33299D01*
Y33287D01*
X127357Y32912D01*
X127169Y32574D01*
X126982Y32274D01*
X126807Y32012D01*
X126720Y31899D01*
X126632Y31799D01*
X126569Y31712D01*
X126507Y31650D01*
X126457Y31587D01*
X126420Y31550D01*
X126395Y31525D01*
X126382Y31512D01*
X126095Y31262D01*
X125795Y31037D01*
X125495Y30837D01*
X125220Y30675D01*
X124983Y30550D01*
X124882Y30500D01*
X124795Y30462D01*
X124720Y30425D01*
X124670Y30412D01*
X124633Y30387D01*
X124620D01*
X124233Y30262D01*
X123845Y30162D01*
X123470Y30100D01*
X123120Y30050D01*
X122971Y30038D01*
X122821Y30025D01*
X122696Y30013D01*
X122596D01*
X122508Y30000D01*
X122433D01*
X122396D01*
X122383D01*
X121933Y30013D01*
X121521Y30062D01*
X121146Y30125D01*
X120971Y30162D01*
X120808Y30200D01*
X120671Y30237D01*
X120534Y30275D01*
X120421Y30312D01*
X120321Y30337D01*
X120246Y30362D01*
X120196Y30387D01*
X120159Y30400D01*
X120146D01*
X119784Y30562D01*
X119446Y30750D01*
X119146Y30937D01*
X118897Y31125D01*
X118784Y31212D01*
X118684Y31287D01*
X118597Y31362D01*
X118534Y31412D01*
X118472Y31462D01*
X118434Y31500D01*
X118409Y31525D01*
X118397Y31537D01*
X118134Y31825D01*
X117909Y32112D01*
X117722Y32399D01*
X117559Y32674D01*
X117434Y32912D01*
X117372Y33012D01*
X117334Y33099D01*
X117297Y33162D01*
X117284Y33212D01*
X117259Y33249D01*
Y33262D01*
X117122Y33637D01*
X117022Y34024D01*
X116947Y34386D01*
X116897Y34724D01*
X116884Y34874D01*
X116872Y35011D01*
X116860Y35136D01*
Y35236D01*
X116847Y35324D01*
Y35686D01*
X116860Y35911D01*
X116872Y36123D01*
X116884Y36311D01*
X116897Y36473D01*
X116910Y36586D01*
X116922Y36661D01*
Y36686D01*
X116947Y36898D01*
X116985Y37098D01*
X117009Y37273D01*
X117047Y37436D01*
X117072Y37573D01*
X117097Y37673D01*
X117122Y37736D01*
Y37761D01*
X117184Y37948D01*
X117247Y38123D01*
X117297Y38285D01*
X117359Y38435D01*
X117409Y38548D01*
X117447Y38648D01*
X117472Y38698D01*
X117484Y38723D01*
X117659Y39048D01*
X117747Y39198D01*
X117834Y39323D01*
X117897Y39435D01*
X117959Y39510D01*
X117997Y39573D01*
X118009Y39585D01*
X122408D01*
Y35973D01*
D02*
G37*
G36*
X247624Y48208D02*
X247849Y48183D01*
X248049Y48145D01*
X248211Y48108D01*
X248349Y48070D01*
X248449Y48033D01*
X248511Y48008D01*
X248536Y47995D01*
X248711Y47908D01*
X248861Y47820D01*
X248999Y47720D01*
X249111Y47633D01*
X249211Y47558D01*
X249273Y47495D01*
X249324Y47446D01*
X249336Y47433D01*
X249448Y47296D01*
X249561Y47158D01*
X249648Y47021D01*
X249723Y46908D01*
X249786Y46796D01*
X249836Y46708D01*
X249861Y46658D01*
X249873Y46633D01*
X250023Y46296D01*
X250086Y46146D01*
X250136Y46008D01*
X250186Y45883D01*
X250223Y45796D01*
X250236Y45733D01*
X250248Y45708D01*
X250361Y45359D01*
X250411Y45209D01*
X250461Y45071D01*
X250498Y44946D01*
X250523Y44859D01*
X250548Y44809D01*
Y44784D01*
X250611Y44621D01*
X250661Y44471D01*
X250723Y44334D01*
X250773Y44221D01*
X250811Y44121D01*
X250848Y44046D01*
X250861Y43996D01*
X250873Y43984D01*
X250948Y43859D01*
X251023Y43747D01*
X251098Y43646D01*
X251161Y43572D01*
X251223Y43509D01*
X251273Y43459D01*
X251298Y43434D01*
X251311Y43422D01*
X251410Y43347D01*
X251523Y43297D01*
X251623Y43259D01*
X251723Y43234D01*
X251810Y43222D01*
X251885Y43209D01*
X251935D01*
X251948D01*
X252160Y43222D01*
X252260Y43247D01*
X252335Y43259D01*
X252398Y43284D01*
X252460Y43297D01*
X252485Y43309D01*
X252498D01*
X252673Y43397D01*
X252810Y43509D01*
X252860Y43547D01*
X252898Y43584D01*
X252910Y43609D01*
X252923Y43622D01*
X253048Y43797D01*
X253135Y43971D01*
X253172Y44034D01*
X253197Y44096D01*
X253210Y44134D01*
Y44146D01*
X253272Y44396D01*
X253298Y44521D01*
X253310Y44634D01*
X253323Y44734D01*
Y45046D01*
X253298Y45209D01*
X253285Y45346D01*
X253260Y45458D01*
X253235Y45559D01*
X253223Y45621D01*
X253197Y45671D01*
Y45683D01*
X253160Y45808D01*
X253110Y45921D01*
X253060Y46033D01*
X253022Y46121D01*
X252985Y46183D01*
X252960Y46233D01*
X252948Y46271D01*
X252935Y46283D01*
X252835Y46471D01*
X252760Y46608D01*
X252723Y46658D01*
X252710Y46696D01*
X252685Y46721D01*
Y46733D01*
X252623Y46871D01*
X252585Y46971D01*
X252573Y47046D01*
Y47071D01*
X252585Y47171D01*
X252610Y47258D01*
X252623Y47308D01*
X252635Y47321D01*
X252698Y47396D01*
X252773Y47458D01*
X252835Y47508D01*
X252848Y47520D01*
X252860D01*
X253810Y48008D01*
X254010Y47783D01*
X254172Y47558D01*
X254322Y47321D01*
X254447Y47108D01*
X254535Y46921D01*
X254572Y46833D01*
X254610Y46771D01*
X254635Y46708D01*
X254647Y46671D01*
X254660Y46646D01*
Y46633D01*
X254760Y46321D01*
X254835Y46008D01*
X254885Y45721D01*
X254922Y45446D01*
X254935Y45321D01*
X254947Y45209D01*
Y45109D01*
X254960Y45021D01*
Y44859D01*
X254947Y44546D01*
X254922Y44259D01*
X254872Y44009D01*
X254822Y43784D01*
X254772Y43597D01*
X254747Y43521D01*
X254722Y43459D01*
X254710Y43409D01*
X254697Y43372D01*
X254685Y43359D01*
Y43347D01*
X254585Y43109D01*
X254460Y42897D01*
X254347Y42709D01*
X254235Y42547D01*
X254135Y42409D01*
X254060Y42322D01*
X254010Y42259D01*
X253985Y42234D01*
X253822Y42072D01*
X253647Y41934D01*
X253485Y41822D01*
X253335Y41722D01*
X253197Y41647D01*
X253097Y41597D01*
X253022Y41560D01*
X253010Y41547D01*
X252997D01*
X252785Y41472D01*
X252585Y41422D01*
X252385Y41372D01*
X252210Y41347D01*
X252060Y41335D01*
X251935Y41322D01*
X251860D01*
X251848D01*
X251835D01*
X251573Y41335D01*
X251336Y41360D01*
X251110Y41385D01*
X250936Y41435D01*
X250786Y41472D01*
X250673Y41497D01*
X250611Y41522D01*
X250586Y41535D01*
X250411Y41622D01*
X250248Y41709D01*
X250098Y41810D01*
X249986Y41897D01*
X249886Y41972D01*
X249811Y42034D01*
X249761Y42084D01*
X249748Y42097D01*
X249623Y42234D01*
X249523Y42372D01*
X249424Y42509D01*
X249349Y42634D01*
X249286Y42734D01*
X249236Y42822D01*
X249211Y42872D01*
X249198Y42897D01*
X249049Y43234D01*
X248986Y43384D01*
X248936Y43521D01*
X248899Y43634D01*
X248861Y43734D01*
X248849Y43784D01*
X248836Y43809D01*
X248736Y44159D01*
X248686Y44309D01*
X248649Y44446D01*
X248611Y44571D01*
X248586Y44659D01*
X248561Y44709D01*
Y44734D01*
X248511Y44896D01*
X248461Y45046D01*
X248411Y45184D01*
X248361Y45309D01*
X248311Y45396D01*
X248286Y45471D01*
X248261Y45521D01*
X248249Y45533D01*
X248174Y45658D01*
X248111Y45771D01*
X248024Y45871D01*
X247961Y45946D01*
X247899Y46008D01*
X247849Y46058D01*
X247811Y46083D01*
X247799Y46096D01*
X247686Y46171D01*
X247574Y46221D01*
X247461Y46271D01*
X247349Y46296D01*
X247249Y46308D01*
X247174Y46321D01*
X247124D01*
X247099D01*
X246824Y46296D01*
X246599Y46246D01*
X246387Y46171D01*
X246224Y46083D01*
X246099Y45996D01*
X245999Y45921D01*
X245949Y45871D01*
X245924Y45846D01*
X245787Y45658D01*
X245699Y45434D01*
X245624Y45209D01*
X245574Y44996D01*
X245549Y44809D01*
X245537Y44721D01*
Y44646D01*
X245525Y44596D01*
Y44509D01*
X245537Y44309D01*
X245549Y44121D01*
X245574Y43959D01*
X245599Y43822D01*
X245624Y43709D01*
X245649Y43622D01*
X245674Y43559D01*
Y43547D01*
X245737Y43397D01*
X245787Y43272D01*
X245849Y43147D01*
X245899Y43047D01*
X245949Y42959D01*
X245987Y42897D01*
X245999Y42859D01*
X246012Y42847D01*
X246149Y42647D01*
X246199Y42559D01*
X246249Y42484D01*
X246287Y42422D01*
X246324Y42372D01*
X246337Y42347D01*
X246349Y42334D01*
X246399Y42259D01*
X246449Y42184D01*
X246487Y42059D01*
X246499Y42009D01*
X246512Y41972D01*
Y41934D01*
X246499Y41835D01*
X246474Y41747D01*
X246449Y41697D01*
X246437Y41672D01*
X246374Y41597D01*
X246324Y41535D01*
X246274Y41484D01*
X246262Y41472D01*
X245287Y40885D01*
X245062Y41122D01*
X244962Y41247D01*
X244887Y41360D01*
X244812Y41460D01*
X244762Y41535D01*
X244725Y41585D01*
X244712Y41597D01*
X244537Y41909D01*
X244450Y42047D01*
X244387Y42184D01*
X244337Y42297D01*
X244300Y42384D01*
X244275Y42434D01*
X244262Y42459D01*
X244137Y42809D01*
X244087Y42972D01*
X244050Y43109D01*
X244012Y43234D01*
X244000Y43334D01*
X243975Y43397D01*
Y43422D01*
X243912Y43797D01*
X243900Y43971D01*
X243887Y44121D01*
X243875Y44259D01*
Y44446D01*
X243887Y44771D01*
X243912Y45071D01*
X243962Y45346D01*
X244012Y45584D01*
X244050Y45783D01*
X244075Y45858D01*
X244100Y45921D01*
X244112Y45971D01*
X244125Y46008D01*
X244137Y46033D01*
Y46046D01*
X244250Y46296D01*
X244375Y46521D01*
X244500Y46721D01*
X244612Y46896D01*
X244725Y47033D01*
X244812Y47133D01*
X244862Y47196D01*
X244887Y47221D01*
X245075Y47396D01*
X245275Y47545D01*
X245462Y47670D01*
X245637Y47770D01*
X245787Y47858D01*
X245899Y47908D01*
X245949Y47933D01*
X245987Y47945D01*
X245999Y47958D01*
X246012D01*
X246249Y48045D01*
X246499Y48108D01*
X246724Y48158D01*
X246937Y48183D01*
X247124Y48208D01*
X247262Y48220D01*
X247311D01*
X247349D01*
X247374D01*
X247386D01*
X247624Y48208D01*
D02*
G37*
G36*
X254847Y38860D02*
X254822Y38773D01*
X254772Y38648D01*
X254747Y38598D01*
X254722Y38560D01*
X254710Y38535D01*
X254697Y38523D01*
X254585Y38410D01*
X254485Y38335D01*
X254410Y38298D01*
X254397Y38285D01*
X254385D01*
X247761Y35749D01*
X247511Y35649D01*
X247249Y35574D01*
X246999Y35499D01*
X246762Y35436D01*
X246562Y35386D01*
X246474Y35361D01*
X246399Y35349D01*
X246337Y35324D01*
X246287D01*
X246262Y35311D01*
X246249D01*
X246562Y35236D01*
X246699Y35199D01*
X246812Y35161D01*
X246912Y35136D01*
X246999Y35111D01*
X247049Y35086D01*
X247062D01*
X247199Y35049D01*
X247337Y34999D01*
X247449Y34961D01*
X247561Y34924D01*
X247636Y34899D01*
X247711Y34874D01*
X247749Y34849D01*
X247761D01*
X254385Y32299D01*
X254522Y32224D01*
X254622Y32149D01*
X254685Y32074D01*
X254710Y32062D01*
Y32050D01*
X254760Y31987D01*
X254785Y31912D01*
X254835Y31774D01*
Y31712D01*
X254847Y31675D01*
Y30000D01*
X244000Y34374D01*
Y36198D01*
X254847Y40585D01*
Y38860D01*
D02*
G37*
G36*
X222193Y47820D02*
X222418Y47795D01*
X222618Y47758D01*
X222781Y47720D01*
X222918Y47683D01*
X223018Y47646D01*
X223081Y47621D01*
X223106Y47608D01*
X223281Y47520D01*
X223431Y47433D01*
X223568Y47333D01*
X223680Y47246D01*
X223780Y47171D01*
X223843Y47108D01*
X223893Y47058D01*
X223905Y47046D01*
X224018Y46908D01*
X224130Y46771D01*
X224218Y46633D01*
X224293Y46521D01*
X224355Y46408D01*
X224405Y46321D01*
X224430Y46271D01*
X224443Y46246D01*
X224593Y45908D01*
X224655Y45759D01*
X224705Y45621D01*
X224755Y45496D01*
X224793Y45409D01*
X224805Y45346D01*
X224818Y45321D01*
X224930Y44971D01*
X224980Y44821D01*
X225030Y44684D01*
X225068Y44559D01*
X225093Y44471D01*
X225118Y44421D01*
Y44396D01*
X225180Y44234D01*
X225230Y44084D01*
X225293Y43946D01*
X225343Y43834D01*
X225380Y43734D01*
X225418Y43659D01*
X225430Y43609D01*
X225443Y43597D01*
X225518Y43471D01*
X225592Y43359D01*
X225667Y43259D01*
X225730Y43184D01*
X225793Y43122D01*
X225842Y43072D01*
X225867Y43047D01*
X225880Y43034D01*
X225980Y42959D01*
X226092Y42909D01*
X226192Y42872D01*
X226292Y42847D01*
X226380Y42834D01*
X226455Y42822D01*
X226505D01*
X226517D01*
X226730Y42834D01*
X226830Y42859D01*
X226905Y42872D01*
X226967Y42897D01*
X227030Y42909D01*
X227055Y42922D01*
X227067D01*
X227242Y43009D01*
X227380Y43122D01*
X227430Y43159D01*
X227467Y43197D01*
X227479Y43222D01*
X227492Y43234D01*
X227617Y43409D01*
X227705Y43584D01*
X227742Y43646D01*
X227767Y43709D01*
X227780Y43747D01*
Y43759D01*
X227842Y44009D01*
X227867Y44134D01*
X227879Y44246D01*
X227892Y44346D01*
Y44659D01*
X227867Y44821D01*
X227854Y44959D01*
X227829Y45071D01*
X227804Y45171D01*
X227792Y45234D01*
X227767Y45284D01*
Y45296D01*
X227729Y45421D01*
X227680Y45533D01*
X227630Y45646D01*
X227592Y45733D01*
X227554Y45796D01*
X227530Y45846D01*
X227517Y45883D01*
X227505Y45896D01*
X227404Y46083D01*
X227330Y46221D01*
X227292Y46271D01*
X227280Y46308D01*
X227255Y46333D01*
Y46346D01*
X227192Y46483D01*
X227155Y46583D01*
X227142Y46658D01*
Y46683D01*
X227155Y46783D01*
X227180Y46871D01*
X227192Y46921D01*
X227205Y46933D01*
X227267Y47008D01*
X227342Y47071D01*
X227404Y47121D01*
X227417Y47133D01*
X227430D01*
X228379Y47621D01*
X228579Y47396D01*
X228742Y47171D01*
X228892Y46933D01*
X229017Y46721D01*
X229104Y46533D01*
X229142Y46446D01*
X229179Y46383D01*
X229204Y46321D01*
X229217Y46283D01*
X229229Y46258D01*
Y46246D01*
X229329Y45933D01*
X229404Y45621D01*
X229454Y45334D01*
X229492Y45059D01*
X229504Y44934D01*
X229517Y44821D01*
Y44721D01*
X229529Y44634D01*
Y44471D01*
X229517Y44159D01*
X229492Y43871D01*
X229442Y43622D01*
X229391Y43397D01*
X229342Y43209D01*
X229317Y43134D01*
X229292Y43072D01*
X229279Y43022D01*
X229267Y42984D01*
X229254Y42972D01*
Y42959D01*
X229154Y42722D01*
X229029Y42509D01*
X228917Y42322D01*
X228804Y42159D01*
X228704Y42022D01*
X228629Y41934D01*
X228579Y41872D01*
X228554Y41847D01*
X228392Y41684D01*
X228217Y41547D01*
X228054Y41435D01*
X227904Y41335D01*
X227767Y41260D01*
X227667Y41210D01*
X227592Y41172D01*
X227579Y41160D01*
X227567D01*
X227355Y41085D01*
X227155Y41035D01*
X226955Y40985D01*
X226780Y40960D01*
X226630Y40947D01*
X226505Y40935D01*
X226430D01*
X226417D01*
X226405D01*
X226142Y40947D01*
X225905Y40972D01*
X225680Y40997D01*
X225505Y41047D01*
X225355Y41085D01*
X225243Y41110D01*
X225180Y41135D01*
X225155Y41147D01*
X224980Y41235D01*
X224818Y41322D01*
X224668Y41422D01*
X224555Y41509D01*
X224455Y41585D01*
X224380Y41647D01*
X224330Y41697D01*
X224318Y41709D01*
X224193Y41847D01*
X224093Y41984D01*
X223993Y42122D01*
X223918Y42247D01*
X223855Y42347D01*
X223806Y42434D01*
X223780Y42484D01*
X223768Y42509D01*
X223618Y42847D01*
X223556Y42997D01*
X223505Y43134D01*
X223468Y43247D01*
X223431Y43347D01*
X223418Y43397D01*
X223406Y43422D01*
X223306Y43772D01*
X223256Y43921D01*
X223218Y44059D01*
X223181Y44184D01*
X223156Y44271D01*
X223131Y44321D01*
Y44346D01*
X223081Y44509D01*
X223031Y44659D01*
X222981Y44796D01*
X222931Y44921D01*
X222881Y45009D01*
X222856Y45084D01*
X222831Y45134D01*
X222818Y45146D01*
X222743Y45271D01*
X222681Y45384D01*
X222593Y45483D01*
X222531Y45559D01*
X222468Y45621D01*
X222418Y45671D01*
X222381Y45696D01*
X222368Y45708D01*
X222256Y45783D01*
X222143Y45833D01*
X222031Y45883D01*
X221919Y45908D01*
X221819Y45921D01*
X221744Y45933D01*
X221693D01*
X221668D01*
X221394Y45908D01*
X221169Y45858D01*
X220956Y45783D01*
X220794Y45696D01*
X220669Y45609D01*
X220569Y45533D01*
X220519Y45483D01*
X220494Y45458D01*
X220356Y45271D01*
X220269Y45046D01*
X220194Y44821D01*
X220144Y44609D01*
X220119Y44421D01*
X220106Y44334D01*
Y44259D01*
X220094Y44209D01*
Y44121D01*
X220106Y43921D01*
X220119Y43734D01*
X220144Y43572D01*
X220169Y43434D01*
X220194Y43322D01*
X220219Y43234D01*
X220244Y43172D01*
Y43159D01*
X220306Y43009D01*
X220356Y42884D01*
X220419Y42759D01*
X220469Y42659D01*
X220519Y42572D01*
X220556Y42509D01*
X220569Y42472D01*
X220581Y42459D01*
X220719Y42259D01*
X220769Y42172D01*
X220819Y42097D01*
X220856Y42034D01*
X220894Y41984D01*
X220906Y41959D01*
X220919Y41947D01*
X220969Y41872D01*
X221019Y41797D01*
X221056Y41672D01*
X221069Y41622D01*
X221081Y41585D01*
Y41547D01*
X221069Y41447D01*
X221044Y41360D01*
X221019Y41310D01*
X221006Y41285D01*
X220944Y41210D01*
X220894Y41147D01*
X220844Y41097D01*
X220831Y41085D01*
X219856Y40497D01*
X219632Y40735D01*
X219532Y40860D01*
X219457Y40972D01*
X219382Y41072D01*
X219332Y41147D01*
X219294Y41197D01*
X219282Y41210D01*
X219107Y41522D01*
X219019Y41659D01*
X218957Y41797D01*
X218907Y41909D01*
X218869Y41997D01*
X218844Y42047D01*
X218832Y42072D01*
X218707Y42422D01*
X218657Y42584D01*
X218619Y42722D01*
X218582Y42847D01*
X218569Y42947D01*
X218544Y43009D01*
Y43034D01*
X218482Y43409D01*
X218469Y43584D01*
X218457Y43734D01*
X218444Y43871D01*
Y44059D01*
X218457Y44384D01*
X218482Y44684D01*
X218532Y44959D01*
X218582Y45196D01*
X218619Y45396D01*
X218644Y45471D01*
X218669Y45533D01*
X218682Y45584D01*
X218694Y45621D01*
X218707Y45646D01*
Y45658D01*
X218819Y45908D01*
X218944Y46133D01*
X219069Y46333D01*
X219182Y46508D01*
X219294Y46646D01*
X219382Y46746D01*
X219432Y46808D01*
X219457Y46833D01*
X219644Y47008D01*
X219844Y47158D01*
X220031Y47283D01*
X220206Y47383D01*
X220356Y47470D01*
X220469Y47520D01*
X220519Y47545D01*
X220556Y47558D01*
X220569Y47571D01*
X220581D01*
X220819Y47658D01*
X221069Y47720D01*
X221294Y47770D01*
X221506Y47795D01*
X221693Y47820D01*
X221831Y47833D01*
X221881D01*
X221919D01*
X221943D01*
X221956D01*
X222193Y47820D01*
D02*
G37*
G36*
X229417Y37098D02*
X224743D01*
Y32037D01*
X229417D01*
Y30000D01*
X218569D01*
Y32037D01*
X223306D01*
Y37098D01*
X218569D01*
Y39135D01*
X229417D01*
Y37098D01*
D02*
G37*
G36*
X232168Y182438D02*
X232224D01*
X232946Y182160D01*
X233612Y181827D01*
X233835Y181660D01*
X234001Y181549D01*
X234112Y181493D01*
X234168Y181438D01*
X234557Y181105D01*
X234835Y180771D01*
X235335Y180049D01*
X235668Y179272D01*
X235835Y178605D01*
X235946Y177994D01*
Y177494D01*
Y177161D01*
Y177105D01*
Y177050D01*
X235835Y176438D01*
X235668Y175883D01*
X235446Y175438D01*
X235168Y174994D01*
X234946Y174661D01*
X234723Y174439D01*
X234612Y174272D01*
X234557Y174216D01*
X234168Y173772D01*
Y170439D01*
Y167106D01*
X228002D01*
Y170439D01*
Y173772D01*
X227613Y174216D01*
X227113Y174883D01*
X226724Y175494D01*
X226613Y175716D01*
X226558Y175938D01*
X226502Y176050D01*
Y176105D01*
X226391Y176549D01*
X226280Y176994D01*
X226224Y177772D01*
X226280Y178105D01*
Y178383D01*
X226336Y178549D01*
Y178605D01*
X226447Y179105D01*
X226613Y179549D01*
X226835Y179994D01*
X227002Y180327D01*
X227224Y180605D01*
X227391Y180827D01*
X227502Y180938D01*
X227558Y180993D01*
X227946Y181327D01*
X228335Y181605D01*
X229058Y182049D01*
X229391Y182160D01*
X229669Y182271D01*
X229835Y182327D01*
X229891D01*
X230779Y182493D01*
X232002D01*
X232168Y182438D01*
D02*
G37*
G36*
X215448D02*
X215948Y182327D01*
X216392Y182216D01*
X216781Y182049D01*
X217059Y181882D01*
X217281Y181827D01*
X217336Y181771D01*
X217836Y181438D01*
X218281Y181049D01*
X218614Y180660D01*
X218947Y180216D01*
X219170Y179883D01*
X219336Y179605D01*
X219392Y179383D01*
X219447Y179327D01*
X219669Y178549D01*
X219725Y177827D01*
Y177105D01*
X219614Y176494D01*
X219447Y175994D01*
X219336Y175605D01*
X219225Y175383D01*
X219170Y175272D01*
X218836Y174716D01*
X218447Y174328D01*
X218225Y174050D01*
X218114Y173994D01*
X217892Y173772D01*
Y170439D01*
Y167106D01*
X211837D01*
Y170439D01*
Y173772D01*
X211337Y174216D01*
X210893Y174772D01*
X210559Y175327D01*
X210282Y175883D01*
X210115Y176438D01*
X210004Y176883D01*
X209948Y177272D01*
Y177494D01*
Y177605D01*
X210004Y178327D01*
X210170Y178994D01*
X210448Y179549D01*
X210671Y180105D01*
X210948Y180494D01*
X211226Y180771D01*
X211393Y180993D01*
X211448Y181049D01*
X211893Y181438D01*
X212393Y181771D01*
X212837Y182049D01*
X213281Y182216D01*
X213670Y182382D01*
X214004Y182438D01*
X214226Y182493D01*
X214892D01*
X215448Y182438D01*
D02*
G37*
G36*
X199672Y182382D02*
X200116Y182271D01*
X200505Y182104D01*
X200783Y181993D01*
X200949Y181938D01*
X201005Y181882D01*
X201449Y181549D01*
X201894Y181216D01*
X202227Y180827D01*
X202505Y180494D01*
X202782Y180160D01*
X202949Y179883D01*
X203005Y179716D01*
X203060Y179660D01*
X203338Y178938D01*
X203449Y178272D01*
X203505Y177994D01*
Y177772D01*
Y177605D01*
Y177549D01*
X203449Y177050D01*
X203393Y176605D01*
X203338Y176383D01*
Y176272D01*
X202949Y175383D01*
X202782Y174994D01*
X202560Y174661D01*
X202338Y174383D01*
X202227Y174216D01*
X202116Y174105D01*
X202060Y174050D01*
X201616Y173772D01*
Y170439D01*
Y167106D01*
X195616D01*
Y170439D01*
Y173772D01*
X195228Y174050D01*
X194728Y174661D01*
X194394Y175272D01*
X194117Y175827D01*
X193950Y176438D01*
X193839Y176938D01*
X193783Y177327D01*
Y177549D01*
Y177661D01*
X193839Y178327D01*
X193950Y178938D01*
X194172Y179494D01*
X194394Y179938D01*
X194617Y180327D01*
X194839Y180660D01*
X194950Y180827D01*
X195005Y180882D01*
X195505Y181327D01*
X196005Y181716D01*
X196505Y181993D01*
X196950Y182216D01*
X197394Y182327D01*
X197727Y182438D01*
X197950Y182493D01*
X199172D01*
X199672Y182382D01*
D02*
G37*
G36*
X210671Y165828D02*
X211448Y165717D01*
X212115Y165606D01*
X212615Y165440D01*
X212948Y165384D01*
X213004Y165329D01*
X213059D01*
X213670Y165106D01*
X214226Y164773D01*
X214670Y164440D01*
X215114Y164106D01*
X215448Y163829D01*
X215670Y163551D01*
X215837Y163384D01*
X215892Y163329D01*
X216059Y163051D01*
X216114Y163218D01*
X216448Y163606D01*
X216781Y163995D01*
X217170Y164273D01*
X217503Y164495D01*
X217781Y164717D01*
X218003Y164828D01*
X218170Y164940D01*
X218225D01*
X219003Y165273D01*
X219725Y165440D01*
X220058Y165495D01*
X220336Y165551D01*
X220669D01*
X220892Y165606D01*
X221447D01*
X222169Y165662D01*
X225947D01*
X226613Y165606D01*
X228502D01*
X228780Y165551D01*
X231113D01*
X231613Y165606D01*
X233779D01*
X234224Y165662D01*
X239001D01*
X239445Y165606D01*
X240667D01*
X240945Y165551D01*
X241167D01*
X241667Y165495D01*
X242056Y165329D01*
X242278Y165217D01*
X242334Y165162D01*
X242556Y164884D01*
X242723Y164551D01*
X242889Y163717D01*
X242945Y163329D01*
X243001Y163051D01*
Y162829D01*
Y162718D01*
Y161773D01*
X244334D01*
X244722Y161718D01*
X245056Y161662D01*
X245333Y161607D01*
X245556Y161551D01*
X245722Y161495D01*
X245778Y161440D01*
X245833D01*
X246333Y161162D01*
X246667Y160829D01*
X247000Y160440D01*
X247167Y160051D01*
X247333Y159718D01*
X247389Y159440D01*
X247444Y159218D01*
Y159162D01*
Y159107D01*
Y158940D01*
Y158663D01*
Y158329D01*
Y157940D01*
Y157496D01*
Y156940D01*
X247500Y156385D01*
Y155107D01*
Y153719D01*
Y152219D01*
Y150663D01*
Y149164D01*
Y147664D01*
Y146275D01*
Y145053D01*
Y144497D01*
Y143997D01*
Y143553D01*
Y143220D01*
Y142886D01*
Y142664D01*
Y142553D01*
Y142498D01*
Y126166D01*
X247333Y125833D01*
X247056Y125277D01*
X246778Y124833D01*
X246389Y124499D01*
X246056Y124222D01*
X245722Y124055D01*
X245445Y123944D01*
X245222Y123833D01*
X244334D01*
X243778Y123777D01*
X235446D01*
X232724Y123722D01*
X194561D01*
X193283Y123777D01*
X185895D01*
X185562Y123833D01*
X184562D01*
X183951Y124055D01*
X183451Y124388D01*
X183062Y124722D01*
X182729Y125110D01*
X182562Y125444D01*
X182396Y125722D01*
X182285Y125944D01*
Y125999D01*
Y126055D01*
Y126221D01*
Y126499D01*
Y126833D01*
Y127221D01*
Y127666D01*
X182229Y128166D01*
Y128721D01*
Y129999D01*
Y131443D01*
Y132943D01*
Y134443D01*
Y135998D01*
Y137498D01*
Y138887D01*
Y140109D01*
Y140664D01*
Y141164D01*
Y141609D01*
Y141942D01*
Y142275D01*
Y142498D01*
Y142609D01*
Y142664D01*
Y144164D01*
Y145553D01*
Y146830D01*
Y148053D01*
Y149219D01*
Y150274D01*
Y151274D01*
Y152163D01*
Y152996D01*
Y153774D01*
Y154496D01*
Y155107D01*
Y155718D01*
Y156218D01*
Y157107D01*
X182285Y157829D01*
Y158385D01*
Y158774D01*
Y159051D01*
Y159218D01*
Y159274D01*
Y159329D01*
X182396Y159829D01*
X182618Y160273D01*
X182896Y160662D01*
X183118Y160940D01*
X183396Y161162D01*
X183618Y161329D01*
X183784Y161440D01*
X183840D01*
X184173Y161551D01*
X184673Y161662D01*
X185284Y161718D01*
X185895D01*
X186451Y161773D01*
X189895D01*
X190228Y163162D01*
X190339Y163606D01*
X190450Y163995D01*
X190506Y164217D01*
X190561Y164384D01*
Y164495D01*
X190617Y164551D01*
Y164606D01*
X190784Y164884D01*
X191006Y165106D01*
X191228Y165273D01*
X191284Y165329D01*
X191395Y165384D01*
X191561Y165440D01*
X192061Y165551D01*
X192672Y165606D01*
X193339D01*
X193950Y165662D01*
X196172D01*
X196672Y165606D01*
X197061D01*
X197727Y165551D01*
X198227Y165495D01*
X198561Y165440D01*
X198783Y165384D01*
X198838Y165329D01*
X198894D01*
X199116Y165162D01*
X199283Y164884D01*
X199561Y164273D01*
X199672Y163995D01*
X199783Y163717D01*
X199838Y163551D01*
Y163495D01*
X199949Y163106D01*
X200005Y162773D01*
X200116Y162495D01*
Y162273D01*
X200172Y162162D01*
Y162051D01*
Y161996D01*
X200227Y161773D01*
X202060D01*
X202171Y162273D01*
X202560Y162940D01*
X202949Y163440D01*
X203116Y163662D01*
X203282Y163829D01*
X203338Y163884D01*
X203393Y163940D01*
X203949Y164440D01*
X204504Y164828D01*
X204782Y164940D01*
X204949Y165051D01*
X205060Y165162D01*
X205116D01*
X206060Y165495D01*
X206560Y165662D01*
X207004Y165717D01*
X207393Y165828D01*
X207726D01*
X207948Y165884D01*
X208004D01*
X208948Y165940D01*
X209837D01*
X210671Y165828D01*
D02*
G37*
G36*
X234168Y115112D02*
Y111834D01*
X234557Y111334D01*
X234946Y110890D01*
X235279Y110390D01*
X235557Y109890D01*
X235723Y109445D01*
X235835Y109057D01*
X235890Y108779D01*
X235946Y108557D01*
Y108501D01*
Y107668D01*
X235835Y106890D01*
X235612Y106223D01*
X235390Y105668D01*
X235112Y105168D01*
X234890Y104835D01*
X234723Y104557D01*
X234668Y104501D01*
X234224Y104168D01*
X233779Y103835D01*
X233390Y103613D01*
X233001Y103446D01*
X232668Y103335D01*
X232390Y103224D01*
X232224Y103168D01*
X232168D01*
X231724Y103113D01*
X231335Y103057D01*
X230946D01*
X230168Y103168D01*
X229502Y103335D01*
X229280Y103446D01*
X229058Y103502D01*
X228946Y103557D01*
X228891D01*
X228169Y104002D01*
X227613Y104557D01*
X227169Y105112D01*
X226835Y105668D01*
X226613Y106168D01*
X226447Y106557D01*
X226336Y106834D01*
Y106946D01*
X226280Y107446D01*
X226224Y107890D01*
Y108279D01*
X226280Y108668D01*
Y108945D01*
X226336Y109168D01*
X226391Y109334D01*
Y109390D01*
X226835Y110279D01*
X227058Y110612D01*
X227280Y110945D01*
X227446Y111223D01*
X227613Y111390D01*
X227724Y111501D01*
X227780Y111556D01*
X228002Y111834D01*
Y115112D01*
Y118444D01*
X234168D01*
Y115112D01*
D02*
G37*
G36*
X217892D02*
Y111834D01*
X218392Y111334D01*
X218781Y110890D01*
X219058Y110445D01*
X219281Y110001D01*
X219447Y109557D01*
X219558Y109223D01*
X219614Y108945D01*
X219669Y108723D01*
Y108668D01*
X219725Y107945D01*
X219669Y107279D01*
X219558Y106723D01*
X219392Y106168D01*
X219225Y105779D01*
X219058Y105446D01*
X218947Y105224D01*
X218892Y105168D01*
X218447Y104613D01*
X217948Y104168D01*
X217447Y103835D01*
X216948Y103557D01*
X216559Y103390D01*
X216170Y103279D01*
X215948Y103168D01*
X215892D01*
X215448Y103113D01*
X215059Y103057D01*
X214337Y103113D01*
X214004D01*
X213781Y103168D01*
X213670Y103224D01*
X213615D01*
X212948Y103446D01*
X212337Y103779D01*
X211893Y104113D01*
X211448Y104501D01*
X211115Y104835D01*
X210893Y105112D01*
X210782Y105335D01*
X210726Y105390D01*
X210393Y106001D01*
X210170Y106668D01*
X210059Y107279D01*
X210004Y107834D01*
Y108279D01*
Y108668D01*
X210059Y108890D01*
Y109001D01*
X210226Y109501D01*
X210448Y110001D01*
X210671Y110445D01*
X210893Y110779D01*
X211115Y111112D01*
X211337Y111334D01*
X211448Y111445D01*
X211504Y111501D01*
X211837Y111834D01*
Y115056D01*
Y118389D01*
X214837D01*
X217892Y118444D01*
Y115112D01*
D02*
G37*
G36*
X201616D02*
Y111834D01*
X202060Y111501D01*
X202616Y110723D01*
X203005Y110001D01*
X203171Y109723D01*
X203282Y109501D01*
X203338Y109334D01*
Y109279D01*
X203449Y108557D01*
X203505Y107834D01*
X203449Y107168D01*
X203282Y106612D01*
X203116Y106112D01*
X203005Y105779D01*
X202894Y105557D01*
X202838Y105446D01*
X202393Y104835D01*
X201838Y104335D01*
X201338Y103946D01*
X200783Y103613D01*
X200338Y103390D01*
X199949Y103279D01*
X199727Y103168D01*
X199616D01*
X199172Y103113D01*
X198783Y103057D01*
X198061Y103113D01*
X197727D01*
X197505Y103168D01*
X197394Y103224D01*
X197339D01*
X196672Y103446D01*
X196116Y103779D01*
X195616Y104168D01*
X195228Y104557D01*
X194894Y104890D01*
X194617Y105224D01*
X194506Y105446D01*
X194450Y105501D01*
X194117Y106168D01*
X193894Y106779D01*
X193783Y107390D01*
X193728Y107945D01*
Y108446D01*
X193783Y108779D01*
X193839Y109057D01*
Y109112D01*
X194006Y109612D01*
X194228Y110056D01*
X194450Y110445D01*
X194672Y110779D01*
X194894Y111056D01*
X195061Y111223D01*
X195172Y111334D01*
X195228Y111390D01*
X195616Y111834D01*
Y115112D01*
Y118444D01*
X201616D01*
Y115112D01*
D02*
G37*
G36*
X130032Y187296D02*
X130365Y187241D01*
X130532Y187129D01*
X130698Y186963D01*
X130754Y186796D01*
Y186685D01*
Y186629D01*
Y186574D01*
X130643Y185963D01*
X130532Y185407D01*
Y185185D01*
X130476Y185019D01*
Y184907D01*
Y184852D01*
X130421Y184296D01*
Y183741D01*
X130476Y183130D01*
Y182630D01*
X130532Y182130D01*
Y181741D01*
X130587Y181519D01*
Y181408D01*
X130754Y180908D01*
X130976Y180408D01*
X131254Y179963D01*
X131531Y179575D01*
X131809Y179297D01*
X132031Y179075D01*
X132198Y178908D01*
X132254Y178852D01*
X133142Y178130D01*
X133531Y177853D01*
X133865Y177575D01*
X134087Y177353D01*
X134309Y177186D01*
X134420Y177130D01*
X134476Y177075D01*
X135253Y176464D01*
X136031Y175908D01*
X136309Y175631D01*
X136587Y175464D01*
X136753Y175353D01*
X136809Y175297D01*
X137753Y174686D01*
X138142Y174464D01*
X138531Y174242D01*
X138808Y174075D01*
X139031Y174020D01*
X139197Y173909D01*
X139253D01*
X140031Y173575D01*
X140753Y173353D01*
X141308Y173298D01*
X141808Y173242D01*
X142142D01*
X142419Y173298D01*
X142586Y173353D01*
X142641D01*
X143086Y173520D01*
X143586Y173686D01*
X144641Y173853D01*
X145086Y173909D01*
X146530D01*
X147197Y173853D01*
X147808Y173797D01*
X148308Y173686D01*
X148752Y173575D01*
X149030Y173520D01*
X149252Y173464D01*
X149307Y173409D01*
X150363Y173020D01*
X150863Y172798D01*
X151252Y172631D01*
X151585Y172520D01*
X151863Y172409D01*
X152029Y172298D01*
X152085D01*
X152474Y172131D01*
X152807Y171909D01*
X153363Y171520D01*
X153751Y171075D01*
X153974Y170687D01*
X154140Y170298D01*
X154196Y170020D01*
Y169798D01*
Y169742D01*
X154140Y169187D01*
X154196Y168631D01*
X154251Y168131D01*
X154362Y167687D01*
X154474Y167298D01*
X154585Y167020D01*
X154640Y166854D01*
X154696Y166798D01*
X167472Y163687D01*
X167806Y163243D01*
Y162799D01*
X167694Y162410D01*
X167639Y162076D01*
X167472Y161799D01*
X167139Y161465D01*
X166750Y161243D01*
X166417Y161132D01*
X166084D01*
X165861Y161188D01*
X165750D01*
X165028Y161410D01*
X164361Y161632D01*
X163750Y161854D01*
X163306Y162076D01*
X162917Y162243D01*
X162584Y162354D01*
X162417Y162410D01*
X162362Y162465D01*
X162251Y162521D01*
X162084D01*
X161639Y162687D01*
X161140Y162799D01*
X160529Y162965D01*
X160029Y163132D01*
X159529Y163298D01*
X159195Y163354D01*
X159140Y163410D01*
X159084D01*
X158084Y163687D01*
X157307Y163910D01*
X156696Y164076D01*
X156251Y164187D01*
X155918Y164243D01*
X155696Y164298D01*
X155585D01*
X155029Y164354D01*
X154529Y164465D01*
X154085Y164576D01*
X153696Y164632D01*
X153418Y164743D01*
X153196Y164909D01*
X152807Y165132D01*
X152640Y165354D01*
X152529Y165520D01*
Y165632D01*
Y165687D01*
Y166131D01*
X152474Y166632D01*
X152307Y167187D01*
X152085Y167687D01*
X151863Y168131D01*
X151641Y168520D01*
X151529Y168742D01*
X151474Y168853D01*
X151196Y169242D01*
X150807Y169631D01*
X150030Y170187D01*
X149641Y170409D01*
X149363Y170576D01*
X149141Y170631D01*
X149085Y170687D01*
X147808Y171131D01*
X147252Y171298D01*
X146697Y171464D01*
X146252Y171575D01*
X145919Y171631D01*
X145697Y171686D01*
X145641D01*
X144808Y171798D01*
X144141Y171853D01*
X143530D01*
X143030Y171742D01*
X142641Y171686D01*
X142364Y171575D01*
X142197Y171520D01*
X142142Y171464D01*
X141642Y171298D01*
X141031Y171242D01*
X140475Y171353D01*
X139864Y171464D01*
X139364Y171631D01*
X138975Y171798D01*
X138697Y171909D01*
X138586Y171964D01*
X137975Y172242D01*
X137475Y172520D01*
X136975Y172798D01*
X136587Y173020D01*
X136198Y173186D01*
X135976Y173353D01*
X135809Y173409D01*
X135753Y173464D01*
X134809Y174075D01*
X134365Y174353D01*
X133920Y174631D01*
X133587Y174908D01*
X133309Y175075D01*
X133142Y175186D01*
X133087Y175242D01*
X132809Y175408D01*
X132420Y175686D01*
X131976Y175964D01*
X131531Y176242D01*
X131143Y176519D01*
X130754Y176797D01*
X130532Y176964D01*
X130421Y177019D01*
X129698Y177519D01*
X129143Y177908D01*
X128699Y178241D01*
X128365Y178464D01*
X128143Y178630D01*
X127976Y178741D01*
X127865Y178797D01*
X127421Y179297D01*
X127143Y179797D01*
X126921Y180297D01*
X126754Y180741D01*
X126699Y181130D01*
X126643Y181408D01*
Y181630D01*
Y181686D01*
X126754Y182963D01*
X126810Y183574D01*
X126921Y184130D01*
X126976Y184574D01*
X127087Y184963D01*
X127143Y185185D01*
Y185296D01*
X126143D01*
X125254Y185185D01*
X124532Y185074D01*
X123921Y184963D01*
X123477Y184852D01*
X123144Y184741D01*
X122921Y184685D01*
X122866Y184630D01*
X121699Y184130D01*
X121144Y183908D01*
X120644Y183741D01*
X120144Y183574D01*
X119810Y183463D01*
X119588Y183407D01*
X119477Y183352D01*
X119088Y183185D01*
X118644Y182908D01*
X117811Y182297D01*
X117422Y182019D01*
X117144Y181741D01*
X116922Y181574D01*
X116866Y181519D01*
X116255Y181019D01*
X115700Y180630D01*
X115144Y180297D01*
X114700Y180019D01*
X114256Y179797D01*
X113978Y179686D01*
X113756Y179575D01*
X113700D01*
X112367Y179130D01*
X111700Y178964D01*
X111145Y178797D01*
X110645Y178686D01*
X110311Y178575D01*
X110034Y178519D01*
X109978D01*
X108534Y178241D01*
X107867Y178130D01*
X107256Y177964D01*
X106701Y177908D01*
X106312Y177797D01*
X106034Y177742D01*
X105923D01*
X105201Y177575D01*
X104534Y177353D01*
X103923Y177186D01*
X103368Y177019D01*
X102923Y176853D01*
X102590Y176686D01*
X102368Y176630D01*
X102312Y176575D01*
X101035Y176075D01*
X100479Y175853D01*
X99924Y175631D01*
X99479Y175464D01*
X99146Y175353D01*
X98868Y175297D01*
X98813Y175242D01*
X98257Y175019D01*
X97646Y174797D01*
X96980Y174575D01*
X96313Y174464D01*
X95757Y174297D01*
X95313Y174186D01*
X94980Y174131D01*
X94869D01*
X93924Y173964D01*
X93202Y173797D01*
X92536Y173686D01*
X92036Y173520D01*
X91702Y173409D01*
X91425Y173297D01*
X91313Y173186D01*
X91258D01*
X89203Y171853D01*
X88258Y171187D01*
X87369Y170576D01*
X86592Y170076D01*
X85981Y169687D01*
X85758Y169520D01*
X85592Y169409D01*
X85536Y169298D01*
X85481D01*
X84814Y168742D01*
X84259Y168298D01*
X83814Y167965D01*
X83425Y167687D01*
X83148Y167465D01*
X82926Y167354D01*
X82814Y167243D01*
X82759D01*
X82314Y167076D01*
X81703Y166965D01*
X81037Y166854D01*
X80315Y166798D01*
X79648Y166743D01*
X79092Y166687D01*
X78593D01*
X77926Y166632D01*
X77426Y166576D01*
X76148D01*
X75926Y166520D01*
X75315Y166243D01*
X75037Y166076D01*
X74815Y165965D01*
X74648Y165854D01*
X74593Y165798D01*
X74426Y165687D01*
X74204Y165576D01*
X73649Y165298D01*
X73426Y165187D01*
X73204Y165132D01*
X73038Y165021D01*
X72982D01*
X72538Y164854D01*
X72093Y164743D01*
X71760Y164632D01*
X71482Y164576D01*
X71316D01*
X71149Y164521D01*
X69316D01*
X65483Y164743D01*
X65372Y164632D01*
X65261Y164854D01*
Y165076D01*
X65316Y165409D01*
X65483Y165687D01*
X65761Y165798D01*
X66038Y165909D01*
X66316Y165965D01*
X67260D01*
X67816Y165909D01*
X70927D01*
X71538Y165965D01*
X72093Y166076D01*
X72593Y166187D01*
X72982Y166409D01*
X73315Y166576D01*
X73538Y166687D01*
X73704Y166798D01*
X73760Y166854D01*
X74204Y167187D01*
X74704Y167409D01*
X75204Y167631D01*
X75704Y167743D01*
X76148Y167798D01*
X76537Y167854D01*
X78426D01*
X79092Y167909D01*
X80148D01*
X80481Y167965D01*
X80759D01*
X81314Y168076D01*
X81870Y168187D01*
X82370Y168409D01*
X82759Y168631D01*
X83092Y168853D01*
X83314Y169020D01*
X83481Y169131D01*
X83537Y169187D01*
X84203Y169687D01*
X84981Y170298D01*
X85814Y170853D01*
X86592Y171409D01*
X87258Y171909D01*
X87869Y172297D01*
X88092Y172464D01*
X88203Y172575D01*
X88314Y172686D01*
X88369D01*
X89480Y173409D01*
X90480Y174020D01*
X91369Y174464D01*
X92147Y174797D01*
X92758Y175019D01*
X93202Y175131D01*
X93480Y175242D01*
X93591D01*
X94980Y175464D01*
X96257Y175686D01*
X97368Y175964D01*
X98313Y176297D01*
X99090Y176519D01*
X99646Y176742D01*
X99868Y176853D01*
X100035Y176908D01*
X100090Y176964D01*
X100146D01*
X101146Y177408D01*
X102201Y177797D01*
X103201Y178130D01*
X104090Y178408D01*
X104868Y178630D01*
X105479Y178797D01*
X105701Y178852D01*
X105868D01*
X105979Y178908D01*
X106034D01*
X106867Y179075D01*
X107645Y179186D01*
X108312Y179352D01*
X108978Y179464D01*
X109534Y179575D01*
X110089Y179686D01*
X110978Y179908D01*
X111700Y180075D01*
X112145Y180186D01*
X112422Y180297D01*
X112534D01*
X113311Y180630D01*
X114144Y181074D01*
X114978Y181630D01*
X115755Y182185D01*
X116477Y182741D01*
X117033Y183185D01*
X117255Y183352D01*
X117422Y183463D01*
X117477Y183574D01*
X117533D01*
X117811Y183741D01*
X118144Y183963D01*
X118977Y184407D01*
X119366Y184630D01*
X119699Y184796D01*
X119922Y184907D01*
X119977Y184963D01*
X120644Y185296D01*
X121199Y185630D01*
X121644Y185852D01*
X122032Y186018D01*
X122310Y186129D01*
X122532Y186185D01*
X122643Y186241D01*
X122699D01*
X123921Y186518D01*
X124532Y186629D01*
X125032Y186740D01*
X125532Y186852D01*
X125865Y186907D01*
X126088Y186963D01*
X126199D01*
X126865Y187074D01*
X127532Y187185D01*
X128143Y187241D01*
X128643Y187296D01*
X129032Y187352D01*
X129643D01*
X130032Y187296D01*
D02*
G37*
G36*
X98257Y161799D02*
X98368D01*
Y161688D01*
X98479Y161521D01*
X98590Y160965D01*
Y157188D01*
X98479Y156966D01*
X98368Y156855D01*
Y156744D01*
X98146Y156632D01*
X97813Y156521D01*
X97479D01*
X97202Y156632D01*
X97091Y156744D01*
Y156855D01*
X96980Y157077D01*
X96868Y157188D01*
X96757Y157521D01*
X96646Y158021D01*
X96535Y158466D01*
X96424Y159021D01*
Y160965D01*
X96535Y161299D01*
X96646Y161410D01*
X96757Y161521D01*
X96868Y161688D01*
X97091Y161799D01*
X97202D01*
X97479Y161910D01*
X98146D01*
X98257Y161799D01*
D02*
G37*
G36*
X101924D02*
X102146D01*
X102257Y161688D01*
X102368Y161299D01*
Y160965D01*
X102257Y159354D01*
X102146Y158577D01*
X102035Y157910D01*
X101924Y157299D01*
X101812Y156744D01*
Y156188D01*
X101701Y156077D01*
X101535Y155966D01*
X100646D01*
X100424Y156077D01*
X100202Y156188D01*
X100090D01*
X99979Y156299D01*
Y158132D01*
X100090Y160854D01*
X100202Y161632D01*
X100313Y161688D01*
X100424Y161799D01*
X100646Y161910D01*
X101590D01*
X101924Y161799D01*
D02*
G37*
G36*
X106590Y163465D02*
Y163354D01*
X106701Y163132D01*
X106812D01*
X106923Y163021D01*
X107034Y162576D01*
Y160854D01*
X106923Y159243D01*
X106812Y158355D01*
X106701Y157632D01*
X106590Y156855D01*
Y156410D01*
X106479Y156077D01*
X106368Y155633D01*
X106256Y155466D01*
X106145Y155133D01*
X106034Y154688D01*
X105923Y154466D01*
X105812Y154355D01*
X104423D01*
X104312Y154466D01*
X104201Y154577D01*
X104090Y154688D01*
X103979Y154799D01*
Y155633D01*
X104090Y155966D01*
X104201Y156188D01*
X104312Y156521D01*
X104423Y157188D01*
X104534Y157632D01*
Y157910D01*
X104645Y158355D01*
X104756Y158688D01*
X104868Y159632D01*
X104979Y162021D01*
X105090Y162910D01*
X105201Y163132D01*
Y163243D01*
X105312Y163354D01*
X105423Y163465D01*
X105534Y163576D01*
X106479D01*
X106590Y163465D01*
D02*
G37*
G36*
X111978Y161910D02*
X111867Y160521D01*
X111756Y159243D01*
X111645Y157910D01*
X111589Y156744D01*
X111478Y155022D01*
X111367Y154799D01*
X111256Y154688D01*
Y154577D01*
X111145Y154466D01*
X110923Y154355D01*
X110812D01*
X110589Y154244D01*
X110367Y154133D01*
X110145Y154022D01*
X109812Y153911D01*
X109312D01*
X109200Y154022D01*
X109089Y154244D01*
Y154799D01*
X109200Y155855D01*
X109312Y157632D01*
Y158466D01*
X109423Y159354D01*
X109534Y160188D01*
X109589Y160854D01*
X109700Y161410D01*
X109812Y162021D01*
Y162243D01*
X109923Y162354D01*
X110034Y162465D01*
X110145Y162576D01*
X110256Y162687D01*
X110367Y162799D01*
X111034Y162910D01*
X111978D01*
Y161910D01*
D02*
G37*
G36*
X120533Y163243D02*
Y161799D01*
X120422Y160743D01*
X120310Y159743D01*
X120199Y158688D01*
X120088Y156744D01*
X119977Y155577D01*
X119866Y154355D01*
X119755Y153522D01*
X119588Y153411D01*
X118477D01*
X118255Y153522D01*
X118144Y153688D01*
Y156299D01*
X118255Y158021D01*
X118366Y160632D01*
X118477Y162132D01*
Y162687D01*
X118588Y162799D01*
X118700Y162910D01*
X118922Y163021D01*
X119255Y163132D01*
X119588D01*
X119866Y163243D01*
X120199Y163354D01*
X120422D01*
X120533Y163243D01*
D02*
G37*
G36*
X117200Y161799D02*
Y161410D01*
X117089Y159743D01*
X116978Y159021D01*
X116866Y157910D01*
X116755Y157299D01*
Y156410D01*
X116644Y155355D01*
X116533Y154355D01*
X116422Y153688D01*
X116311Y153522D01*
X116200Y153411D01*
X115978Y153300D01*
X114700D01*
X114589Y153411D01*
Y153522D01*
Y153688D01*
Y154355D01*
X114700Y155244D01*
X114811Y157521D01*
X114922Y158577D01*
X115033Y159632D01*
X115144Y160410D01*
X115255Y161910D01*
X117089D01*
X117200Y161799D01*
D02*
G37*
G36*
X105812Y142912D02*
X105923Y142690D01*
Y142023D01*
X105812Y141523D01*
Y141190D01*
X105701Y140856D01*
X105590Y140412D01*
X105534Y139745D01*
X105423Y139245D01*
X105312Y138690D01*
X105201Y137523D01*
Y136524D01*
X105090Y136412D01*
X104979Y136301D01*
X104756Y136190D01*
X104534D01*
X104423Y136079D01*
X104090Y135968D01*
X103479D01*
X103368Y136079D01*
X103257Y136301D01*
Y138468D01*
X103368Y139857D01*
X103479Y140745D01*
X103534Y141301D01*
X103645Y141801D01*
X103757Y142134D01*
Y142690D01*
X103868Y142912D01*
X103979Y143023D01*
X105812D01*
Y142912D01*
D02*
G37*
G36*
X84092Y141190D02*
X84314Y141079D01*
X84425D01*
X84648Y140968D01*
X84759Y140856D01*
X84870Y140634D01*
Y139523D01*
X84759Y139023D01*
X84648Y138690D01*
Y138245D01*
X84536Y138023D01*
X84425Y137523D01*
X84314Y137190D01*
X84203Y136968D01*
X84092Y136746D01*
Y136524D01*
X83981Y136301D01*
X83870Y136079D01*
X83759Y135968D01*
X83648Y135857D01*
X83537Y135746D01*
X83037D01*
X82148Y135857D01*
X81814Y135968D01*
Y136301D01*
X81926Y136524D01*
X82037Y136746D01*
X82148Y136857D01*
Y137079D01*
X82259Y137190D01*
X82370Y137412D01*
X82481Y137523D01*
X82592Y137579D01*
X82703Y138023D01*
Y138912D01*
X82814Y139634D01*
X82926Y140412D01*
X83037Y140968D01*
X83148Y141079D01*
X83259Y141190D01*
X83370Y141301D01*
X83759D01*
X84092Y141190D01*
D02*
G37*
G36*
X88203Y140968D02*
X88314Y140856D01*
Y140634D01*
Y140190D01*
Y139023D01*
X88203Y138468D01*
X88092Y138023D01*
X87980Y137523D01*
X87869Y137190D01*
X87758Y136857D01*
X87647Y136524D01*
X87536Y136190D01*
X87425Y136079D01*
Y135968D01*
X87369Y135746D01*
X87258Y135635D01*
X86036D01*
X85481Y135746D01*
Y136190D01*
Y136412D01*
X85592Y136635D01*
X85703Y136857D01*
X85814Y137079D01*
X85925Y137301D01*
X86036Y138468D01*
Y140412D01*
X86147Y140856D01*
X86481Y140968D01*
X86814Y141079D01*
X87758D01*
X88203Y140968D01*
D02*
G37*
G36*
X80759Y141412D02*
X80870Y141301D01*
X81092Y141190D01*
X81203Y141079D01*
X81314D01*
X81426Y140968D01*
Y140634D01*
X81314Y140301D01*
X81203Y139745D01*
X81092Y139523D01*
X80981Y139245D01*
X80870Y138912D01*
X80759Y138690D01*
Y138134D01*
X80648Y137690D01*
X80537Y137412D01*
X80426Y137079D01*
X80315Y136635D01*
X80204Y136190D01*
X80092Y135857D01*
X79981Y135746D01*
X79759Y135635D01*
X78481D01*
X78370Y135746D01*
Y137801D01*
X78481Y138357D01*
X78593Y138801D01*
Y139356D01*
X78704Y139634D01*
X78815Y139968D01*
X78926Y140412D01*
X79037Y140745D01*
X79148Y140968D01*
X79259Y141079D01*
X79370Y141190D01*
X79426Y141301D01*
Y141412D01*
X79537Y141523D01*
X80426D01*
X80759Y141412D01*
D02*
G37*
G36*
X102590Y140301D02*
X102479Y138912D01*
X102368Y138357D01*
Y138023D01*
X102257Y137579D01*
X102146Y137412D01*
X102035Y137190D01*
X101924Y136968D01*
X101812Y136857D01*
Y136635D01*
X101701Y136524D01*
X101590Y136301D01*
X101535Y136190D01*
X101424D01*
X101312Y136079D01*
X101201Y135968D01*
X101090Y135857D01*
X100979Y135746D01*
Y135635D01*
X100757Y135524D01*
X100535D01*
X100313Y135635D01*
X100090Y135746D01*
X99868Y135857D01*
X99646Y135968D01*
X99535Y136079D01*
X99479Y136190D01*
Y136412D01*
X99535Y136857D01*
X99646Y136968D01*
Y137190D01*
X99757Y137523D01*
X99868Y137579D01*
X99979Y138023D01*
X100090Y138245D01*
X100202Y138579D01*
X100313Y138801D01*
X100424Y139023D01*
Y139356D01*
X100535Y140079D01*
X100646Y141079D01*
Y142023D01*
Y143523D01*
X102590D01*
Y140301D01*
D02*
G37*
G36*
X136087Y139745D02*
Y139356D01*
X136198Y138245D01*
X136309Y135968D01*
Y135246D01*
X136198Y135024D01*
X136087Y134913D01*
X134142D01*
X133920Y135024D01*
Y137801D01*
X134031Y139745D01*
X134254Y139857D01*
X135864D01*
X136087Y139745D01*
D02*
G37*
G36*
X131865Y140523D02*
X131976Y140412D01*
Y139968D01*
X132087Y139523D01*
Y136857D01*
X131976Y135746D01*
Y135135D01*
X131476Y135024D01*
X130698Y134913D01*
X130032D01*
Y135135D01*
X129921Y135635D01*
X129810Y136412D01*
X129698Y137523D01*
X129643Y139634D01*
Y140634D01*
X131587D01*
X131865Y140523D01*
D02*
G37*
G36*
X127476Y144745D02*
X127587Y144634D01*
X127699Y143356D01*
X127754Y136968D01*
Y134913D01*
X127587D01*
X126921Y134802D01*
X126588Y134690D01*
X125921D01*
X125810Y134913D01*
X125699Y135024D01*
X125643Y136190D01*
X125532Y138912D01*
Y144745D01*
X125699Y144856D01*
X127365D01*
X127476Y144745D01*
D02*
G37*
G36*
X139586Y139634D02*
X139697D01*
X139753Y139468D01*
X139864Y139023D01*
X139975Y138245D01*
X140086Y136857D01*
Y135357D01*
X139975Y134913D01*
X139864D01*
X139753Y134802D01*
X139475Y134690D01*
X139142Y134579D01*
X138698Y134468D01*
X138142D01*
X138031Y134579D01*
Y135024D01*
X137920Y136857D01*
Y137190D01*
X138031Y139745D01*
X139475D01*
X139586Y139634D01*
D02*
G37*
G36*
X93424Y163465D02*
X93480Y163354D01*
Y163243D01*
X93591Y163132D01*
X93702D01*
X93924Y163021D01*
X94035Y162910D01*
X94146Y162799D01*
X94258Y162576D01*
X94369Y162465D01*
Y160854D01*
X94258Y159132D01*
X94146Y155855D01*
X94035Y154355D01*
X93924Y152855D01*
X93813Y151466D01*
X93702Y150133D01*
X93591Y147856D01*
X93480Y146689D01*
Y145689D01*
X93424Y144634D01*
X93313Y143634D01*
X93202Y142690D01*
X93091Y141079D01*
X92980Y140190D01*
Y139468D01*
X92869Y138690D01*
X92758Y137912D01*
X92647Y137301D01*
X92536Y136079D01*
X92424Y135468D01*
X92313Y134913D01*
X92202Y134357D01*
X92091Y133801D01*
Y133413D01*
X91980Y132413D01*
X91869Y132079D01*
X91758Y131524D01*
X91647Y131135D01*
X91536Y130802D01*
Y130469D01*
X91480Y129802D01*
X91369Y129413D01*
X91258Y129191D01*
X91147Y128858D01*
X91036Y128635D01*
X90925Y128080D01*
Y127858D01*
X90814Y127524D01*
X90702Y127469D01*
X90591Y127247D01*
X90480Y127024D01*
X90369Y126913D01*
X90258Y126802D01*
Y126691D01*
X89425D01*
X89314Y126802D01*
X89203Y127136D01*
Y132079D01*
X89314Y132746D01*
X89425Y133413D01*
X89480Y133801D01*
X89591Y134357D01*
Y134913D01*
X89703Y135635D01*
X89814Y136190D01*
X89925Y136746D01*
X90036Y137301D01*
X90147Y137690D01*
X90258Y138245D01*
Y139468D01*
X90369Y140079D01*
X90480Y140634D01*
X90591Y141301D01*
X90702Y141912D01*
X90814Y142578D01*
X90925Y143967D01*
Y144745D01*
X91036Y145578D01*
X91147Y146245D01*
X91258Y147134D01*
X91369Y148078D01*
X91480Y149689D01*
X91536Y150800D01*
Y151744D01*
X91647Y152966D01*
X91758Y154133D01*
X91869Y156966D01*
X91980Y159354D01*
X92091Y162799D01*
Y163132D01*
X92202D01*
X92313Y163243D01*
X92424Y163354D01*
X92536Y163465D01*
X92647Y163576D01*
X93202D01*
X93424Y163465D01*
D02*
G37*
G36*
X134254Y131857D02*
X134476Y131746D01*
X134809Y131635D01*
Y131524D01*
X134920Y131468D01*
X135031Y131357D01*
X135142Y131024D01*
Y128524D01*
X135031Y127136D01*
X134920Y126247D01*
X133531D01*
X133087Y126358D01*
X132865Y126469D01*
Y126580D01*
X132754Y126691D01*
X132642Y126802D01*
X132531Y127136D01*
X132420Y128080D01*
Y128635D01*
X132531Y129913D01*
X132642Y130580D01*
X132754Y131135D01*
X132865Y131357D01*
Y131524D01*
X132976Y131746D01*
X133087Y131857D01*
X133420Y131968D01*
X133920D01*
X134254Y131857D01*
D02*
G37*
G36*
X143475Y141412D02*
X143586Y141301D01*
X143697Y141079D01*
Y132968D01*
Y126469D01*
Y123358D01*
X143808Y121803D01*
X143864Y120636D01*
X143975Y119859D01*
X144086Y119414D01*
X144197Y119248D01*
Y119136D01*
X144308Y118914D01*
X144419Y118581D01*
X144530Y118359D01*
X144641Y118137D01*
X144752Y118025D01*
X144864Y117914D01*
X144975Y117803D01*
Y117581D01*
X145086Y117470D01*
X145197Y117303D01*
X145308D01*
X145419Y117192D01*
X145530Y117081D01*
X145641Y116859D01*
Y116637D01*
Y116303D01*
Y116192D01*
X145530Y116081D01*
X145419Y115970D01*
X145308Y115859D01*
X145086D01*
X144975Y115748D01*
X144864Y115637D01*
X144752Y115526D01*
X144641Y115415D01*
X144308Y115359D01*
X144197Y115248D01*
Y115137D01*
X143864D01*
X143808Y115248D01*
X143697Y115359D01*
X143586Y115415D01*
X143475Y115526D01*
X143364Y115748D01*
X143252Y115859D01*
X143141Y115970D01*
X143030Y116081D01*
Y116303D01*
X142919Y116414D01*
X142808Y116526D01*
X142697Y116637D01*
X142586Y117081D01*
X142475Y117192D01*
X142364Y117303D01*
X142253Y117470D01*
Y117692D01*
X142142Y117914D01*
X142030Y118248D01*
X141919Y118581D01*
X141808Y118692D01*
X141753Y119136D01*
Y119359D01*
X141642Y119970D01*
X141531Y120747D01*
X141419Y124303D01*
Y131968D01*
X141531Y137301D01*
X141642Y139857D01*
X141753Y140968D01*
Y141079D01*
X141808Y141190D01*
X141919Y141301D01*
X142142Y141412D01*
X142253Y141523D01*
X143252D01*
X143475Y141412D01*
D02*
G37*
G36*
X124532Y162910D02*
Y149911D01*
X124643Y139745D01*
X124754Y133302D01*
X124866Y129080D01*
X124977Y126025D01*
X125088Y122247D01*
X125199Y120858D01*
X125310Y119525D01*
X125421Y118470D01*
Y117359D01*
X125532Y116414D01*
X125643Y114915D01*
X125699Y114137D01*
X125810Y113304D01*
X125921Y112637D01*
Y111859D01*
X126032Y110693D01*
X126143Y110026D01*
X126254Y109360D01*
X126365Y108638D01*
Y107304D01*
X125310D01*
X125199Y107415D01*
X125088Y107527D01*
X124977Y107638D01*
X124866D01*
X124754Y107749D01*
X124643Y107860D01*
X124532Y108082D01*
Y108193D01*
X124421Y108415D01*
X124310D01*
X124199Y108971D01*
X124088Y109360D01*
X123977Y109915D01*
Y110693D01*
X123866Y111637D01*
X123755Y112637D01*
X123699Y115026D01*
X123588Y116414D01*
X123477Y117803D01*
X123366Y119248D01*
X123255Y120858D01*
X123144Y122803D01*
Y125414D01*
X123032Y127024D01*
X122921Y128858D01*
X122810Y131024D01*
Y136968D01*
X122921Y141079D01*
X123032Y150244D01*
Y152189D01*
Y163965D01*
X124421D01*
X124532Y162910D01*
D02*
G37*
%LPC*%
G36*
X207888Y93387D02*
X198265D01*
X203539D01*
X203439Y93375D01*
X203314Y93362D01*
X203164Y93350D01*
X203014Y93337D01*
X202664Y93287D01*
X202289Y93212D01*
X201902Y93112D01*
X201514Y92975D01*
X201502D01*
X201464Y92962D01*
X201415Y92937D01*
X201339Y92900D01*
X201252Y92862D01*
X201152Y92812D01*
X200915Y92687D01*
X200652Y92525D01*
X200365Y92338D01*
X200065Y92113D01*
X199790Y91863D01*
X199777Y91850D01*
X199752Y91825D01*
X199715Y91788D01*
X199665Y91738D01*
X199615Y91663D01*
X199540Y91588D01*
X199465Y91488D01*
X199377Y91388D01*
X199202Y91138D01*
X199015Y90838D01*
X198828Y90513D01*
X198665Y90150D01*
Y90138D01*
X198653Y90100D01*
X198628Y90050D01*
X198603Y89976D01*
X198578Y89888D01*
X198540Y89776D01*
X198503Y89651D01*
X198465Y89501D01*
X198428Y89351D01*
X198390Y89176D01*
X198328Y88801D01*
X198278Y88401D01*
X198265Y87964D01*
Y88001D01*
Y87764D01*
X198278Y87651D01*
X198290Y87526D01*
X198303Y87389D01*
X198315Y87239D01*
X198365Y86901D01*
X198428Y86526D01*
X198528Y86152D01*
X198665Y85764D01*
Y85752D01*
X198678Y85714D01*
X198703Y85664D01*
X198740Y85602D01*
X198778Y85514D01*
X198828Y85414D01*
X198953Y85177D01*
X199115Y84902D01*
X199303Y84614D01*
X199527Y84327D01*
X199790Y84040D01*
X199802Y84027D01*
X199827Y84015D01*
X199865Y83977D01*
X199915Y83927D01*
X199990Y83865D01*
X200065Y83790D01*
X200165Y83715D01*
X200277Y83640D01*
X200527Y83452D01*
X200815Y83265D01*
X201152Y83090D01*
X201514Y82927D01*
X201527D01*
X201564Y82915D01*
X201614Y82890D01*
X201689Y82865D01*
X201789Y82840D01*
X201902Y82802D01*
X202027Y82765D01*
X202177Y82740D01*
X202327Y82702D01*
X202502Y82665D01*
X202889Y82603D01*
X203302Y82552D01*
X203751Y82540D01*
X207888D01*
Y93387D01*
D02*
G37*
G36*
X225071Y93500D02*
X224846D01*
X224734Y93487D01*
X224596Y93475D01*
X224446Y93462D01*
X224284Y93450D01*
X223934Y93400D01*
X223546Y93337D01*
X223159Y93237D01*
X222784Y93100D01*
X222771D01*
X222747Y93087D01*
X222684Y93062D01*
X222621Y93025D01*
X222534Y92987D01*
X222434Y92950D01*
X222209Y92825D01*
X221947Y92675D01*
X221672Y92500D01*
X221397Y92300D01*
X221134Y92075D01*
X221709Y91163D01*
X221722Y91150D01*
X221747Y91125D01*
X221784Y91075D01*
X221834Y91025D01*
X221897Y90975D01*
X221972Y90925D01*
X222072Y90900D01*
X222172Y90888D01*
X222197D01*
X222234Y90900D01*
X222284D01*
X222397Y90938D01*
X222534Y91013D01*
X222547Y91025D01*
X222572Y91038D01*
X222621Y91063D01*
X222684Y91100D01*
X222847Y91188D01*
X223034Y91288D01*
X223046Y91300D01*
X223071Y91313D01*
X223134Y91338D01*
X223196Y91375D01*
X223271Y91413D01*
X223371Y91463D01*
X223584Y91538D01*
X223596D01*
X223634Y91563D01*
X223696Y91575D01*
X223784Y91600D01*
X223884Y91625D01*
X223996Y91663D01*
X224134Y91688D01*
X224271Y91713D01*
X224284D01*
X224334Y91725D01*
X224421Y91738D01*
X224521Y91750D01*
X224646Y91763D01*
X224796Y91775D01*
X224958Y91788D01*
X225283D01*
X225346Y91775D01*
X225433D01*
X225621Y91750D01*
X225846Y91725D01*
X226096Y91675D01*
X226346Y91600D01*
X226595Y91513D01*
X226608D01*
X226621Y91500D01*
X226658Y91488D01*
X226708Y91463D01*
X226821Y91400D01*
X226983Y91313D01*
X227158Y91200D01*
X227333Y91075D01*
X227533Y90913D01*
X227708Y90738D01*
X227733Y90713D01*
X227783Y90650D01*
X227858Y90538D01*
X227958Y90400D01*
X228070Y90225D01*
X228195Y90013D01*
X228308Y89788D01*
X228407Y89526D01*
Y89513D01*
X228420Y89488D01*
X228433Y89451D01*
X228445Y89401D01*
X228458Y89338D01*
X228482Y89263D01*
X228520Y89063D01*
X228570Y88838D01*
X228608Y88563D01*
X228633Y88276D01*
X228645Y87951D01*
Y87939D01*
Y87914D01*
Y87864D01*
Y87789D01*
X228633Y87714D01*
Y87614D01*
X228608Y87389D01*
X228582Y87126D01*
X228533Y86851D01*
X228470Y86564D01*
X228383Y86277D01*
Y86264D01*
X228370Y86239D01*
X228358Y86201D01*
X228333Y86152D01*
X228270Y86027D01*
X228195Y85852D01*
X228095Y85652D01*
X227970Y85452D01*
X227820Y85239D01*
X227658Y85039D01*
X227633Y85014D01*
X227570Y84952D01*
X227470Y84864D01*
X227333Y84752D01*
X227170Y84639D01*
X226983Y84502D01*
X226770Y84389D01*
X226533Y84277D01*
X226521D01*
X226508Y84264D01*
X226471Y84252D01*
X226421Y84240D01*
X226283Y84190D01*
X226108Y84152D01*
X225896Y84102D01*
X225658Y84052D01*
X225383Y84027D01*
X225108Y84015D01*
X224996D01*
X224858Y84027D01*
X224696D01*
X224521Y84040D01*
X224321Y84065D01*
X224121Y84090D01*
X223921Y84127D01*
X223896D01*
X223834Y84152D01*
X223734Y84177D01*
X223609Y84214D01*
X223459Y84264D01*
X223296Y84327D01*
X222946Y84477D01*
Y86464D01*
X224346D01*
X224434Y86476D01*
X224521Y86502D01*
X224621Y86564D01*
X224634Y86589D01*
X224671Y86639D01*
X224721Y86726D01*
X224734Y86826D01*
Y87976D01*
X221122D01*
Y83577D01*
X221134Y83565D01*
X221197Y83527D01*
X221272Y83465D01*
X221384Y83402D01*
X221509Y83315D01*
X221659Y83227D01*
X221984Y83052D01*
X222009Y83040D01*
X222059Y83015D01*
X222159Y82977D01*
X222272Y82927D01*
X222422Y82865D01*
X222584Y82815D01*
X222759Y82752D01*
X222946Y82690D01*
X222971D01*
X223034Y82665D01*
X223134Y82640D01*
X223271Y82615D01*
X223434Y82577D01*
X223609Y82552D01*
X223809Y82515D01*
X224021Y82490D01*
X224046D01*
X224121Y82478D01*
X224234Y82465D01*
X224396Y82452D01*
X224583Y82440D01*
X224796Y82428D01*
X225021Y82415D01*
X221122D01*
X225383D01*
X225471Y82428D01*
X225571D01*
X225696Y82440D01*
X225833Y82452D01*
X225983Y82465D01*
X226321Y82515D01*
X226683Y82590D01*
X227070Y82690D01*
X227445Y82827D01*
X227458D01*
X227495Y82852D01*
X227545Y82865D01*
X227608Y82902D01*
X227695Y82940D01*
X227795Y83002D01*
X228033Y83127D01*
X228308Y83290D01*
X228595Y83477D01*
X228882Y83702D01*
X229170Y83965D01*
X229182Y83977D01*
X229207Y84002D01*
X229245Y84040D01*
X229295Y84102D01*
X229345Y84165D01*
X229420Y84252D01*
X229495Y84352D01*
X229582Y84465D01*
X229770Y84714D01*
X229957Y85014D01*
X230145Y85352D01*
X230307Y85714D01*
Y85727D01*
X230320Y85764D01*
X230345Y85814D01*
X230369Y85889D01*
X230394Y85989D01*
X230432Y86102D01*
X230469Y86239D01*
X230507Y86376D01*
X230544Y86539D01*
X230582Y86714D01*
X230644Y87089D01*
X230695Y87501D01*
X230707Y87951D01*
Y83402D01*
Y88076D01*
X230695Y88163D01*
Y88264D01*
X230682Y88389D01*
X230669Y88538D01*
X230657Y88688D01*
X230607Y89038D01*
X230544Y89413D01*
X230445Y89801D01*
X230320Y90188D01*
Y90201D01*
X230295Y90238D01*
X230282Y90288D01*
X230245Y90363D01*
X230207Y90450D01*
X230157Y90550D01*
X230032Y90788D01*
X229870Y91063D01*
X229670Y91363D01*
X229445Y91663D01*
X229195Y91950D01*
X229182Y91963D01*
X229157Y91987D01*
X229120Y92025D01*
X229057Y92075D01*
X228995Y92137D01*
X228907Y92200D01*
X228807Y92288D01*
X228695Y92375D01*
X228433Y92550D01*
X228133Y92737D01*
X227795Y92925D01*
X227420Y93087D01*
X227408D01*
X227370Y93100D01*
X227320Y93125D01*
X227233Y93150D01*
X227133Y93187D01*
X227020Y93212D01*
X226883Y93250D01*
X226733Y93300D01*
X226570Y93337D01*
X226383Y93375D01*
X226196Y93400D01*
X225983Y93437D01*
X225546Y93487D01*
X225071Y93500D01*
D02*
G37*
G36*
X219222Y93387D02*
X210087D01*
Y82540D01*
X211224D01*
X211274Y82552D01*
X211399Y82577D01*
X211537Y82615D01*
X211549D01*
X211562Y82627D01*
X211624Y82677D01*
X211724Y82752D01*
X211837Y82877D01*
X217498Y90100D01*
Y90088D01*
Y90063D01*
X217485Y90013D01*
Y89951D01*
X217473Y89801D01*
X217460Y89626D01*
Y89613D01*
Y89588D01*
Y89538D01*
X217448Y89488D01*
Y89351D01*
Y89201D01*
Y82540D01*
X219222D01*
Y93387D01*
D02*
G37*
G36*
X83600Y72000D02*
X81500D01*
Y72000D01*
X83600Y72000D01*
D01*
D02*
G37*
G36*
X249666Y79272D02*
X247095Y79116D01*
X244638Y78340D01*
X242444Y76990D01*
X240644Y75147D01*
X239345Y72922D01*
X238627Y70448D01*
X238500Y69163D01*
X238500Y68300D01*
X236600D01*
Y68300D01*
X238499Y68300D01*
Y68300D01*
X238660Y66989D01*
X239468Y64479D01*
X240875Y62249D01*
X242794Y60441D01*
X245103Y59168D01*
X247657Y58511D01*
X250294Y58511D01*
X252847Y59168D01*
X255157Y60440D01*
X257076Y62249D01*
X258484Y64478D01*
X259292Y66988D01*
X259453Y68299D01*
X259400Y70430D01*
X259400Y70430D01*
X259119Y71690D01*
X258107Y74059D01*
X256549Y76111D01*
X254540Y77723D01*
X252199Y78798D01*
X249666Y79272D01*
D02*
G37*
G36*
X224266D02*
X221695Y79116D01*
X219238Y78340D01*
X217044Y76990D01*
X215244Y75147D01*
X213946Y72922D01*
X213227Y70448D01*
X213100Y69163D01*
X213100Y68300D01*
X211200D01*
Y68300D01*
X213099Y68300D01*
Y68300D01*
X213260Y66989D01*
X214068Y64479D01*
X215475Y62249D01*
X217394Y60441D01*
X219704Y59168D01*
X222257Y58511D01*
X224894Y58511D01*
X227447Y59168D01*
X229757Y60440D01*
X231676Y62249D01*
X233084Y64478D01*
X233892Y66988D01*
X234053Y68299D01*
X234000Y70430D01*
X234000Y70430D01*
X233719Y71690D01*
X232707Y74059D01*
X231149Y76111D01*
X229140Y77723D01*
X226799Y78798D01*
X224266Y79272D01*
D02*
G37*
G36*
X198866D02*
X196295Y79116D01*
X193838Y78340D01*
X191644Y76990D01*
X189844Y75147D01*
X188545Y72922D01*
X187827Y70448D01*
X187700Y69163D01*
X187700Y68300D01*
X185800D01*
Y68300D01*
X187699Y68300D01*
Y68300D01*
X187860Y66989D01*
X188668Y64479D01*
X190075Y62249D01*
X191994Y60441D01*
X194303Y59168D01*
X196857Y58511D01*
X199494Y58511D01*
X202047Y59168D01*
X204357Y60440D01*
X206276Y62249D01*
X207684Y64478D01*
X208492Y66988D01*
X208653Y68299D01*
X208600Y70430D01*
X208600Y70430D01*
X208319Y71690D01*
X207307Y74059D01*
X205749Y76111D01*
X203740Y77723D01*
X201399Y78798D01*
X198866Y79272D01*
D02*
G37*
G36*
X173466D02*
X170895Y79116D01*
X168438Y78340D01*
X166244Y76990D01*
X164444Y75147D01*
X163146Y72922D01*
X162427Y70448D01*
X162300Y69163D01*
X162300Y68300D01*
X160400D01*
Y68300D01*
X162299Y68300D01*
Y68300D01*
X162460Y66989D01*
X163268Y64479D01*
X164675Y62249D01*
X166594Y60441D01*
X168904Y59168D01*
X171457Y58511D01*
X174094Y58511D01*
X176647Y59168D01*
X178957Y60440D01*
X180876Y62249D01*
X182284Y64478D01*
X183092Y66988D01*
X183253Y68299D01*
X183200Y70430D01*
X183200Y70430D01*
X182919Y71690D01*
X181907Y74059D01*
X180349Y76111D01*
X178340Y77723D01*
X175999Y78798D01*
X173466Y79272D01*
D02*
G37*
G36*
X148066D02*
X145495Y79116D01*
X143038Y78340D01*
X140844Y76990D01*
X139044Y75147D01*
X137746Y72922D01*
X137027Y70448D01*
X136900Y69163D01*
X136900Y68300D01*
X135000D01*
Y68300D01*
X136899Y68300D01*
Y68300D01*
X137060Y66989D01*
X137868Y64479D01*
X139275Y62249D01*
X141194Y60441D01*
X143504Y59168D01*
X146057Y58511D01*
X148694Y58511D01*
X151247Y59168D01*
X153557Y60440D01*
X155476Y62249D01*
X156884Y64478D01*
X157692Y66988D01*
X157853Y68299D01*
X157800Y70430D01*
X157800Y70430D01*
X157519Y71690D01*
X156507Y74059D01*
X154949Y76111D01*
X152940Y77723D01*
X150599Y78798D01*
X148066Y79272D01*
D02*
G37*
G36*
X122666D02*
X120095Y79116D01*
X117638Y78340D01*
X115444Y76990D01*
X113644Y75147D01*
X112346Y72922D01*
X111627Y70448D01*
X111500Y69163D01*
X111500Y68300D01*
X109600D01*
Y68300D01*
X111499Y68300D01*
Y68300D01*
X111660Y66989D01*
X112468Y64479D01*
X113875Y62249D01*
X115794Y60441D01*
X118104Y59168D01*
X120657Y58511D01*
X123294Y58511D01*
X125847Y59168D01*
X128157Y60440D01*
X130076Y62249D01*
X131484Y64478D01*
X132292Y66988D01*
X132453Y68299D01*
X132400Y70430D01*
X132400Y70430D01*
X132119Y71690D01*
X131107Y74059D01*
X129549Y76111D01*
X127540Y77723D01*
X125199Y78798D01*
X122666Y79272D01*
D02*
G37*
G36*
X97266D02*
X94695Y79116D01*
X92238Y78340D01*
X90044Y76990D01*
X88244Y75147D01*
X86945Y72922D01*
X86227Y70448D01*
X86100Y69163D01*
X86100Y68300D01*
X84000D01*
Y68300D01*
X86099Y68300D01*
Y68300D01*
X86260Y66989D01*
X87068Y64479D01*
X88475Y62249D01*
X90394Y60441D01*
X92704Y59168D01*
X95257Y58511D01*
X97894Y58511D01*
X100447Y59168D01*
X102757Y60440D01*
X104676Y62249D01*
X106084Y64478D01*
X106892Y66988D01*
X107053Y68299D01*
X107000Y70430D01*
X107000Y70430D01*
X106719Y71690D01*
X105707Y74059D01*
X104149Y76111D01*
X102140Y77723D01*
X99799Y78798D01*
X97266Y79272D01*
D02*
G37*
G36*
X81500Y79000D02*
X61000Y79000D01*
X61000Y58250D01*
X81500Y58250D01*
Y72000D01*
X81500Y79000D01*
D02*
G37*
%LPD*%
G36*
X205851Y84140D02*
X203614D01*
X203551Y84152D01*
X203464D01*
X203277Y84177D01*
X203051Y84202D01*
X202814Y84252D01*
X202577Y84314D01*
X202327Y84402D01*
X202314D01*
X202302Y84415D01*
X202214Y84452D01*
X202102Y84515D01*
X201952Y84589D01*
X201789Y84702D01*
X201602Y84827D01*
X201427Y84977D01*
X201252Y85152D01*
X201227Y85177D01*
X201177Y85239D01*
X201102Y85339D01*
X201002Y85489D01*
X200890Y85664D01*
X200777Y85864D01*
X200677Y86102D01*
X200577Y86351D01*
Y86364D01*
X200565Y86389D01*
X200552Y86426D01*
X200540Y86476D01*
X200515Y86539D01*
X200502Y86626D01*
X200452Y86826D01*
X200402Y87064D01*
X200365Y87339D01*
X200340Y87639D01*
X200327Y87964D01*
Y87976D01*
Y88001D01*
Y88051D01*
Y88113D01*
X200340Y88188D01*
Y88288D01*
X200352Y88501D01*
X200390Y88738D01*
X200427Y89013D01*
X200490Y89288D01*
X200577Y89563D01*
Y89576D01*
X200590Y89601D01*
X200602Y89638D01*
X200615Y89688D01*
X200677Y89813D01*
X200752Y89976D01*
X200852Y90176D01*
X200965Y90375D01*
X201102Y90575D01*
X201252Y90763D01*
X201277Y90788D01*
X201327Y90838D01*
X201427Y90925D01*
X201552Y91038D01*
X201702Y91163D01*
X201889Y91288D01*
X202102Y91400D01*
X202327Y91513D01*
X202339D01*
X202352Y91525D01*
X202389Y91538D01*
X202439Y91550D01*
X202564Y91600D01*
X202739Y91650D01*
X202952Y91700D01*
X203202Y91750D01*
X203464Y91775D01*
X203751Y91788D01*
X205851D01*
Y84140D01*
D02*
G37*
G36*
X217960Y93375D02*
X217948D01*
X217898Y93362D01*
X217848Y93350D01*
X217798Y93325D01*
X217785Y93312D01*
X217748Y93300D01*
X217660Y93225D01*
X217648Y93212D01*
X217610Y93187D01*
X217560Y93125D01*
X217498Y93062D01*
X211812Y85802D01*
Y85814D01*
Y85852D01*
X211824Y85902D01*
X211837Y85964D01*
X211849Y86126D01*
X211862Y86314D01*
Y86327D01*
Y86351D01*
Y86402D01*
Y86464D01*
Y86626D01*
Y86789D01*
Y93387D01*
X218035D01*
X217960Y93375D01*
D02*
G37*
%LPC*%
G36*
X307325Y250335D02*
X305363D01*
X305001Y250310D01*
X304676Y250260D01*
X304414Y250173D01*
X304189Y250085D01*
X304026Y249998D01*
X303901Y249923D01*
X303826Y249873D01*
X303801Y249848D01*
X303701Y249760D01*
X303626Y249648D01*
X303489Y249435D01*
X303389Y249198D01*
X303326Y248973D01*
X303289Y248773D01*
X303276Y248685D01*
Y248610D01*
X303264Y248548D01*
Y248498D01*
Y248473D01*
Y248461D01*
Y248311D01*
X303289Y248173D01*
X303351Y247911D01*
X303439Y247673D01*
X303539Y247486D01*
X303651Y247336D01*
X303739Y247223D01*
X303801Y247161D01*
X303814Y247136D01*
X303826D01*
X304051Y246973D01*
X304301Y246849D01*
X304551Y246773D01*
X304801Y246711D01*
X305014Y246674D01*
X305114Y246661D01*
X305188D01*
X305263Y246649D01*
X307325D01*
Y250335D01*
D02*
G37*
G36*
X296903Y247823D02*
X296816D01*
X296641Y247811D01*
X296491Y247786D01*
X296341Y247748D01*
X296191Y247711D01*
X295941Y247586D01*
X295728Y247448D01*
X295553Y247311D01*
X295428Y247186D01*
X295391Y247148D01*
X295354Y247111D01*
X295329Y247086D01*
Y247073D01*
X295229Y246924D01*
X295141Y246773D01*
X294991Y246449D01*
X294891Y246124D01*
X294829Y245811D01*
X294804Y245661D01*
X294779Y245524D01*
X294766Y245411D01*
Y245299D01*
X294754Y245211D01*
Y245149D01*
Y245111D01*
Y245099D01*
Y244849D01*
X294779Y244612D01*
X294804Y244387D01*
X294841Y244174D01*
X294879Y243987D01*
X294929Y243812D01*
X294979Y243649D01*
X295028Y243512D01*
X295091Y243387D01*
X295141Y243274D01*
X295191Y243174D01*
X295229Y243099D01*
X295266Y243037D01*
X295291Y242999D01*
X295303Y242974D01*
X295316Y242962D01*
X295428Y242837D01*
X295541Y242724D01*
X295653Y242625D01*
X295778Y242537D01*
X295903Y242462D01*
X296028Y242400D01*
X296266Y242312D01*
X296478Y242262D01*
X296566Y242250D01*
X296653Y242237D01*
X296716Y242225D01*
X296803D01*
X296966Y242237D01*
X297128Y242262D01*
X297278Y242287D01*
X297428Y242337D01*
X297678Y242450D01*
X297890Y242587D01*
X298065Y242724D01*
X298190Y242837D01*
X298228Y242887D01*
X298265Y242924D01*
X298278Y242937D01*
X298290Y242950D01*
X298390Y243099D01*
X298478Y243249D01*
X298615Y243574D01*
X298715Y243899D01*
X298778Y244224D01*
X298803Y244362D01*
X298828Y244499D01*
X298840Y244624D01*
Y244724D01*
X298853Y244811D01*
Y244886D01*
Y244924D01*
Y244937D01*
X298840Y245199D01*
X298828Y245436D01*
X298803Y245661D01*
X298765Y245874D01*
X298728Y246061D01*
X298678Y246236D01*
X298628Y246399D01*
X298565Y246536D01*
X298515Y246674D01*
X298465Y246773D01*
X298415Y246873D01*
X298378Y246949D01*
X298340Y247011D01*
X298315Y247048D01*
X298290Y247073D01*
Y247086D01*
X298178Y247211D01*
X298065Y247336D01*
X297940Y247423D01*
X297828Y247511D01*
X297703Y247586D01*
X297578Y247648D01*
X297341Y247736D01*
X297128Y247786D01*
X297041Y247798D01*
X296966Y247811D01*
X296903Y247823D01*
D02*
G37*
G36*
X128090Y98761D02*
X127866D01*
X127748Y98737D01*
X127642Y98725D01*
X127548Y98702D01*
X127477Y98678D01*
X127418Y98655D01*
X127383Y98643D01*
X127371Y98631D01*
X127277Y98572D01*
X127183Y98513D01*
X127112Y98442D01*
X127041Y98372D01*
X126982Y98313D01*
X126947Y98266D01*
X126923Y98230D01*
X126911Y98218D01*
X126841Y98112D01*
X126782Y97995D01*
X126735Y97877D01*
X126688Y97759D01*
X126664Y97653D01*
X126641Y97570D01*
X126617Y97523D01*
Y97500D01*
X126581Y97323D01*
X126558Y97146D01*
X126534Y96969D01*
X126523Y96804D01*
X126511Y96651D01*
Y96533D01*
Y96486D01*
Y96451D01*
Y96439D01*
Y96427D01*
Y96203D01*
X126534Y95991D01*
X126546Y95802D01*
X126570Y95649D01*
X126593Y95508D01*
X126617Y95414D01*
X126629Y95355D01*
X126641Y95331D01*
X126688Y95166D01*
X126747Y95013D01*
X126805Y94883D01*
X126853Y94777D01*
X126900Y94683D01*
X126947Y94624D01*
X126971Y94577D01*
X126982Y94565D01*
X127065Y94459D01*
X127159Y94376D01*
X127253Y94294D01*
X127336Y94235D01*
X127407Y94176D01*
X127465Y94141D01*
X127513Y94129D01*
X127524Y94117D01*
X127642Y94070D01*
X127772Y94035D01*
X127890Y94011D01*
X127996Y93999D01*
X128090Y93988D01*
X128161Y93976D01*
X128231D01*
X128385Y93988D01*
X128526Y93999D01*
X128656Y94023D01*
X128774Y94046D01*
X128868Y94070D01*
X128939Y94094D01*
X128986Y94117D01*
X128998D01*
X129127Y94176D01*
X129245Y94259D01*
X129351Y94341D01*
X129445Y94424D01*
X129528Y94506D01*
X129587Y94565D01*
X129622Y94612D01*
X129634Y94624D01*
Y97877D01*
X129504Y98030D01*
X129387Y98160D01*
X129269Y98266D01*
X129151Y98360D01*
X129068Y98431D01*
X128986Y98490D01*
X128939Y98513D01*
X128927Y98525D01*
X128774Y98607D01*
X128620Y98666D01*
X128455Y98702D01*
X128314Y98737D01*
X128184Y98749D01*
X128090Y98761D01*
D02*
G37*
G36*
X146806Y95850D02*
X146735D01*
Y94612D01*
X146876Y94471D01*
X147006Y94365D01*
X147053Y94329D01*
X147088Y94294D01*
X147112Y94282D01*
X147124Y94270D01*
X147254Y94176D01*
X147383Y94094D01*
X147430Y94070D01*
X147466Y94046D01*
X147489Y94023D01*
X147501D01*
X147654Y93964D01*
X147784Y93917D01*
X147843Y93905D01*
X147890Y93893D01*
X147914Y93881D01*
X147925D01*
X148102Y93858D01*
X148255Y93846D01*
X148326Y93834D01*
X148420D01*
X148574Y93846D01*
X148715Y93870D01*
X148833Y93893D01*
X148939Y93929D01*
X149021Y93964D01*
X149080Y93999D01*
X149116Y94011D01*
X149127Y94023D01*
X149210Y94105D01*
X149281Y94211D01*
X149328Y94318D01*
X149351Y94424D01*
X149375Y94530D01*
X149387Y94612D01*
Y94659D01*
Y94683D01*
X149375Y94765D01*
X149363Y94848D01*
X149316Y94989D01*
X149292Y95048D01*
X149281Y95084D01*
X149257Y95107D01*
Y95119D01*
X149198Y95190D01*
X149139Y95260D01*
X148986Y95366D01*
X148927Y95402D01*
X148868Y95437D01*
X148833Y95449D01*
X148821Y95461D01*
X148703Y95520D01*
X148562Y95567D01*
X148432Y95602D01*
X148302Y95638D01*
X148184Y95673D01*
X148090Y95696D01*
X148031Y95708D01*
X148008D01*
X147807Y95744D01*
X147595Y95767D01*
X147383Y95791D01*
X147183Y95814D01*
X147006Y95826D01*
X146924Y95838D01*
X146865D01*
X146806Y95850D01*
D02*
G37*
G36*
X113665D02*
X113594D01*
Y94612D01*
X113735Y94471D01*
X113865Y94365D01*
X113912Y94329D01*
X113947Y94294D01*
X113971Y94282D01*
X113983Y94270D01*
X114112Y94176D01*
X114242Y94094D01*
X114289Y94070D01*
X114325Y94046D01*
X114348Y94023D01*
X114360D01*
X114513Y93964D01*
X114643Y93917D01*
X114702Y93905D01*
X114749Y93893D01*
X114772Y93881D01*
X114784D01*
X114961Y93858D01*
X115114Y93846D01*
X115185Y93834D01*
X115279D01*
X115432Y93846D01*
X115574Y93870D01*
X115692Y93893D01*
X115798Y93929D01*
X115880Y93964D01*
X115939Y93999D01*
X115975Y94011D01*
X115986Y94023D01*
X116069Y94105D01*
X116139Y94211D01*
X116187Y94318D01*
X116210Y94424D01*
X116234Y94530D01*
X116246Y94612D01*
Y94659D01*
Y94683D01*
X116234Y94765D01*
X116222Y94848D01*
X116175Y94989D01*
X116151Y95048D01*
X116139Y95084D01*
X116116Y95107D01*
Y95119D01*
X116057Y95190D01*
X115998Y95260D01*
X115845Y95366D01*
X115786Y95402D01*
X115727Y95437D01*
X115692Y95449D01*
X115680Y95461D01*
X115562Y95520D01*
X115421Y95567D01*
X115291Y95602D01*
X115161Y95638D01*
X115043Y95673D01*
X114949Y95696D01*
X114890Y95708D01*
X114867D01*
X114666Y95744D01*
X114454Y95767D01*
X114242Y95791D01*
X114042Y95814D01*
X113865Y95826D01*
X113782Y95838D01*
X113723D01*
X113665Y95850D01*
D02*
G37*
G36*
X168526Y101212D02*
X168456Y100953D01*
X168420Y100835D01*
X168385Y100741D01*
X168361Y100658D01*
X168338Y100599D01*
X168326Y100552D01*
Y100540D01*
X168255Y100328D01*
X168220Y100234D01*
X168197Y100163D01*
X168173Y100092D01*
X168149Y100045D01*
X168138Y100022D01*
Y100010D01*
X166888Y96616D01*
X170153D01*
X168904Y99998D01*
X168833Y100187D01*
X168774Y100364D01*
X168750Y100434D01*
X168727Y100493D01*
X168715Y100528D01*
Y100540D01*
X168644Y100776D01*
X168609Y100882D01*
X168585Y100988D01*
X168562Y101082D01*
X168538Y101153D01*
X168526Y101200D01*
Y101212D01*
D02*
G37*
G36*
X108161Y101518D02*
X106369D01*
X106204Y101507D01*
X106051Y101483D01*
X105921Y101471D01*
X105674Y101412D01*
X105473Y101354D01*
X105320Y101283D01*
X105214Y101236D01*
X105155Y101188D01*
X105132Y101177D01*
X104979Y101035D01*
X104861Y100858D01*
X104778Y100670D01*
X104731Y100481D01*
X104696Y100305D01*
X104684Y100163D01*
X104672Y100104D01*
Y100069D01*
Y100045D01*
Y100034D01*
Y99892D01*
X104696Y99762D01*
X104755Y99527D01*
X104837Y99338D01*
X104920Y99173D01*
X105014Y99055D01*
X105096Y98973D01*
X105155Y98914D01*
X105167Y98902D01*
X105179D01*
X105391Y98784D01*
X105627Y98702D01*
X105863Y98631D01*
X106110Y98596D01*
X106322Y98572D01*
X106416Y98560D01*
X106487D01*
X106558Y98548D01*
X108161D01*
Y101518D01*
D02*
G37*
G36*
Y97228D02*
X106063D01*
X105898Y97217D01*
X105756Y97193D01*
X105627Y97181D01*
X105533Y97158D01*
X105450Y97134D01*
X105403Y97122D01*
X105391D01*
X105261Y97087D01*
X105155Y97040D01*
X105049Y96993D01*
X104967Y96946D01*
X104908Y96910D01*
X104849Y96875D01*
X104825Y96851D01*
X104813Y96840D01*
X104731Y96769D01*
X104660Y96686D01*
X104554Y96545D01*
X104519Y96474D01*
X104495Y96427D01*
X104472Y96392D01*
Y96380D01*
X104413Y96180D01*
X104389Y96085D01*
X104377Y95991D01*
X104366Y95908D01*
Y95850D01*
Y95802D01*
Y95791D01*
X104377Y95567D01*
X104401Y95461D01*
X104413Y95366D01*
X104436Y95296D01*
X104460Y95237D01*
X104472Y95201D01*
Y95190D01*
X104554Y94989D01*
X104613Y94907D01*
X104660Y94836D01*
X104707Y94777D01*
X104743Y94730D01*
X104766Y94706D01*
X104778Y94695D01*
X104861Y94624D01*
X104955Y94553D01*
X105143Y94447D01*
X105226Y94400D01*
X105297Y94376D01*
X105344Y94365D01*
X105356Y94353D01*
X105497Y94318D01*
X105639Y94282D01*
X105792Y94259D01*
X105933Y94247D01*
X106051D01*
X106145Y94235D01*
X108161D01*
Y97228D01*
D02*
G37*
G36*
X72545Y98784D02*
X72462D01*
X72297Y98772D01*
X72144Y98761D01*
X71873Y98690D01*
X71637Y98584D01*
X71448Y98478D01*
X71307Y98360D01*
X71201Y98254D01*
X71142Y98183D01*
X71118Y98171D01*
Y98160D01*
X71036Y98042D01*
X70977Y97912D01*
X70871Y97617D01*
X70788Y97323D01*
X70741Y97040D01*
X70718Y96898D01*
X70706Y96769D01*
X70694Y96663D01*
Y96557D01*
X70682Y96486D01*
Y96415D01*
Y96380D01*
Y96368D01*
Y96156D01*
X70706Y95956D01*
X70718Y95767D01*
X70753Y95602D01*
X70788Y95437D01*
X70824Y95296D01*
X70859Y95166D01*
X70895Y95036D01*
X70942Y94930D01*
X70977Y94848D01*
X71012Y94765D01*
X71048Y94706D01*
X71083Y94648D01*
X71095Y94612D01*
X71118Y94600D01*
Y94588D01*
X71201Y94482D01*
X71295Y94388D01*
X71401Y94306D01*
X71507Y94247D01*
X71731Y94129D01*
X71955Y94058D01*
X72156Y94023D01*
X72238Y94011D01*
X72309Y93999D01*
X72380Y93988D01*
X72462D01*
X72627Y93999D01*
X72780Y94011D01*
X73051Y94082D01*
X73287Y94176D01*
X73476Y94294D01*
X73617Y94400D01*
X73723Y94494D01*
X73782Y94565D01*
X73806Y94577D01*
Y94588D01*
X73876Y94706D01*
X73947Y94836D01*
X74053Y95131D01*
X74136Y95425D01*
X74183Y95708D01*
X74206Y95838D01*
X74218Y95967D01*
X74230Y96074D01*
Y96180D01*
X74242Y96262D01*
Y96321D01*
Y96356D01*
Y96368D01*
Y96580D01*
X74218Y96781D01*
X74206Y96969D01*
X74171Y97146D01*
X74136Y97299D01*
X74100Y97452D01*
X74065Y97582D01*
X74018Y97700D01*
X73982Y97806D01*
X73947Y97900D01*
X73912Y97983D01*
X73876Y98042D01*
X73841Y98089D01*
X73829Y98136D01*
X73806Y98148D01*
Y98160D01*
X73723Y98266D01*
X73617Y98372D01*
X73523Y98454D01*
X73417Y98525D01*
X73193Y98631D01*
X72969Y98702D01*
X72769Y98749D01*
X72686Y98761D01*
X72615Y98772D01*
X72545Y98784D01*
D02*
G37*
G36*
X175520Y35711D02*
X175483D01*
X175458D01*
X175445D01*
X175295D01*
X175158Y35686D01*
X174908Y35624D01*
X174708Y35536D01*
X174533Y35449D01*
X174408Y35349D01*
X174320Y35261D01*
X174258Y35199D01*
X174245Y35186D01*
Y35174D01*
X174121Y34949D01*
X174033Y34699D01*
X173958Y34449D01*
X173920Y34186D01*
X173895Y33962D01*
X173883Y33861D01*
Y33786D01*
X173871Y33712D01*
Y32012D01*
X177020D01*
Y33911D01*
X177007Y34086D01*
X176982Y34249D01*
X176970Y34386D01*
X176907Y34649D01*
X176845Y34861D01*
X176770Y35024D01*
X176720Y35136D01*
X176670Y35199D01*
X176657Y35224D01*
X176507Y35386D01*
X176320Y35511D01*
X176120Y35599D01*
X175920Y35649D01*
X175733Y35686D01*
X175583Y35698D01*
X175520Y35711D01*
D02*
G37*
G36*
X171071Y36036D02*
X171009D01*
X170959D01*
X170946D01*
X170709Y36023D01*
X170596Y35998D01*
X170496Y35986D01*
X170421Y35961D01*
X170359Y35936D01*
X170322Y35924D01*
X170309D01*
X170096Y35836D01*
X170009Y35773D01*
X169934Y35724D01*
X169872Y35673D01*
X169822Y35636D01*
X169797Y35611D01*
X169784Y35599D01*
X169709Y35511D01*
X169634Y35411D01*
X169522Y35211D01*
X169472Y35124D01*
X169447Y35049D01*
X169434Y34999D01*
X169422Y34986D01*
X169384Y34836D01*
X169347Y34686D01*
X169322Y34524D01*
X169309Y34374D01*
Y34249D01*
X169297Y34149D01*
Y32012D01*
X172471D01*
Y34236D01*
X172458Y34411D01*
X172433Y34561D01*
X172421Y34699D01*
X172396Y34799D01*
X172371Y34886D01*
X172358Y34936D01*
Y34949D01*
X172321Y35086D01*
X172271Y35199D01*
X172221Y35311D01*
X172171Y35399D01*
X172134Y35461D01*
X172096Y35524D01*
X172071Y35549D01*
X172059Y35561D01*
X171984Y35649D01*
X171896Y35724D01*
X171746Y35836D01*
X171671Y35873D01*
X171621Y35898D01*
X171584Y35924D01*
X171571D01*
X171359Y35986D01*
X171259Y36011D01*
X171159Y36023D01*
X171071Y36036D01*
D02*
G37*
G36*
X198975Y45084D02*
X198875D01*
X198787D01*
X198725D01*
X198687D01*
X198675D01*
X198250Y45071D01*
X197875Y45059D01*
X197700Y45046D01*
X197537Y45034D01*
X197400Y45009D01*
X197262Y44996D01*
X197138Y44984D01*
X197038Y44959D01*
X196938Y44946D01*
X196863Y44934D01*
X196800Y44921D01*
X196763D01*
X196738Y44909D01*
X196725D01*
X196450Y44834D01*
X196213Y44759D01*
X196000Y44684D01*
X195825Y44609D01*
X195688Y44546D01*
X195588Y44496D01*
X195525Y44459D01*
X195501Y44446D01*
X195350Y44334D01*
X195213Y44221D01*
X195101Y44109D01*
X195013Y44009D01*
X194951Y43921D01*
X194901Y43846D01*
X194876Y43797D01*
X194863Y43784D01*
X194801Y43646D01*
X194763Y43509D01*
X194726Y43372D01*
X194713Y43247D01*
X194701Y43147D01*
X194688Y43072D01*
Y42997D01*
X194701Y42859D01*
X194713Y42709D01*
X194738Y42584D01*
X194776Y42472D01*
X194813Y42372D01*
X194838Y42297D01*
X194851Y42247D01*
X194863Y42234D01*
X194951Y42097D01*
X195038Y41972D01*
X195151Y41859D01*
X195251Y41760D01*
X195350Y41684D01*
X195425Y41622D01*
X195476Y41585D01*
X195501Y41572D01*
X195688Y41472D01*
X195888Y41385D01*
X196088Y41310D01*
X196288Y41247D01*
X196463Y41197D01*
X196600Y41160D01*
X196650Y41135D01*
X196688D01*
X196713Y41122D01*
X196725D01*
X197038Y41072D01*
X197362Y41035D01*
X197687Y40997D01*
X197987Y40985D01*
X198137Y40972D01*
X198262D01*
X198375Y40960D01*
X198475D01*
X198562D01*
X198625D01*
X198662D01*
X198675D01*
X199100Y40972D01*
X199475Y40985D01*
X199649Y40997D01*
X199799Y41010D01*
X199949Y41022D01*
X200087Y41047D01*
X200199Y41060D01*
X200312Y41072D01*
X200399Y41085D01*
X200474Y41097D01*
X200537Y41110D01*
X200574D01*
X200599Y41122D01*
X200612D01*
X200887Y41197D01*
X201137Y41272D01*
X201336Y41347D01*
X201511Y41410D01*
X201649Y41472D01*
X201749Y41522D01*
X201811Y41560D01*
X201836Y41572D01*
X201999Y41684D01*
X202136Y41797D01*
X202249Y41909D01*
X202336Y42009D01*
X202399Y42097D01*
X202449Y42172D01*
X202474Y42222D01*
X202486Y42234D01*
X202549Y42372D01*
X202599Y42509D01*
X202624Y42647D01*
X202649Y42759D01*
X202661Y42859D01*
X202674Y42934D01*
Y42997D01*
X202661Y43147D01*
X202649Y43297D01*
X202611Y43422D01*
X202586Y43547D01*
X202549Y43646D01*
X202511Y43721D01*
X202499Y43772D01*
X202486Y43784D01*
X202399Y43921D01*
X202311Y44046D01*
X202199Y44159D01*
X202086Y44259D01*
X201999Y44334D01*
X201911Y44396D01*
X201861Y44434D01*
X201836Y44446D01*
X201649Y44546D01*
X201462Y44646D01*
X201249Y44721D01*
X201062Y44784D01*
X200887Y44834D01*
X200737Y44871D01*
X200687Y44896D01*
X200649D01*
X200624Y44909D01*
X200612D01*
X200312Y44971D01*
X199987Y45009D01*
X199662Y45046D01*
X199362Y45059D01*
X199212Y45071D01*
X199087D01*
X198975Y45084D01*
D02*
G37*
G36*
X201062Y35711D02*
X201024D01*
X200999D01*
X200987D01*
X200837D01*
X200699Y35686D01*
X200449Y35624D01*
X200249Y35536D01*
X200074Y35449D01*
X199949Y35349D01*
X199862Y35261D01*
X199799Y35199D01*
X199787Y35186D01*
Y35174D01*
X199662Y34949D01*
X199575Y34699D01*
X199499Y34449D01*
X199462Y34186D01*
X199437Y33962D01*
X199424Y33861D01*
Y33786D01*
X199412Y33712D01*
Y32012D01*
X202561D01*
Y33911D01*
X202549Y34086D01*
X202524Y34249D01*
X202511Y34386D01*
X202449Y34649D01*
X202386Y34861D01*
X202311Y35024D01*
X202261Y35136D01*
X202211Y35199D01*
X202199Y35224D01*
X202049Y35386D01*
X201861Y35511D01*
X201661Y35599D01*
X201462Y35649D01*
X201274Y35686D01*
X201124Y35698D01*
X201062Y35711D01*
D02*
G37*
G36*
X196613Y36036D02*
X196550D01*
X196500D01*
X196488D01*
X196250Y36023D01*
X196138Y35998D01*
X196038Y35986D01*
X195963Y35961D01*
X195900Y35936D01*
X195863Y35924D01*
X195850D01*
X195638Y35836D01*
X195550Y35773D01*
X195476Y35724D01*
X195413Y35673D01*
X195363Y35636D01*
X195338Y35611D01*
X195326Y35599D01*
X195251Y35511D01*
X195176Y35411D01*
X195063Y35211D01*
X195013Y35124D01*
X194988Y35049D01*
X194976Y34999D01*
X194963Y34986D01*
X194926Y34836D01*
X194888Y34686D01*
X194863Y34524D01*
X194851Y34374D01*
Y34249D01*
X194838Y34149D01*
Y32012D01*
X198012D01*
Y34236D01*
X198000Y34411D01*
X197975Y34561D01*
X197962Y34699D01*
X197937Y34799D01*
X197912Y34886D01*
X197900Y34936D01*
Y34949D01*
X197862Y35086D01*
X197812Y35199D01*
X197762Y35311D01*
X197712Y35399D01*
X197675Y35461D01*
X197638Y35524D01*
X197612Y35549D01*
X197600Y35561D01*
X197525Y35649D01*
X197437Y35724D01*
X197288Y35836D01*
X197213Y35873D01*
X197163Y35898D01*
X197125Y35924D01*
X197113D01*
X196900Y35986D01*
X196800Y36011D01*
X196700Y36023D01*
X196613Y36036D01*
D02*
G37*
G36*
X97253Y45071D02*
X97153D01*
X97065D01*
X97003D01*
X96965D01*
X96953D01*
X96528Y45059D01*
X96153Y45046D01*
X95978Y45034D01*
X95815Y45021D01*
X95678Y44996D01*
X95540Y44984D01*
X95415Y44971D01*
X95316Y44946D01*
X95216Y44934D01*
X95141Y44921D01*
X95078Y44909D01*
X95041D01*
X95016Y44896D01*
X95003D01*
X94728Y44821D01*
X94491Y44746D01*
X94278Y44671D01*
X94103Y44596D01*
X93966Y44534D01*
X93866Y44484D01*
X93803Y44446D01*
X93778Y44434D01*
X93628Y44321D01*
X93491Y44209D01*
X93378Y44096D01*
X93291Y43996D01*
X93229Y43909D01*
X93179Y43834D01*
X93154Y43784D01*
X93141Y43772D01*
X93079Y43634D01*
X93041Y43496D01*
X93004Y43359D01*
X92991Y43234D01*
X92979Y43134D01*
X92966Y43059D01*
Y42984D01*
X92979Y42847D01*
X92991Y42697D01*
X93016Y42572D01*
X93054Y42459D01*
X93091Y42359D01*
X93116Y42284D01*
X93129Y42234D01*
X93141Y42222D01*
X93229Y42084D01*
X93316Y41959D01*
X93428Y41847D01*
X93528Y41747D01*
X93628Y41672D01*
X93703Y41610D01*
X93753Y41572D01*
X93778Y41560D01*
X93966Y41460D01*
X94166Y41372D01*
X94366Y41297D01*
X94566Y41235D01*
X94741Y41185D01*
X94878Y41147D01*
X94928Y41122D01*
X94966D01*
X94991Y41110D01*
X95003D01*
X95316Y41060D01*
X95640Y41022D01*
X95965Y40985D01*
X96265Y40972D01*
X96415Y40960D01*
X96540D01*
X96653Y40947D01*
X96753D01*
X96840D01*
X96903D01*
X96940D01*
X96953D01*
X97378Y40960D01*
X97752Y40972D01*
X97927Y40985D01*
X98077Y40997D01*
X98227Y41010D01*
X98365Y41035D01*
X98477Y41047D01*
X98590Y41060D01*
X98677Y41072D01*
X98752Y41085D01*
X98815Y41097D01*
X98852D01*
X98877Y41110D01*
X98890D01*
X99164Y41185D01*
X99415Y41260D01*
X99614Y41335D01*
X99789Y41397D01*
X99927Y41460D01*
X100027Y41509D01*
X100089Y41547D01*
X100114Y41560D01*
X100277Y41672D01*
X100414Y41785D01*
X100527Y41897D01*
X100614Y41997D01*
X100677Y42084D01*
X100727Y42159D01*
X100752Y42209D01*
X100764Y42222D01*
X100827Y42359D01*
X100877Y42497D01*
X100902Y42634D01*
X100927Y42747D01*
X100939Y42847D01*
X100952Y42922D01*
Y42984D01*
X100939Y43134D01*
X100927Y43284D01*
X100889Y43409D01*
X100864Y43534D01*
X100827Y43634D01*
X100789Y43709D01*
X100777Y43759D01*
X100764Y43772D01*
X100677Y43909D01*
X100589Y44034D01*
X100477Y44146D01*
X100364Y44246D01*
X100277Y44321D01*
X100189Y44384D01*
X100139Y44421D01*
X100114Y44434D01*
X99927Y44534D01*
X99739Y44634D01*
X99527Y44709D01*
X99340Y44771D01*
X99164Y44821D01*
X99015Y44859D01*
X98965Y44884D01*
X98927D01*
X98902Y44896D01*
X98890D01*
X98590Y44959D01*
X98265Y44996D01*
X97940Y45034D01*
X97640Y45046D01*
X97490Y45059D01*
X97365D01*
X97253Y45071D01*
D02*
G37*
G36*
X99190Y35511D02*
X99152D01*
X99127D01*
X99115D01*
X98965D01*
X98827Y35486D01*
X98690Y35474D01*
X98577Y35449D01*
X98490Y35424D01*
X98415Y35399D01*
X98365Y35386D01*
X98352Y35374D01*
X98227Y35311D01*
X98115Y35249D01*
X98015Y35186D01*
X97927Y35111D01*
X97852Y35061D01*
X97802Y35011D01*
X97765Y34974D01*
X97752Y34961D01*
X97665Y34849D01*
X97590Y34736D01*
X97515Y34624D01*
X97465Y34511D01*
X97428Y34411D01*
X97390Y34336D01*
X97378Y34286D01*
X97365Y34261D01*
X97315Y34099D01*
X97290Y33924D01*
X97265Y33761D01*
X97240Y33599D01*
Y33462D01*
X97227Y33362D01*
Y32012D01*
X100839D01*
Y33499D01*
X100814Y33686D01*
X100802Y33861D01*
X100764Y34024D01*
X100739Y34174D01*
X100702Y34311D01*
X100652Y34436D01*
X100614Y34549D01*
X100577Y34649D01*
X100527Y34724D01*
X100489Y34799D01*
X100464Y34861D01*
X100427Y34899D01*
X100414Y34936D01*
X100389Y34961D01*
X100302Y35061D01*
X100202Y35149D01*
X100002Y35274D01*
X99789Y35374D01*
X99589Y35449D01*
X99402Y35486D01*
X99252Y35499D01*
X99190Y35511D01*
D02*
G37*
G36*
X73648D02*
X73611D01*
X73586D01*
X73573D01*
X73423D01*
X73286Y35486D01*
X73148Y35474D01*
X73036Y35449D01*
X72948Y35424D01*
X72873Y35399D01*
X72823Y35386D01*
X72811Y35374D01*
X72686Y35311D01*
X72573Y35249D01*
X72473Y35186D01*
X72386Y35111D01*
X72311Y35061D01*
X72261Y35011D01*
X72223Y34974D01*
X72211Y34961D01*
X72123Y34849D01*
X72048Y34736D01*
X71974Y34624D01*
X71923Y34511D01*
X71886Y34411D01*
X71849Y34336D01*
X71836Y34286D01*
X71824Y34261D01*
X71774Y34099D01*
X71748Y33924D01*
X71723Y33761D01*
X71698Y33599D01*
Y33462D01*
X71686Y33362D01*
Y32012D01*
X75298D01*
Y33499D01*
X75273Y33686D01*
X75260Y33861D01*
X75223Y34024D01*
X75198Y34174D01*
X75160Y34311D01*
X75110Y34436D01*
X75073Y34549D01*
X75035Y34649D01*
X74985Y34724D01*
X74948Y34799D01*
X74923Y34861D01*
X74885Y34899D01*
X74873Y34936D01*
X74848Y34961D01*
X74760Y35061D01*
X74660Y35149D01*
X74460Y35274D01*
X74248Y35374D01*
X74048Y35449D01*
X73861Y35486D01*
X73710Y35499D01*
X73648Y35511D01*
D02*
G37*
G36*
X148114Y46796D02*
X148014D01*
X147926D01*
X147864D01*
X147826D01*
X147814D01*
X147389Y46783D01*
X147014Y46771D01*
X146839Y46758D01*
X146676Y46746D01*
X146539Y46721D01*
X146402Y46708D01*
X146277Y46696D01*
X146177Y46671D01*
X146077Y46658D01*
X146002Y46646D01*
X145939Y46633D01*
X145902D01*
X145877Y46621D01*
X145864D01*
X145589Y46546D01*
X145352Y46471D01*
X145139Y46396D01*
X144964Y46321D01*
X144827Y46258D01*
X144727Y46208D01*
X144664Y46171D01*
X144640Y46158D01*
X144489Y46046D01*
X144352Y45933D01*
X144240Y45821D01*
X144152Y45721D01*
X144090Y45634D01*
X144040Y45559D01*
X144015Y45508D01*
X144002Y45496D01*
X143940Y45359D01*
X143902Y45221D01*
X143865Y45084D01*
X143852Y44959D01*
X143840Y44859D01*
X143827Y44784D01*
Y44709D01*
X143840Y44571D01*
X143852Y44421D01*
X143877Y44296D01*
X143915Y44184D01*
X143952Y44084D01*
X143977Y44009D01*
X143990Y43959D01*
X144002Y43946D01*
X144090Y43809D01*
X144177Y43684D01*
X144290Y43572D01*
X144389Y43471D01*
X144489Y43397D01*
X144565Y43334D01*
X144614Y43297D01*
X144640Y43284D01*
X144827Y43184D01*
X145027Y43097D01*
X145227Y43022D01*
X145427Y42959D01*
X145602Y42909D01*
X145739Y42872D01*
X145789Y42847D01*
X145827D01*
X145852Y42834D01*
X145864D01*
X146177Y42784D01*
X146502Y42747D01*
X146826Y42709D01*
X147126Y42697D01*
X147276Y42684D01*
X147401D01*
X147514Y42672D01*
X147614D01*
X147701D01*
X147764D01*
X147801D01*
X147814D01*
X148238Y42684D01*
X148613Y42697D01*
X148788Y42709D01*
X148938Y42722D01*
X149088Y42734D01*
X149226Y42759D01*
X149338Y42772D01*
X149451Y42784D01*
X149538Y42797D01*
X149613Y42809D01*
X149676Y42822D01*
X149713D01*
X149738Y42834D01*
X149751D01*
X150026Y42909D01*
X150275Y42984D01*
X150476Y43059D01*
X150650Y43122D01*
X150788Y43184D01*
X150888Y43234D01*
X150950Y43272D01*
X150975Y43284D01*
X151138Y43397D01*
X151275Y43509D01*
X151388Y43622D01*
X151475Y43721D01*
X151538Y43809D01*
X151588Y43884D01*
X151613Y43934D01*
X151625Y43946D01*
X151688Y44084D01*
X151738Y44221D01*
X151763Y44359D01*
X151788Y44471D01*
X151800Y44571D01*
X151813Y44646D01*
Y44709D01*
X151800Y44859D01*
X151788Y45009D01*
X151750Y45134D01*
X151725Y45259D01*
X151688Y45359D01*
X151650Y45434D01*
X151638Y45483D01*
X151625Y45496D01*
X151538Y45634D01*
X151450Y45759D01*
X151338Y45871D01*
X151225Y45971D01*
X151138Y46046D01*
X151050Y46108D01*
X151000Y46146D01*
X150975Y46158D01*
X150788Y46258D01*
X150600Y46358D01*
X150388Y46433D01*
X150201Y46496D01*
X150026Y46546D01*
X149876Y46583D01*
X149826Y46608D01*
X149788D01*
X149763Y46621D01*
X149751D01*
X149451Y46683D01*
X149126Y46721D01*
X148801Y46758D01*
X148501Y46771D01*
X148351Y46783D01*
X148226D01*
X148114Y46796D01*
D02*
G37*
G36*
X209282Y164106D02*
X208726D01*
X208226Y164051D01*
X207726D01*
X207393Y163995D01*
X207115Y163940D01*
X206949Y163884D01*
X206893D01*
X206338Y163717D01*
X205838Y163495D01*
X205449Y163273D01*
X205060Y162995D01*
X204838Y162773D01*
X204615Y162607D01*
X204504Y162495D01*
X204449Y162440D01*
X204004Y161773D01*
X203727Y161107D01*
X203505Y160385D01*
X203338Y159774D01*
X203282Y159218D01*
X203227Y158774D01*
Y158496D01*
Y158385D01*
Y157885D01*
X208004D01*
X208115Y158774D01*
Y159162D01*
X208171Y159496D01*
X208282Y159996D01*
X208393Y160273D01*
X208449Y160385D01*
X208726Y160662D01*
X209004Y160773D01*
X209226Y160829D01*
X209726D01*
X210004Y160662D01*
X210226Y160551D01*
X210282Y160496D01*
X210448Y160218D01*
X210615Y159829D01*
X210782Y158940D01*
Y158551D01*
X210837Y158218D01*
Y157996D01*
Y157885D01*
X210893Y156663D01*
X210948Y155663D01*
Y154885D01*
Y154219D01*
Y153774D01*
Y153441D01*
Y153274D01*
Y153219D01*
Y152552D01*
X210893Y151885D01*
Y151608D01*
X210837Y151385D01*
Y151219D01*
Y151163D01*
X210782Y150441D01*
X210726Y149830D01*
X210671Y149386D01*
X210615Y148997D01*
X210504Y148775D01*
X210448Y148608D01*
X210393Y148497D01*
X210059Y148275D01*
X209782Y148164D01*
X209559Y148108D01*
X209504D01*
X209060Y148164D01*
X208726Y148275D01*
X208560Y148386D01*
X208504Y148441D01*
X208282Y148719D01*
X208115Y149052D01*
X207893Y149941D01*
Y150330D01*
X207837Y150663D01*
Y150885D01*
Y150997D01*
Y151996D01*
X209504D01*
Y153496D01*
X209393Y155163D01*
X203227D01*
Y150108D01*
Y145164D01*
X204893D01*
X206560Y145275D01*
X206671Y145886D01*
X206726Y146553D01*
X207115Y146164D01*
X207504Y145830D01*
X207837Y145553D01*
X208226Y145330D01*
X208560Y145164D01*
X208837Y145053D01*
X209060Y144997D01*
X209171Y144942D01*
X209226D01*
X210004Y144831D01*
X211504D01*
X212115Y144942D01*
X212670Y145053D01*
X213170Y145219D01*
X213559Y145442D01*
X213892Y145608D01*
X214115Y145719D01*
X214226Y145830D01*
X214281Y145886D01*
X214726Y146441D01*
X215059Y147108D01*
X215337Y147886D01*
X215559Y148608D01*
X215725Y149330D01*
X215837Y149886D01*
Y150108D01*
X215892Y150274D01*
Y150386D01*
Y150441D01*
X215948Y151608D01*
Y152774D01*
Y153996D01*
X215892Y155163D01*
X215837Y156163D01*
X215781Y156607D01*
Y156996D01*
Y157274D01*
X215725Y157551D01*
Y157663D01*
Y157718D01*
X215614Y158607D01*
X215448Y159329D01*
X215281Y159996D01*
X215114Y160496D01*
X215003Y160940D01*
X214892Y161218D01*
X214781Y161384D01*
Y161440D01*
X214503Y161884D01*
X214226Y162273D01*
X213892Y162607D01*
X213559Y162884D01*
X213226Y163106D01*
X213004Y163273D01*
X212837Y163329D01*
X212781Y163384D01*
X212337Y163551D01*
X211893Y163717D01*
X210948Y163884D01*
X210559Y163995D01*
X210226D01*
X210004Y164051D01*
X209948D01*
X209282Y164106D01*
D02*
G37*
G36*
X241112Y163773D02*
X230057D01*
Y161829D01*
Y159829D01*
X236168D01*
Y158218D01*
Y157663D01*
Y157274D01*
Y156996D01*
X236112Y156829D01*
Y156718D01*
Y156607D01*
X230502D01*
Y154719D01*
X230446Y152774D01*
X236168D01*
Y148997D01*
Y145164D01*
X241112D01*
Y154496D01*
Y163773D01*
D02*
G37*
G36*
X229224D02*
X223558D01*
X222891Y163717D01*
X221780D01*
X221336Y163662D01*
X220947D01*
X220614Y163606D01*
X220114Y163551D01*
X219781Y163495D01*
X219614Y163440D01*
X219558D01*
X218892Y163218D01*
X218447Y162940D01*
X218114Y162718D01*
X218003Y162607D01*
X217559Y162107D01*
X217225Y161495D01*
X216948Y160884D01*
X216781Y160329D01*
X216614Y159774D01*
X216503Y159329D01*
X216448Y159051D01*
Y158996D01*
Y158940D01*
X216392Y158107D01*
X216448Y157329D01*
X216559Y156607D01*
X216725Y155941D01*
X216948Y155385D01*
X217225Y154885D01*
X217503Y154441D01*
X217836Y154052D01*
X218170Y153719D01*
X218503Y153441D01*
X219058Y152996D01*
X219336Y152885D01*
X219503Y152774D01*
X219614Y152719D01*
X219669D01*
X220114Y152608D01*
X220558Y152497D01*
X221558Y152385D01*
X222003D01*
X222336Y152330D01*
X224225D01*
Y148719D01*
Y145164D01*
X229224D01*
Y154496D01*
Y163773D01*
D02*
G37*
G36*
X197894D02*
X192228D01*
X192172Y163495D01*
Y163440D01*
X192117Y163273D01*
X192061Y162940D01*
X191950Y162440D01*
X191784Y161940D01*
X191672Y161384D01*
X191561Y160996D01*
X191506Y160662D01*
X191450Y160607D01*
Y160551D01*
X191228Y159607D01*
X191006Y158774D01*
X190784Y158051D01*
X190617Y157385D01*
X190450Y156885D01*
X190395Y156496D01*
X190284Y156274D01*
Y156163D01*
X190006Y154885D01*
X189839Y154330D01*
X189728Y153885D01*
X189673Y153441D01*
X189562Y153163D01*
X189506Y152941D01*
Y152885D01*
X189173Y151719D01*
X188895Y150497D01*
X188617Y149386D01*
X188340Y148330D01*
X188117Y147386D01*
X188006Y146997D01*
X187951Y146664D01*
X187895Y146441D01*
X187840Y146219D01*
X187784Y146108D01*
Y146053D01*
X187728Y145775D01*
X187673Y145608D01*
X187562Y145330D01*
Y145219D01*
X187673D01*
X187951Y145164D01*
X190117D01*
X192672Y145275D01*
X192783Y146164D01*
X192894Y146775D01*
X193006Y147275D01*
X193061Y147552D01*
X193117Y147664D01*
X193228Y148275D01*
X196950D01*
X197283Y146719D01*
X197505Y145164D01*
X201949D01*
X202283Y145219D01*
X202616D01*
Y145275D01*
X202560Y145442D01*
X202449Y145830D01*
X202338Y146219D01*
X202283Y146330D01*
Y146386D01*
X202171Y146719D01*
X202116Y147108D01*
X202005Y147608D01*
X201838Y148108D01*
X201560Y149275D01*
X201283Y150441D01*
X201005Y151497D01*
X200894Y151996D01*
X200783Y152441D01*
X200672Y152774D01*
X200616Y153052D01*
X200560Y153219D01*
Y153274D01*
X200394Y153941D01*
X200227Y154552D01*
X200116Y155107D01*
X200005Y155552D01*
X199894Y155941D01*
X199838Y156218D01*
X199783Y156385D01*
Y156440D01*
X199616Y156996D01*
X199394Y157663D01*
X199227Y158385D01*
X199061Y159051D01*
X198894Y159662D01*
X198783Y160162D01*
X198672Y160496D01*
Y160551D01*
Y160607D01*
X198561Y161107D01*
X198449Y161551D01*
X198283Y162218D01*
X198116Y162773D01*
X198005Y163106D01*
X197950Y163329D01*
X197894Y163495D01*
Y163551D01*
Y163773D01*
D02*
G37*
G36*
X243723Y143831D02*
X240834D01*
X240390Y143775D01*
X239945D01*
X239890Y143720D01*
X239834D01*
Y143664D01*
Y143497D01*
X239779Y143275D01*
Y142942D01*
X239667Y142220D01*
X239556Y141386D01*
X239501Y140498D01*
X239390Y139776D01*
Y139498D01*
X239334Y139276D01*
Y139109D01*
Y139053D01*
X239223Y137776D01*
X239056Y136665D01*
X239001Y135776D01*
X238890Y134998D01*
X238834Y134443D01*
Y134054D01*
X238779Y133776D01*
Y133721D01*
X238723Y133165D01*
X238612Y132776D01*
Y132499D01*
X238556Y132276D01*
X238501Y132165D01*
X238445Y132276D01*
X238390Y132610D01*
X238334Y132943D01*
Y132999D01*
Y133054D01*
X238223Y133776D01*
X238168Y134387D01*
X238112Y134665D01*
X238057Y134887D01*
Y134998D01*
Y135054D01*
X237890Y136387D01*
X237668Y137720D01*
X237501Y138942D01*
X237390Y139998D01*
X237223Y140887D01*
X237168Y141275D01*
Y141553D01*
X237112Y141831D01*
X237057Y141998D01*
Y142109D01*
Y142164D01*
X236834Y143831D01*
X232613D01*
X232446Y142664D01*
X232335Y141942D01*
X232279Y141220D01*
X232168Y140442D01*
X232057Y139776D01*
X232002Y139164D01*
X231946Y138665D01*
X231891Y138331D01*
Y138276D01*
Y138220D01*
X231835Y137887D01*
X231779Y137498D01*
X231613Y136665D01*
X231557Y136276D01*
Y135998D01*
X231502Y135776D01*
Y135720D01*
X231390Y135054D01*
X231335Y134498D01*
X231279Y133998D01*
X231224Y133610D01*
X231168Y133221D01*
X231113Y132943D01*
X231057Y132499D01*
X231002Y132221D01*
Y132110D01*
X230946Y132276D01*
Y132387D01*
X230891Y132721D01*
X230835Y132832D01*
Y132887D01*
Y133110D01*
X230779Y133332D01*
X230724Y133998D01*
X230668Y134720D01*
X230613Y135498D01*
X230502Y136220D01*
X230446Y136831D01*
Y137109D01*
X230391Y137276D01*
Y137387D01*
Y137443D01*
X230335Y138109D01*
X230224Y138665D01*
X230168Y139220D01*
X230113Y139720D01*
X230057Y140498D01*
X229946Y141053D01*
Y141498D01*
X229891Y141775D01*
Y141887D01*
Y141942D01*
X229835Y142498D01*
X229780Y142886D01*
X229724Y143164D01*
Y143220D01*
X229613Y143831D01*
X226058D01*
X225669Y143775D01*
X225224D01*
X225169Y143720D01*
X225113D01*
Y143664D01*
Y143553D01*
X225169Y143331D01*
X225224Y143109D01*
X225280Y142442D01*
X225391Y141775D01*
X225502Y141053D01*
X225558Y140442D01*
X225613Y140164D01*
X225669Y139998D01*
Y139887D01*
Y139831D01*
X225947Y138109D01*
X226224Y136498D01*
X226447Y135054D01*
X226669Y133776D01*
X226891Y132610D01*
X227058Y131610D01*
X227169Y130721D01*
X227335Y129999D01*
X227446Y129332D01*
X227558Y128777D01*
X227613Y128332D01*
X227669Y127999D01*
X227724Y127777D01*
X227780Y127555D01*
Y127499D01*
Y127444D01*
X227835Y126944D01*
X227891Y126610D01*
X227946Y126333D01*
Y126110D01*
X228002Y125999D01*
Y125944D01*
Y125888D01*
X228113D01*
X228391Y125833D01*
X232502D01*
X232835Y125888D01*
X233168D01*
Y125999D01*
X233224Y126277D01*
X233279Y126610D01*
Y126944D01*
X233335Y127332D01*
X233390Y127666D01*
X233446Y127888D01*
Y127943D01*
X233612Y129221D01*
X233779Y130388D01*
X233946Y131332D01*
X234057Y132165D01*
X234112Y132776D01*
X234168Y133221D01*
X234224Y133498D01*
Y133610D01*
X234335Y134498D01*
X234390Y134943D01*
X234446Y135276D01*
X234501Y135609D01*
Y135831D01*
X234557Y135998D01*
Y136054D01*
X234612Y136276D01*
X234668Y136443D01*
X234723Y136554D01*
Y136609D01*
Y136887D01*
X234779Y136998D01*
X234835Y137109D01*
Y136998D01*
X234890Y136831D01*
Y136776D01*
Y136443D01*
X234946Y136054D01*
X235001Y135720D01*
Y135665D01*
Y135609D01*
X235057Y134998D01*
X235168Y134498D01*
Y134276D01*
X235224Y134109D01*
Y133998D01*
Y133943D01*
X235335Y133110D01*
X235446Y132165D01*
X235557Y131165D01*
X235668Y130110D01*
X235835Y129221D01*
X235890Y128832D01*
Y128443D01*
X235946Y128166D01*
X236001Y127943D01*
Y127832D01*
Y127777D01*
X236112Y127332D01*
X236168Y126999D01*
X236223Y126721D01*
Y126499D01*
X236279Y126333D01*
Y126221D01*
Y126166D01*
X236334Y125833D01*
X240834D01*
X241112Y125888D01*
X241445D01*
Y125944D01*
X241501Y126110D01*
Y126333D01*
X241556Y126610D01*
X241723Y127332D01*
X241834Y128166D01*
X242001Y128999D01*
X242167Y129721D01*
X242223Y130054D01*
Y130276D01*
X242278Y130388D01*
Y130443D01*
X242500Y131665D01*
X242667Y132776D01*
X242834Y133832D01*
X243001Y134832D01*
X243167Y135720D01*
X243278Y136554D01*
X243389Y137387D01*
X243556Y138109D01*
X243612Y138776D01*
X243723Y139387D01*
X243889Y140442D01*
X244056Y141331D01*
X244167Y142053D01*
X244278Y142609D01*
X244334Y142998D01*
X244389Y143331D01*
Y143497D01*
X244445Y143609D01*
Y143720D01*
X244334Y143775D01*
X244111D01*
X243723Y143831D01*
D02*
G37*
G36*
X220892D02*
X215448D01*
Y143664D01*
Y143609D01*
X215392Y143497D01*
X215337Y143164D01*
X215170Y142720D01*
X215059Y142220D01*
X214948Y141720D01*
X214837Y141331D01*
X214726Y140998D01*
Y140942D01*
Y140887D01*
X214448Y139942D01*
X214281Y139053D01*
X214059Y138331D01*
X213948Y137776D01*
X213837Y137276D01*
X213726Y136943D01*
X213670Y136720D01*
Y136665D01*
X213392Y135609D01*
X213281Y135109D01*
X213170Y134665D01*
X213059Y134332D01*
X213004Y134054D01*
X212948Y133832D01*
Y133776D01*
X212781Y133165D01*
X212615Y132554D01*
X212448Y131832D01*
X212281Y131165D01*
X212115Y130610D01*
X212004Y130110D01*
X211893Y129777D01*
Y129721D01*
Y129665D01*
X211670Y128777D01*
X211448Y128055D01*
X211337Y127499D01*
X211226Y127110D01*
X211170Y126833D01*
X211115Y126666D01*
Y126555D01*
X211059Y126333D01*
X211004Y126110D01*
X210948Y126055D01*
Y125999D01*
Y125833D01*
X215892D01*
X216059Y127055D01*
X216114Y127499D01*
X216170Y127832D01*
X216225Y128110D01*
Y128277D01*
X216281Y128443D01*
Y128554D01*
Y128610D01*
X216336Y128832D01*
X220003D01*
Y128666D01*
Y128554D01*
X220058Y128388D01*
X220170Y127888D01*
X220225Y127666D01*
Y127499D01*
X220281Y127332D01*
Y127277D01*
X220336Y126888D01*
X220392Y126555D01*
X220447Y126333D01*
Y126166D01*
X220503Y126055D01*
Y125999D01*
Y125944D01*
Y125833D01*
X224391D01*
X224836Y125888D01*
X225336D01*
X225391Y125944D01*
X225447D01*
Y125999D01*
X225391Y126166D01*
X225336Y126444D01*
X225224Y126777D01*
X225113Y127110D01*
X225002Y127555D01*
X224780Y128443D01*
X224558Y129388D01*
X224447Y129777D01*
X224336Y130165D01*
X224225Y130499D01*
X224169Y130721D01*
X224114Y130888D01*
Y130943D01*
X224002Y131443D01*
X223836Y132110D01*
X223669Y132776D01*
X223503Y133498D01*
X223336Y134165D01*
X223169Y134720D01*
X223114Y134943D01*
Y135109D01*
X223058Y135165D01*
Y135220D01*
X222780Y136387D01*
X222503Y137498D01*
X222280Y138498D01*
X222058Y139331D01*
X221891Y140053D01*
X221725Y140609D01*
X221669Y140942D01*
X221614Y140998D01*
Y141053D01*
X220892Y143831D01*
D02*
G37*
G36*
X210226D02*
X205060D01*
X204282Y143775D01*
X203616D01*
X203060Y143720D01*
X202560D01*
X202116Y143664D01*
X201727D01*
X201449Y143609D01*
X200949Y143553D01*
X200672D01*
X200560Y143497D01*
X200505D01*
X200005Y143220D01*
X199616Y142886D01*
X199338Y142609D01*
X199227Y142553D01*
Y142498D01*
X198838Y141998D01*
X198505Y141386D01*
X198283Y140831D01*
X198172Y140220D01*
X198061Y139720D01*
X198005Y139331D01*
Y139053D01*
Y138942D01*
X198061Y138165D01*
X198172Y137498D01*
X198283Y136943D01*
X198449Y136498D01*
X198672Y136165D01*
X198783Y135887D01*
X198894Y135776D01*
X198950Y135720D01*
X199394Y135332D01*
X199894Y135054D01*
X200227Y134887D01*
X200338Y134832D01*
X200394D01*
X200672Y134720D01*
X200394Y134665D01*
X200116Y134554D01*
X199838Y134443D01*
X199394Y134109D01*
X199061Y133832D01*
X199005Y133776D01*
X198950Y133721D01*
X198727Y133443D01*
X198505Y133165D01*
X198283Y132665D01*
X198172Y132276D01*
Y132221D01*
Y132165D01*
X198116Y131943D01*
Y131554D01*
X198061Y131054D01*
Y130554D01*
Y130054D01*
Y129665D01*
Y129388D01*
Y129332D01*
Y129277D01*
Y128443D01*
X198005Y127832D01*
Y127332D01*
X197950Y126944D01*
Y126666D01*
X197894Y126499D01*
Y126444D01*
Y126388D01*
X197783Y126110D01*
X197727Y125999D01*
Y125888D01*
X197838D01*
X198116Y125833D01*
X202449D01*
X202505Y126166D01*
X202560Y126221D01*
Y126388D01*
X202616Y126721D01*
X202671Y127221D01*
Y127777D01*
Y128332D01*
X202727Y128777D01*
Y129110D01*
Y129166D01*
Y129221D01*
Y129721D01*
Y130165D01*
X202782Y130888D01*
Y131443D01*
Y131888D01*
X202838Y132110D01*
Y132276D01*
Y132387D01*
X203060Y132721D01*
X203338Y132943D01*
X203560Y133054D01*
X203616Y133110D01*
X203671D01*
X203782Y133165D01*
X203893D01*
X204227Y133221D01*
X205449D01*
Y129499D01*
Y125833D01*
X210226D01*
Y134832D01*
Y143831D01*
D02*
G37*
G36*
X191006Y144108D02*
X190561D01*
X189617Y144053D01*
X188839Y143886D01*
X188173Y143720D01*
X187562Y143497D01*
X187117Y143220D01*
X186840Y143053D01*
X186617Y142886D01*
X186562Y142831D01*
X186117Y142331D01*
X185784Y141720D01*
X185506Y141053D01*
X185340Y140442D01*
X185229Y139887D01*
X185173Y139442D01*
Y139164D01*
Y139109D01*
Y139053D01*
Y138553D01*
X189673D01*
Y139053D01*
X189728Y139498D01*
X189784Y139887D01*
X189895Y140164D01*
X190006Y140387D01*
X190173Y140553D01*
X190284Y140664D01*
X190339Y140720D01*
X190395D01*
X190728Y140831D01*
X191006Y140887D01*
X191228Y140831D01*
X191339D01*
X191728Y140609D01*
X192006Y140331D01*
X192117Y140109D01*
X192172Y139998D01*
X192228Y139387D01*
X192172Y138887D01*
X192117Y138553D01*
X192061Y138498D01*
Y138442D01*
X191839Y138165D01*
X191617Y137942D01*
X191395Y137776D01*
X191339Y137720D01*
X191061Y137554D01*
X190617Y137331D01*
X190117Y137109D01*
X189562Y136831D01*
X189006Y136609D01*
X188562Y136387D01*
X188284Y136276D01*
X188173Y136220D01*
X187673Y135943D01*
X187173Y135665D01*
X186395Y135054D01*
X185840Y134498D01*
X185395Y133998D01*
X185118Y133610D01*
X184895Y133221D01*
X184784Y132999D01*
Y132943D01*
X184673Y132499D01*
X184618Y132054D01*
Y131110D01*
X184673Y130721D01*
Y130388D01*
X184729Y130165D01*
Y130110D01*
X184895Y129388D01*
X185118Y128721D01*
X185395Y128166D01*
X185673Y127721D01*
X185895Y127388D01*
X186117Y127166D01*
X186229Y126999D01*
X186284Y126944D01*
X186728Y126610D01*
X187284Y126333D01*
X188395Y125888D01*
X188895Y125777D01*
X189284Y125666D01*
X189562Y125610D01*
X189673D01*
X190173Y125555D01*
X190672Y125499D01*
X191895D01*
X192339Y125555D01*
X192561Y125610D01*
X192672D01*
X193283Y125722D01*
X193839Y125888D01*
X194339Y126110D01*
X194728Y126333D01*
X195505Y126888D01*
X196005Y127499D01*
X196394Y128055D01*
X196672Y128554D01*
X196783Y128888D01*
X196839Y128943D01*
Y128999D01*
X197005Y129832D01*
X197061Y130165D01*
Y130443D01*
Y130665D01*
X197005Y130888D01*
Y130943D01*
Y130999D01*
Y131276D01*
X192561D01*
Y130943D01*
X192506Y130665D01*
Y130443D01*
Y130332D01*
Y130276D01*
X192450Y129888D01*
X192339Y129610D01*
X192283Y129388D01*
X192228Y129277D01*
X192006Y128999D01*
X191784Y128888D01*
X191672Y128777D01*
X191617D01*
X191395Y128721D01*
X191117Y128666D01*
X190728Y128721D01*
X190506Y128777D01*
X190395Y128832D01*
X190006Y128999D01*
X189784Y129277D01*
X189617Y129443D01*
X189562Y129554D01*
X189506Y129832D01*
Y130110D01*
Y130332D01*
Y130388D01*
X189562Y130999D01*
X189728Y131499D01*
X189895Y131776D01*
X189950Y131888D01*
X190117Y131999D01*
X190450Y132165D01*
X190839Y132387D01*
X191228Y132554D01*
X191617Y132776D01*
X191895Y132887D01*
X192117Y132999D01*
X192228Y133054D01*
X193061Y133443D01*
X193783Y133776D01*
X194339Y134109D01*
X194728Y134387D01*
X195061Y134554D01*
X195228Y134720D01*
X195339Y134776D01*
X195394Y134832D01*
X195839Y135332D01*
X196116Y135776D01*
X196339Y136109D01*
X196394Y136165D01*
Y136220D01*
X196672Y136998D01*
X196783Y137720D01*
X196839Y138054D01*
Y138331D01*
Y138498D01*
Y138553D01*
X196783Y139442D01*
X196728Y139831D01*
X196672Y140164D01*
X196616Y140442D01*
X196561Y140664D01*
X196505Y140775D01*
Y140831D01*
X196227Y141386D01*
X195950Y141942D01*
X195561Y142331D01*
X195117Y142720D01*
X194617Y143053D01*
X194117Y143331D01*
X193117Y143720D01*
X192172Y143942D01*
X191728Y143997D01*
X191339Y144053D01*
X191006Y144108D01*
D02*
G37*
%LPD*%
G36*
X224225Y158051D02*
Y155885D01*
X223114D01*
X222836Y155941D01*
X222614D01*
X222169Y156218D01*
X221836Y156552D01*
X221669Y156829D01*
X221614Y156940D01*
X221503Y157218D01*
X221447Y157607D01*
Y157940D01*
Y157996D01*
Y158051D01*
Y158607D01*
X221503Y158996D01*
X221558Y159218D01*
X221614Y159274D01*
X221891Y159662D01*
X222169Y159885D01*
X222391Y159996D01*
X222503Y160051D01*
X222614Y160107D01*
X222725Y160162D01*
X223058Y160218D01*
X224225D01*
Y158051D01*
D02*
G37*
G36*
X195172Y159274D02*
Y159218D01*
Y159162D01*
Y159107D01*
Y158940D01*
X195228Y158607D01*
X195283Y158218D01*
X195339Y157829D01*
X195450Y157385D01*
X195505Y156996D01*
X195561Y156774D01*
Y156663D01*
X195672Y155885D01*
X195783Y155218D01*
X195894Y154663D01*
X196005Y154219D01*
X196061Y153885D01*
Y153608D01*
X196116Y153496D01*
Y153441D01*
X196172Y153108D01*
X196227Y152830D01*
X196283Y152608D01*
X196339Y152441D01*
X196394Y152274D01*
Y152219D01*
Y152052D01*
X193783D01*
Y152108D01*
Y152219D01*
X193839Y152552D01*
X193950Y153052D01*
X194006Y153552D01*
X194117Y154107D01*
X194228Y154552D01*
X194283Y154885D01*
Y154941D01*
Y154996D01*
X194339Y155330D01*
X194394Y155718D01*
X194561Y156552D01*
X194617Y156940D01*
X194672Y157274D01*
X194728Y157496D01*
Y157551D01*
X194839Y158162D01*
X194950Y158607D01*
X195005Y158885D01*
X195061Y159107D01*
Y159218D01*
X195117Y159329D01*
X195172Y159274D01*
D02*
G37*
G36*
X218225Y139331D02*
X218281Y139053D01*
X218336Y138665D01*
X218392Y138220D01*
X218503Y137831D01*
X218559Y137443D01*
X218614Y137220D01*
Y137109D01*
X218725Y136387D01*
X218836Y135720D01*
X218947Y135165D01*
X219003Y134665D01*
X219114Y134221D01*
X219170Y133887D01*
X219225Y133610D01*
Y133332D01*
X219281Y132999D01*
X219336Y132832D01*
Y132721D01*
X219447Y132499D01*
X216948D01*
X217003Y132610D01*
X217059Y132943D01*
X217114Y133332D01*
X217225Y134165D01*
X217281Y134554D01*
X217336Y134832D01*
X217392Y135054D01*
Y135109D01*
X217614Y136276D01*
X217670Y136776D01*
X217781Y137220D01*
X217836Y137609D01*
X217892Y137887D01*
X217948Y138054D01*
Y138109D01*
X218059Y138553D01*
X218114Y138887D01*
X218170Y139164D01*
Y139276D01*
X218225Y139387D01*
Y139331D01*
D02*
G37*
G36*
X205449Y138276D02*
Y136220D01*
X204727Y136276D01*
X204171Y136332D01*
X203838Y136387D01*
X203616Y136443D01*
X203560D01*
X203227Y136665D01*
X203005Y136998D01*
X202838Y137331D01*
X202727Y137665D01*
X202671Y137998D01*
X202616Y138276D01*
Y138498D01*
Y138553D01*
X202727Y139164D01*
X202894Y139609D01*
X203060Y139887D01*
X203171Y139942D01*
X203338Y140053D01*
X203560Y140164D01*
X204060Y140275D01*
X204282Y140331D01*
X204615D01*
X205449Y140387D01*
Y138276D01*
D02*
G37*
M02*
