G04*
G04 #@! TF.GenerationSoftware,Altium Limited,Altium Designer,18.0.12 (696)*
G04*
G04 Layer_Physical_Order=2*
G04 Layer_Color=65280*
%FSLAX44Y44*%
%MOMM*%
G71*
G01*
G75*
%ADD21C,1.0000*%
%ADD22C,0.3000*%
%ADD23R,1.5000X1.5000*%
%ADD24C,1.5000*%
%ADD25O,5.4000X3.0000*%
%ADD26C,5.0000*%
G36*
X311901Y254590D02*
X313513Y253513D01*
X314590Y251901D01*
X314935Y250167D01*
X314902Y250000D01*
Y224873D01*
X313632Y224685D01*
X313560Y224922D01*
X311889Y228049D01*
X310596Y229624D01*
X297911Y216939D01*
X295789Y219061D01*
X308474Y231746D01*
X306899Y233039D01*
X303772Y234710D01*
X300379Y235739D01*
X296850Y236087D01*
X272850D01*
X269321Y235739D01*
X265928Y234710D01*
X262801Y233039D01*
X260061Y230790D01*
X257811Y228049D01*
X256140Y224922D01*
X255110Y221529D01*
X254763Y218000D01*
X255110Y214471D01*
X256140Y211078D01*
X257811Y207951D01*
X259104Y206376D01*
X271789Y219061D01*
X273911Y216939D01*
X261226Y204254D01*
X262801Y202961D01*
X265928Y201290D01*
X269321Y200261D01*
X272850Y199913D01*
X296850D01*
X300379Y200261D01*
X303772Y201290D01*
X306899Y202961D01*
X309639Y205210D01*
X311889Y207951D01*
X313560Y211078D01*
X313632Y211315D01*
X314902Y211127D01*
Y168992D01*
X313632Y168524D01*
X311279Y171279D01*
X307688Y174345D01*
X303662Y176813D01*
X299299Y178620D01*
X294708Y179722D01*
X290000Y180093D01*
X285292Y179722D01*
X280701Y178620D01*
X276338Y176813D01*
X272312Y174345D01*
X268721Y171279D01*
X265655Y167688D01*
X263187Y163662D01*
X261380Y159299D01*
X260278Y154707D01*
X259907Y150000D01*
X260278Y145293D01*
X261380Y140701D01*
X263187Y136338D01*
X265655Y132312D01*
X268721Y128721D01*
X272312Y125654D01*
X276338Y123187D01*
X280701Y121380D01*
X285292Y120278D01*
X290000Y119907D01*
X294708Y120278D01*
X295539Y120477D01*
X296160Y119369D01*
X264395Y87605D01*
X263290Y85951D01*
X262902Y84000D01*
Y10000D01*
X262935Y9833D01*
X262590Y8099D01*
X261513Y6487D01*
X259901Y5410D01*
X258167Y5065D01*
X258000Y5098D01*
X63267Y5098D01*
X63243Y5098D01*
X62000Y5098D01*
X60801Y5270D01*
X60099Y5410D01*
X58487Y6487D01*
X57410Y8099D01*
X57065Y9833D01*
X57098Y10000D01*
Y84000D01*
X56710Y85951D01*
X55605Y87605D01*
X23840Y119369D01*
X24461Y120477D01*
X25292Y120278D01*
X30000Y119907D01*
X34708Y120278D01*
X39299Y121380D01*
X43662Y123187D01*
X47688Y125654D01*
X51279Y128721D01*
X54345Y132312D01*
X56813Y136338D01*
X58620Y140701D01*
X59722Y145293D01*
X60093Y150000D01*
X59722Y154707D01*
X58620Y159299D01*
X56813Y163662D01*
X54345Y167688D01*
X51279Y171279D01*
X47688Y174345D01*
X43662Y176813D01*
X39299Y178620D01*
X34708Y179722D01*
X30000Y180093D01*
X25292Y179722D01*
X20701Y178620D01*
X16338Y176813D01*
X12312Y174345D01*
X8721Y171279D01*
X6368Y168524D01*
X5098Y168992D01*
Y209772D01*
X6368Y210090D01*
X7511Y207951D01*
X8804Y206376D01*
X21489Y219061D01*
X23611Y216939D01*
X10926Y204254D01*
X12501Y202961D01*
X15628Y201290D01*
X19021Y200261D01*
X22550Y199913D01*
X46550D01*
X50079Y200261D01*
X53472Y201290D01*
X56599Y202961D01*
X59339Y205210D01*
X61589Y207951D01*
X63260Y211078D01*
X64289Y214471D01*
X64637Y218000D01*
X64289Y221529D01*
X63260Y224922D01*
X61589Y228049D01*
X60296Y229624D01*
X47611Y216939D01*
X45489Y219061D01*
X58174Y231746D01*
X56599Y233039D01*
X53472Y234710D01*
X50079Y235739D01*
X46550Y236087D01*
X22550D01*
X19021Y235739D01*
X15628Y234710D01*
X12501Y233039D01*
X9761Y230790D01*
X7511Y228049D01*
X6368Y225910D01*
X5098Y226228D01*
Y250000D01*
X5065Y250167D01*
X5410Y251901D01*
X6487Y253513D01*
X8099Y254590D01*
X9833Y254935D01*
X10000Y254902D01*
X310000Y254902D01*
X310167Y254935D01*
X311901Y254590D01*
D02*
G37*
%LPC*%
G36*
X208050Y247382D02*
X205570Y247055D01*
X203259Y246098D01*
X201275Y244575D01*
X199752Y242591D01*
X198794Y240280D01*
X198468Y237800D01*
X198794Y235320D01*
X199752Y233009D01*
X201275Y231024D01*
X203259Y229502D01*
X205570Y228545D01*
X208050Y228218D01*
X210530Y228545D01*
X212841Y229502D01*
X214825Y231024D01*
X216348Y233009D01*
X217305Y235320D01*
X217632Y237800D01*
X217305Y240280D01*
X216348Y242591D01*
X214825Y244575D01*
X212841Y246098D01*
X210530Y247055D01*
X208050Y247382D01*
D02*
G37*
G36*
X185150D02*
X182670Y247055D01*
X180359Y246098D01*
X178375Y244575D01*
X176852Y242591D01*
X175895Y240280D01*
X175568Y237800D01*
X175895Y235320D01*
X176852Y233009D01*
X178375Y231024D01*
X180359Y229502D01*
X182670Y228545D01*
X185150Y228218D01*
X187630Y228545D01*
X189941Y229502D01*
X191925Y231024D01*
X193448Y233009D01*
X194405Y235320D01*
X194732Y237800D01*
X194405Y240280D01*
X193448Y242591D01*
X191925Y244575D01*
X189941Y246098D01*
X187630Y247055D01*
X185150Y247382D01*
D02*
G37*
G36*
X162250D02*
X159770Y247055D01*
X157459Y246098D01*
X155475Y244575D01*
X153952Y242591D01*
X152994Y240280D01*
X152668Y237800D01*
X152994Y235320D01*
X153952Y233009D01*
X155475Y231024D01*
X157459Y229502D01*
X159770Y228545D01*
X162250Y228218D01*
X164730Y228545D01*
X167041Y229502D01*
X169025Y231024D01*
X170548Y233009D01*
X171505Y235320D01*
X171832Y237800D01*
X171505Y240280D01*
X170548Y242591D01*
X169025Y244575D01*
X167041Y246098D01*
X164730Y247055D01*
X162250Y247382D01*
D02*
G37*
G36*
X139350D02*
X136870Y247055D01*
X134559Y246098D01*
X132575Y244575D01*
X131052Y242591D01*
X130094Y240280D01*
X129768Y237800D01*
X130094Y235320D01*
X131052Y233009D01*
X132575Y231024D01*
X134559Y229502D01*
X136870Y228545D01*
X139350Y228218D01*
X141830Y228545D01*
X144141Y229502D01*
X146125Y231024D01*
X147648Y233009D01*
X148605Y235320D01*
X148932Y237800D01*
X148605Y240280D01*
X147648Y242591D01*
X146125Y244575D01*
X144141Y246098D01*
X141830Y247055D01*
X139350Y247382D01*
D02*
G37*
G36*
X116450D02*
X113970Y247055D01*
X111659Y246098D01*
X109675Y244575D01*
X108152Y242591D01*
X107194Y240280D01*
X106868Y237800D01*
X107194Y235320D01*
X108152Y233009D01*
X109675Y231024D01*
X111659Y229502D01*
X113970Y228545D01*
X116450Y228218D01*
X118930Y228545D01*
X121241Y229502D01*
X123225Y231024D01*
X124748Y233009D01*
X125705Y235320D01*
X126032Y237800D01*
X125705Y240280D01*
X124748Y242591D01*
X123225Y244575D01*
X121241Y246098D01*
X118930Y247055D01*
X116450Y247382D01*
D02*
G37*
G36*
X196600Y228591D02*
X193859Y228230D01*
X191305Y227172D01*
X189111Y225489D01*
X187428Y223295D01*
X186370Y220741D01*
X186009Y218000D01*
X186370Y215259D01*
X187428Y212705D01*
X188190Y211712D01*
X195539Y219061D01*
X202888Y226410D01*
X201895Y227172D01*
X199341Y228230D01*
X196600Y228591D01*
D02*
G37*
G36*
X150800D02*
X148059Y228230D01*
X145505Y227172D01*
X143311Y225489D01*
X141628Y223295D01*
X140570Y220741D01*
X140209Y218000D01*
X140570Y215259D01*
X141628Y212705D01*
X142390Y211712D01*
X149739Y219061D01*
X157088Y226410D01*
X156095Y227172D01*
X153541Y228230D01*
X150800Y228591D01*
D02*
G37*
G36*
X127900D02*
X125159Y228230D01*
X122605Y227172D01*
X120411Y225489D01*
X118728Y223295D01*
X117670Y220741D01*
X117309Y218000D01*
X117670Y215259D01*
X118728Y212705D01*
X119490Y211712D01*
X126839Y219061D01*
X134188Y226410D01*
X133195Y227172D01*
X130641Y228230D01*
X127900Y228591D01*
D02*
G37*
G36*
X105000D02*
X102259Y228230D01*
X99705Y227172D01*
X97511Y225489D01*
X95828Y223295D01*
X94770Y220741D01*
X94409Y218000D01*
X94770Y215259D01*
X95828Y212705D01*
X96590Y211712D01*
X103939Y219061D01*
X111288Y226410D01*
X110295Y227172D01*
X107741Y228230D01*
X105000Y228591D01*
D02*
G37*
G36*
X173700Y227582D02*
X171220Y227255D01*
X168909Y226298D01*
X166924Y224775D01*
X165402Y222791D01*
X164445Y220480D01*
X164118Y218000D01*
X164445Y215520D01*
X165402Y213209D01*
X166924Y211224D01*
X168909Y209702D01*
X171220Y208745D01*
X173700Y208418D01*
X176180Y208745D01*
X178491Y209702D01*
X180475Y211224D01*
X181998Y213209D01*
X182955Y215520D01*
X183282Y218000D01*
X182955Y220480D01*
X181998Y222791D01*
X180475Y224775D01*
X178491Y226298D01*
X176180Y227255D01*
X173700Y227582D01*
D02*
G37*
G36*
X205010Y224288D02*
X197661Y216939D01*
X190312Y209590D01*
X191305Y208828D01*
X193859Y207770D01*
X196600Y207409D01*
X199341Y207770D01*
X201895Y208828D01*
X204089Y210511D01*
X205772Y212705D01*
X206830Y215259D01*
X207191Y218000D01*
X206830Y220741D01*
X205772Y223295D01*
X205010Y224288D01*
D02*
G37*
G36*
X159210D02*
X151861Y216939D01*
X144512Y209590D01*
X145505Y208828D01*
X148059Y207770D01*
X150800Y207409D01*
X153541Y207770D01*
X156095Y208828D01*
X158289Y210511D01*
X159972Y212705D01*
X161030Y215259D01*
X161391Y218000D01*
X161030Y220741D01*
X159972Y223295D01*
X159210Y224288D01*
D02*
G37*
G36*
X136310D02*
X128961Y216939D01*
X121612Y209590D01*
X122605Y208828D01*
X125159Y207770D01*
X127900Y207409D01*
X130641Y207770D01*
X133195Y208828D01*
X135389Y210511D01*
X137072Y212705D01*
X138130Y215259D01*
X138491Y218000D01*
X138130Y220741D01*
X137072Y223295D01*
X136310Y224288D01*
D02*
G37*
G36*
X113410D02*
X106061Y216939D01*
X98712Y209590D01*
X99705Y208828D01*
X102259Y207770D01*
X105000Y207409D01*
X107741Y207770D01*
X110295Y208828D01*
X112489Y210511D01*
X114172Y212705D01*
X115230Y215259D01*
X115591Y218000D01*
X115230Y220741D01*
X114172Y223295D01*
X113410Y224288D01*
D02*
G37*
G36*
X208050Y208791D02*
X205309Y208430D01*
X202755Y207372D01*
X200561Y205689D01*
X198878Y203495D01*
X197820Y200941D01*
X197459Y198200D01*
X197820Y195459D01*
X198878Y192905D01*
X199640Y191912D01*
X206989Y199261D01*
X214338Y206610D01*
X213345Y207372D01*
X210791Y208430D01*
X208050Y208791D01*
D02*
G37*
G36*
X185150Y207782D02*
X182670Y207455D01*
X180359Y206498D01*
X178375Y204975D01*
X176852Y202991D01*
X175895Y200680D01*
X175568Y198200D01*
X175895Y195720D01*
X176852Y193409D01*
X178375Y191425D01*
X180359Y189902D01*
X182670Y188944D01*
X185150Y188618D01*
X187630Y188944D01*
X189941Y189902D01*
X191925Y191425D01*
X193448Y193409D01*
X194405Y195720D01*
X194732Y198200D01*
X194405Y200680D01*
X193448Y202991D01*
X191925Y204975D01*
X189941Y206498D01*
X187630Y207455D01*
X185150Y207782D01*
D02*
G37*
G36*
X139350D02*
X136870Y207455D01*
X134559Y206498D01*
X132575Y204975D01*
X131052Y202991D01*
X130094Y200680D01*
X129768Y198200D01*
X130094Y195720D01*
X131052Y193409D01*
X132575Y191425D01*
X134559Y189902D01*
X136870Y188944D01*
X139350Y188618D01*
X141830Y188944D01*
X144141Y189902D01*
X146125Y191425D01*
X147648Y193409D01*
X148605Y195720D01*
X148932Y198200D01*
X148605Y200680D01*
X147648Y202991D01*
X146125Y204975D01*
X144141Y206498D01*
X141830Y207455D01*
X139350Y207782D01*
D02*
G37*
G36*
X116450D02*
X113970Y207455D01*
X111659Y206498D01*
X109675Y204975D01*
X108152Y202991D01*
X107194Y200680D01*
X106868Y198200D01*
X107194Y195720D01*
X108152Y193409D01*
X109675Y191425D01*
X111659Y189902D01*
X113970Y188944D01*
X116450Y188618D01*
X118930Y188944D01*
X121241Y189902D01*
X123225Y191425D01*
X124748Y193409D01*
X125705Y195720D01*
X126032Y198200D01*
X125705Y200680D01*
X124748Y202991D01*
X123225Y204975D01*
X121241Y206498D01*
X118930Y207455D01*
X116450Y207782D01*
D02*
G37*
G36*
X216460Y204488D02*
X209111Y197139D01*
X201762Y189790D01*
X202755Y189028D01*
X205309Y187970D01*
X208050Y187609D01*
X210791Y187970D01*
X213345Y189028D01*
X215539Y190711D01*
X217222Y192905D01*
X218280Y195459D01*
X218641Y198200D01*
X218280Y200941D01*
X217222Y203495D01*
X216460Y204488D01*
D02*
G37*
G36*
X162250Y207782D02*
X159770Y207455D01*
X157459Y206498D01*
X155475Y204975D01*
X153952Y202991D01*
X152994Y200680D01*
X152668Y198200D01*
X152994Y195720D01*
X153952Y193409D01*
X155475Y191425D01*
X155694Y191257D01*
X156814Y190065D01*
X157293Y189475D01*
X157708Y188901D01*
X158044Y188365D01*
X158305Y187870D01*
X158494Y187420D01*
X158618Y187018D01*
X158681Y186688D01*
Y169728D01*
X147522Y158569D01*
X141395D01*
X141253Y158588D01*
X140999Y158647D01*
X140741Y158731D01*
X140477Y158843D01*
X140206Y158986D01*
X139924Y159164D01*
X139633Y159379D01*
X139334Y159633D01*
X139082Y159875D01*
X138993Y159992D01*
X137530Y161115D01*
X135827Y161820D01*
X134000Y162060D01*
X132173Y161820D01*
X130470Y161115D01*
X129008Y159992D01*
X127886Y158530D01*
X127180Y156827D01*
X126940Y155000D01*
X127180Y153173D01*
X127886Y151470D01*
X129008Y150007D01*
X130470Y148885D01*
X132173Y148180D01*
X134000Y147940D01*
X135827Y148180D01*
X137530Y148885D01*
X138993Y150007D01*
X139082Y150125D01*
X139334Y150367D01*
X139633Y150621D01*
X139924Y150836D01*
X140205Y151013D01*
X140477Y151157D01*
X140741Y151269D01*
X140999Y151353D01*
X141253Y151412D01*
X141395Y151431D01*
X149000D01*
X150366Y151703D01*
X151523Y152477D01*
X164773Y165727D01*
X165547Y166884D01*
X165819Y168250D01*
Y186688D01*
X165882Y187018D01*
X166006Y187420D01*
X166195Y187870D01*
X166456Y188365D01*
X166792Y188901D01*
X167191Y189454D01*
X168292Y190739D01*
X168778Y191235D01*
X169025Y191425D01*
X170548Y193409D01*
X171505Y195720D01*
X171832Y198200D01*
X171505Y200680D01*
X170548Y202991D01*
X169025Y204975D01*
X167041Y206498D01*
X164730Y207455D01*
X162250Y207782D01*
D02*
G37*
G36*
X96600Y79391D02*
X93859Y79030D01*
X91305Y77972D01*
X89111Y76289D01*
X87428Y74095D01*
X86370Y71541D01*
X86009Y68800D01*
X86370Y66059D01*
X87428Y63505D01*
X88190Y62512D01*
X95539Y69861D01*
X102888Y77210D01*
X101895Y77972D01*
X99341Y79030D01*
X96600Y79391D01*
D02*
G37*
G36*
X249000D02*
X246259Y79030D01*
X243705Y77972D01*
X241511Y76289D01*
X239828Y74095D01*
X238770Y71541D01*
X238409Y68800D01*
X238770Y66059D01*
X239828Y63505D01*
X240590Y62512D01*
X247939Y69861D01*
X255288Y77210D01*
X254295Y77972D01*
X251741Y79030D01*
X249000Y79391D01*
D02*
G37*
G36*
X223600D02*
X220859Y79030D01*
X218305Y77972D01*
X216111Y76289D01*
X214428Y74095D01*
X213370Y71541D01*
X213009Y68800D01*
X213370Y66059D01*
X214428Y63505D01*
X215190Y62512D01*
X222539Y69861D01*
X229888Y77210D01*
X228895Y77972D01*
X226341Y79030D01*
X223600Y79391D01*
D02*
G37*
G36*
X198200D02*
X195459Y79030D01*
X192905Y77972D01*
X190711Y76289D01*
X189028Y74095D01*
X187970Y71541D01*
X187609Y68800D01*
X187970Y66059D01*
X189028Y63505D01*
X189790Y62512D01*
X197139Y69861D01*
X204488Y77210D01*
X203495Y77972D01*
X200941Y79030D01*
X198200Y79391D01*
D02*
G37*
G36*
X172800D02*
X170059Y79030D01*
X167505Y77972D01*
X165311Y76289D01*
X163628Y74095D01*
X162570Y71541D01*
X162209Y68800D01*
X162570Y66059D01*
X163628Y63505D01*
X164390Y62512D01*
X171739Y69861D01*
X179088Y77210D01*
X178095Y77972D01*
X175541Y79030D01*
X172800Y79391D01*
D02*
G37*
G36*
X122000D02*
X119259Y79030D01*
X116705Y77972D01*
X114511Y76289D01*
X112828Y74095D01*
X111770Y71541D01*
X111409Y68800D01*
X111770Y66059D01*
X112828Y63505D01*
X113590Y62512D01*
X120939Y69861D01*
X128288Y77210D01*
X127295Y77972D01*
X124741Y79030D01*
X122000Y79391D01*
D02*
G37*
G36*
X79579Y79300D02*
X60700D01*
Y60421D01*
X70139Y69861D01*
X79579Y79300D01*
D02*
G37*
G36*
X81700Y77179D02*
X72261Y67739D01*
X62821Y58300D01*
X81700D01*
Y77179D01*
D02*
G37*
G36*
X257410Y75088D02*
X250061Y67739D01*
X242712Y60390D01*
X243705Y59628D01*
X246259Y58570D01*
X249000Y58209D01*
X251741Y58570D01*
X254295Y59628D01*
X256489Y61311D01*
X258172Y63505D01*
X259230Y66059D01*
X259591Y68800D01*
X259230Y71541D01*
X258172Y74095D01*
X257410Y75088D01*
D02*
G37*
G36*
X232010D02*
X224661Y67739D01*
X217312Y60390D01*
X218305Y59628D01*
X220859Y58570D01*
X223600Y58209D01*
X226341Y58570D01*
X228895Y59628D01*
X231089Y61311D01*
X232772Y63505D01*
X233830Y66059D01*
X234191Y68800D01*
X233830Y71541D01*
X232772Y74095D01*
X232010Y75088D01*
D02*
G37*
G36*
X206610D02*
X199261Y67739D01*
X191912Y60390D01*
X192905Y59628D01*
X195459Y58570D01*
X198200Y58209D01*
X200941Y58570D01*
X203495Y59628D01*
X205689Y61311D01*
X207372Y63505D01*
X208430Y66059D01*
X208791Y68800D01*
X208430Y71541D01*
X207372Y74095D01*
X206610Y75088D01*
D02*
G37*
G36*
X181210D02*
X173861Y67739D01*
X166512Y60390D01*
X167505Y59628D01*
X170059Y58570D01*
X172800Y58209D01*
X175541Y58570D01*
X178095Y59628D01*
X180289Y61311D01*
X181972Y63505D01*
X183030Y66059D01*
X183391Y68800D01*
X183030Y71541D01*
X181972Y74095D01*
X181210Y75088D01*
D02*
G37*
G36*
X136000Y115060D02*
X134173Y114820D01*
X132470Y114115D01*
X131008Y112992D01*
X129886Y111530D01*
X129180Y109827D01*
X128940Y108000D01*
X129180Y106173D01*
X129886Y104470D01*
X130112Y104174D01*
X130144Y104095D01*
X130419Y103669D01*
X130875Y102848D01*
X131033Y102505D01*
X131171Y102158D01*
X131280Y101827D01*
X131361Y101514D01*
X131417Y101217D01*
X131431Y101089D01*
Y75843D01*
X131027Y75706D01*
X123061Y67739D01*
X115712Y60390D01*
X116705Y59628D01*
X119259Y58570D01*
X122000Y58209D01*
X124741Y58570D01*
X127295Y59628D01*
X129489Y61311D01*
X130161Y62188D01*
X131431Y61757D01*
Y56878D01*
X102790Y28237D01*
X102511Y28050D01*
X102157Y27870D01*
X101734Y27711D01*
X101235Y27578D01*
X100659Y27477D01*
X100037Y27417D01*
X98442Y27419D01*
X97547Y27492D01*
X97408Y27476D01*
X96600Y27582D01*
X94120Y27255D01*
X91809Y26298D01*
X89825Y24775D01*
X88302Y22791D01*
X87345Y20480D01*
X87018Y18000D01*
X87345Y15520D01*
X88302Y13209D01*
X89825Y11224D01*
X91809Y9702D01*
X94120Y8745D01*
X96600Y8418D01*
X99080Y8745D01*
X101391Y9702D01*
X103376Y11224D01*
X104898Y13209D01*
X105856Y15520D01*
X106049Y16988D01*
X106102Y17163D01*
X106203Y18160D01*
X106481Y19928D01*
X106644Y20646D01*
X106831Y21298D01*
X107032Y21862D01*
X107242Y22337D01*
X107454Y22723D01*
X107641Y22995D01*
X137523Y52877D01*
X138297Y54034D01*
X138569Y55400D01*
Y61086D01*
X139771Y61494D01*
X139911Y61311D01*
X142105Y59628D01*
X144659Y58570D01*
X147400Y58209D01*
X150141Y58570D01*
X152695Y59628D01*
X154889Y61311D01*
X156572Y63505D01*
X157630Y66059D01*
X157991Y68800D01*
X157630Y71541D01*
X156572Y74095D01*
X155810Y75088D01*
X148461Y67739D01*
X146339Y69861D01*
X153688Y77210D01*
X152695Y77972D01*
X150141Y79030D01*
X147400Y79391D01*
X144659Y79030D01*
X142105Y77972D01*
X139911Y76289D01*
X139771Y76106D01*
X138569Y76514D01*
Y100380D01*
X138589Y100515D01*
X138644Y100725D01*
X138719Y100920D01*
X138816Y101109D01*
X138940Y101297D01*
X139097Y101488D01*
X139294Y101685D01*
X139535Y101885D01*
X139887Y102133D01*
X139983Y102233D01*
X140992Y103008D01*
X142114Y104470D01*
X142820Y106173D01*
X143060Y108000D01*
X142820Y109827D01*
X142114Y111530D01*
X140992Y112992D01*
X139530Y114115D01*
X137827Y114820D01*
X136000Y115060D01*
D02*
G37*
G36*
X105010Y75088D02*
X97661Y67739D01*
X90312Y60390D01*
X91305Y59628D01*
X93859Y58570D01*
X96600Y58209D01*
X99341Y58570D01*
X101895Y59628D01*
X104089Y61311D01*
X105772Y63505D01*
X106830Y66059D01*
X107191Y68800D01*
X106830Y71541D01*
X105772Y74095D01*
X105010Y75088D01*
D02*
G37*
G36*
X80700Y27500D02*
X61700D01*
Y8500D01*
X80700D01*
Y27500D01*
D02*
G37*
G36*
X249000Y27582D02*
X246520Y27255D01*
X244209Y26298D01*
X242225Y24775D01*
X240702Y22791D01*
X239745Y20480D01*
X239418Y18000D01*
X239745Y15520D01*
X240702Y13209D01*
X242225Y11224D01*
X244209Y9702D01*
X246520Y8745D01*
X249000Y8418D01*
X251480Y8745D01*
X253791Y9702D01*
X255776Y11224D01*
X257298Y13209D01*
X258256Y15520D01*
X258582Y18000D01*
X258256Y20480D01*
X257298Y22791D01*
X255776Y24775D01*
X253791Y26298D01*
X251480Y27255D01*
X249000Y27582D01*
D02*
G37*
G36*
X223600D02*
X221120Y27255D01*
X218809Y26298D01*
X216825Y24775D01*
X215302Y22791D01*
X214345Y20480D01*
X214018Y18000D01*
X214345Y15520D01*
X215302Y13209D01*
X216825Y11224D01*
X218809Y9702D01*
X221120Y8745D01*
X223600Y8418D01*
X226080Y8745D01*
X228391Y9702D01*
X230375Y11224D01*
X231898Y13209D01*
X232855Y15520D01*
X233182Y18000D01*
X232855Y20480D01*
X231898Y22791D01*
X230375Y24775D01*
X228391Y26298D01*
X226080Y27255D01*
X223600Y27582D01*
D02*
G37*
G36*
X198200D02*
X195720Y27255D01*
X193409Y26298D01*
X191425Y24775D01*
X189902Y22791D01*
X188945Y20480D01*
X188618Y18000D01*
X188945Y15520D01*
X189902Y13209D01*
X191425Y11224D01*
X193409Y9702D01*
X195720Y8745D01*
X198200Y8418D01*
X200680Y8745D01*
X202991Y9702D01*
X204975Y11224D01*
X206498Y13209D01*
X207456Y15520D01*
X207782Y18000D01*
X207456Y20480D01*
X206498Y22791D01*
X204975Y24775D01*
X202991Y26298D01*
X200680Y27255D01*
X198200Y27582D01*
D02*
G37*
G36*
X172800D02*
X170320Y27255D01*
X168009Y26298D01*
X166025Y24775D01*
X164502Y22791D01*
X163545Y20480D01*
X163218Y18000D01*
X163545Y15520D01*
X164502Y13209D01*
X166025Y11224D01*
X168009Y9702D01*
X170320Y8745D01*
X172800Y8418D01*
X175280Y8745D01*
X177591Y9702D01*
X179576Y11224D01*
X181098Y13209D01*
X182055Y15520D01*
X182382Y18000D01*
X182055Y20480D01*
X181098Y22791D01*
X179576Y24775D01*
X177591Y26298D01*
X175280Y27255D01*
X172800Y27582D01*
D02*
G37*
G36*
X147400D02*
X144920Y27255D01*
X142609Y26298D01*
X140625Y24775D01*
X139102Y22791D01*
X138145Y20480D01*
X137818Y18000D01*
X138145Y15520D01*
X139102Y13209D01*
X140625Y11224D01*
X142609Y9702D01*
X144920Y8745D01*
X147400Y8418D01*
X149880Y8745D01*
X152191Y9702D01*
X154176Y11224D01*
X155698Y13209D01*
X156656Y15520D01*
X156982Y18000D01*
X156656Y20480D01*
X155698Y22791D01*
X154176Y24775D01*
X152191Y26298D01*
X149880Y27255D01*
X147400Y27582D01*
D02*
G37*
G36*
X122000D02*
X119520Y27255D01*
X117209Y26298D01*
X115225Y24775D01*
X113702Y22791D01*
X112745Y20480D01*
X112418Y18000D01*
X112745Y15520D01*
X113702Y13209D01*
X115225Y11224D01*
X117209Y9702D01*
X119520Y8745D01*
X122000Y8418D01*
X124480Y8745D01*
X126791Y9702D01*
X128776Y11224D01*
X130298Y13209D01*
X131256Y15520D01*
X131582Y18000D01*
X131256Y20480D01*
X130298Y22791D01*
X128776Y24775D01*
X126791Y26298D01*
X124480Y27255D01*
X122000Y27582D01*
D02*
G37*
%LPD*%
G36*
X166787Y192117D02*
X165588Y190716D01*
X165100Y190041D01*
X164688Y189383D01*
X164350Y188742D01*
X164088Y188119D01*
X163900Y187513D01*
X163787Y186924D01*
X163750Y186352D01*
X160750D01*
X160713Y186924D01*
X160600Y187513D01*
X160413Y188119D01*
X160150Y188742D01*
X159812Y189383D01*
X159400Y190041D01*
X158912Y190716D01*
X158350Y191408D01*
X157000Y192844D01*
X167500D01*
X166787Y192117D01*
D02*
G37*
G36*
X137966Y158120D02*
X138366Y157780D01*
X138772Y157480D01*
X139184Y157220D01*
X139601Y157000D01*
X140023Y156820D01*
X140452Y156680D01*
X140885Y156580D01*
X141325Y156520D01*
X141770Y156500D01*
Y153500D01*
X141325Y153480D01*
X140885Y153420D01*
X140452Y153320D01*
X140023Y153180D01*
X139601Y153000D01*
X139184Y152780D01*
X138772Y152520D01*
X138366Y152220D01*
X137966Y151880D01*
X137571Y151500D01*
Y158500D01*
X137966Y158120D01*
D02*
G37*
G36*
X138715Y103801D02*
X138294Y103506D01*
X137918Y103192D01*
X137585Y102860D01*
X137297Y102510D01*
X137054Y102141D01*
X136854Y101754D01*
X136699Y101349D01*
X136589Y100926D01*
X136522Y100485D01*
X136500Y100025D01*
X133500Y100670D01*
X133484Y101093D01*
X133434Y101523D01*
X133352Y101959D01*
X133237Y102402D01*
X133089Y102852D01*
X132908Y103308D01*
X132695Y103772D01*
X132169Y104718D01*
X131857Y105201D01*
X138715Y103801D01*
D02*
G37*
G36*
X106411Y24690D02*
X106050Y24279D01*
X105717Y23796D01*
X105412Y23242D01*
X105136Y22617D01*
X104888Y21921D01*
X104669Y21153D01*
X104477Y20313D01*
X104180Y18421D01*
X104073Y17368D01*
X97382Y25459D01*
X98358Y25380D01*
X100134Y25378D01*
X100934Y25455D01*
X101674Y25585D01*
X102356Y25767D01*
X102979Y26001D01*
X103544Y26287D01*
X104049Y26625D01*
X104495Y27016D01*
X106411Y24690D01*
D02*
G37*
D21*
X136000Y108000D02*
D03*
X134000Y155000D02*
D03*
D22*
X135000Y55400D02*
Y107000D01*
X136000Y108000D01*
X162250Y168250D02*
Y198200D01*
X149000Y155000D02*
X162250Y168250D01*
X134000Y155000D02*
X149000D01*
X96600Y17000D02*
X135000Y55400D01*
D23*
X71200Y18000D02*
D03*
Y68800D02*
D03*
D24*
X96600Y18000D02*
D03*
X122000D02*
D03*
X147400D02*
D03*
X172800D02*
D03*
X198200D02*
D03*
X249000D02*
D03*
X223600D02*
D03*
Y68800D02*
D03*
X249000D02*
D03*
X198200D02*
D03*
X172800D02*
D03*
X147400D02*
D03*
X122000D02*
D03*
X96600D02*
D03*
X116450Y198200D02*
D03*
X139350D02*
D03*
X162250D02*
D03*
X185150D02*
D03*
X208050D02*
D03*
X105000Y218000D02*
D03*
X127900D02*
D03*
X150800D02*
D03*
X173700D02*
D03*
X196600D02*
D03*
X116450Y237800D02*
D03*
X139350D02*
D03*
X162250D02*
D03*
X185150D02*
D03*
X208050D02*
D03*
D25*
X284850Y218000D02*
D03*
X34550D02*
D03*
D26*
X30000Y150000D02*
D03*
X290000D02*
D03*
M02*
